<?xml version="1.0" encoding="UTF-8"?>
<svg viewBox="0 0 64 50" version="1.1" xmlns="http://www.w3.org/2000/svg" xmlns:xlink="http://www.w3.org/1999/xlink">
    <!-- Generator: Sketch 53.2 (72643) - https://sketchapp.com -->
    <title>logo icon - white</title>
    <desc>Created with Sketch.</desc>
    <g id="Page-6" stroke="none" stroke-width="1" fill="none" fill-rule="evenodd">
        <g id="Trinity_brandBook_072418-(2)-Copy" transform="translate(-492.000000, -383.000000)" fill="#FFFFFE">
            <g id="logo-icon---white" transform="translate(492.000000, 383.000000)">
                <polygon id="Fill-335" fill-opacity="0.75" points="10.1056 22.4657 19.9146 32.6457 19.9146 49.2907 23.6836 49.2907 23.6836 32.6047 23.6836 24.4907"></polygon>
                <path d="M61.588,21.5228 L58.078,20.7018 L58.078,16.6258 L61.588,17.6078 L61.588,21.5228 Z M61.588,27.3958 L58.078,26.8138 L58.078,22.7398 L61.588,23.4808 L61.588,27.3958 Z M61.588,33.2688 L58.078,32.9268 L58.078,28.8528 L61.588,29.3548 L61.588,33.2688 Z M56.432,20.3168 L52.059,19.2918 L52.059,14.9418 L56.432,16.1648 L56.432,20.3168 Z M56.432,26.5428 L52.059,25.8178 L52.059,21.4678 L56.432,22.3908 L56.432,26.5428 Z M56.432,32.7678 L52.059,32.3428 L52.059,27.9928 L56.432,28.6168 L56.432,32.7678 Z M63.745,49.2738 L63.745,15.5518 L50.118,11.5848 L50.118,49.2908 L63.745,49.2738 Z" id="Fill-337" fill-opacity="0.75"></path>
                <polygon id="Fill-339" fill-opacity="0.75" points="42.2633 11.4112 49.8853 9.8192 52.5883 10.5742 52.5883 6.4502 34.4803 0.7002 34.4803 49.2742 42.2633 49.2742"></polygon>
                <path d="M32.3242,7.9018 L27.5832,8.9938 L27.5832,4.8618 L32.3242,3.5518 L32.3242,7.9018 Z M32.3242,14.4278 L27.5832,15.3038 L27.5832,11.1698 L32.3242,10.0778 L32.3242,14.4278 Z M32.3242,20.9528 L27.5832,21.6098 L27.5832,17.4768 L32.3242,16.6018 L32.3242,20.9528 Z M32.3242,27.6348 L27.5832,27.9178 L27.5832,23.7858 L32.3242,23.3038 L32.3242,27.6348 Z M34.4802,49.2738 L34.4802,0.6998 L25.4272,3.2018 L25.4272,49.2908 L34.4802,49.2738 Z" id="Fill-342"></path>
                <polygon id="Fill-343" points="44.062 49.2742 44.062 12.7422 50.117 11.5852 50.117 49.2902"></polygon>
                <path d="M10.1057,22.4659 L0.3497,32.5519 L0.2967,49.2909 L19.9147,49.2879 L19.9147,32.6459 L10.1057,22.4659 Z M5.1197,46.2769 L8.9497,46.2769 L8.9497,43.3729 L5.1197,43.3729 L5.1197,46.2769 Z M5.1197,42.0459 L8.9497,42.0459 L8.9497,39.1419 L5.1197,39.1419 L5.1197,42.0459 Z M5.1197,37.8149 L8.9497,37.8149 L8.9497,34.9109 L5.1197,34.9109 L5.1197,37.8149 Z M10.6337,46.2769 L14.7347,46.2769 L14.7347,43.3729 L10.6337,43.3729 L10.6337,46.2769 Z M10.6337,42.0459 L14.7347,42.0459 L14.7347,39.1419 L10.6337,39.1419 L10.6337,42.0459 Z M10.6337,37.8149 L14.7347,37.8149 L14.7347,34.9109 L10.6337,34.9109 L10.6337,37.8149 Z" id="Fill-344"></path>
            </g>
        </g>
    </g>
</svg>