<?xml version="1.0" encoding="UTF-8"?>
<svg viewBox="0 0 512 512" version="1.1" xmlns="http://www.w3.org/2000/svg" xmlns:xlink="http://www.w3.org/1999/xlink">
    <!-- Generator: Sketch 58 (84663) - https://sketch.com -->
    <title>logo</title>
    <desc>Created with Sketch.</desc>
    <g id="trinity-pm-logo" stroke="none" stroke-width="1" fill="none" fill-rule="evenodd">
        <g id="logo" transform="translate(1.000000, 1.000000)">
            <g id="icon" transform="translate(0.000000, 61.000000)" fill-rule="nonzero">
                <polygon id="Fill-56" fill="#3D9B86" points="78.9197606 176.101392 157.840328 258.468888 157.840328 393.136983 188.161209 393.136983 188.161209 258.134274 188.161209 192.485392"></polygon>
                <path d="M493.132195,168.472189 L464.891565,161.828283 L464.891565,128.850646 L493.132195,136.792693 L493.132195,168.472189 Z M493.132195,215.991433 L464.891565,211.282646 L464.891565,178.317102 L493.132195,184.315969 L493.132195,215.991433 Z M493.132195,263.506646 L464.891565,260.741039 L464.891565,227.775496 L493.132195,231.839244 L493.132195,263.506646 Z M451.648101,158.715969 L416.465235,150.41915 L416.465235,115.22822 L451.648101,125.121512 L451.648101,158.715969 Z M451.648101,209.093543 L416.465235,203.219654 L416.465235,168.028724 L451.648101,175.495055 L451.648101,209.093543 Z M451.648101,259.450961 L416.465235,256.012094 L416.465235,220.821165 L451.648101,225.868598 L451.648101,259.450961 Z M510.487786,393.002331 L510.487786,120.162772 L400.843187,88.064 L400.843187,393.13537 L510.487786,393.002331 Z" id="Fill-57" fill="#E9A52F"></path>
                <polygon id="Fill-58" fill="#1E4E57" points="337.651906 86.6610394 398.974992 73.7804094 420.720882 79.888126 420.720882 46.5194331 275.030677 0 275.030677 393.002331 337.651906 393.002331"></polygon>
                <path d="M257.684359,58.2672126 L219.542375,67.104252 L219.542375,33.6670236 L257.684359,23.0682205 L257.684359,58.2672126 Z M257.684359,111.063685 L219.542375,118.151055 L219.542375,84.7097953 L257.684359,75.8687244 L257.684359,111.063685 Z M257.684359,163.856126 L219.542375,169.177701 L219.542375,135.740472 L257.684359,128.661165 L257.684359,163.856126 Z M257.684359,217.92252 L219.542375,220.216441 L219.542375,186.783244 L257.684359,182.884787 L257.684359,217.92252 Z M275.027855,393.002331 L275.027855,0 L202.190816,20.2421417 L202.190816,393.13537 L275.027855,393.002331 Z" id="Fill-59" fill="#246173"></path>
                <polygon id="Fill-60" fill="#EEB039" points="352.123364 393.00354 352.123364 97.4303748 400.843994 88.0652094 400.843994 393.13658"></polygon>
                <polygon id="Fill-61-path" fill="#4AB69F" points="78.9205669 176.102198 0.423307087 257.707742 0 393.137789 157.841134 393.1136 157.841134 258.469694"></polygon>
                <path d="M38.8031496,368.755301 L69.623937,368.755301 L69.623937,345.259742 L38.8031496,345.259742 L38.8031496,368.755301 Z M38.8031496,334.519836 L69.623937,334.519836 L69.623937,311.028309 L38.8031496,311.028309 L38.8031496,334.519836 Z M38.8031496,300.288403 L69.623937,300.288403 L69.623937,276.792844 L38.8031496,276.792844 L38.8031496,300.288403 Z M83.1657323,368.755301 L116.163528,368.755301 L116.163528,345.259742 L83.1657323,345.259742 L83.1657323,368.755301 Z M83.1657323,334.519836 L116.163528,334.519836 L116.163528,311.028309 L83.1657323,311.028309 L83.1657323,334.519836 Z M83.1657323,300.288403 L116.163528,300.288403 L116.163528,276.792844 L83.1657323,276.792844 L83.1657323,300.288403 Z" id="Fill-61" fill="#FFFFFF"></path>
            </g>
        </g>
    </g>
</svg>