<?xml version="1.0" encoding="UTF-8"?>
<svg viewBox="0 0 139 148" version="1.1" xmlns="http://www.w3.org/2000/svg" xmlns:xlink="http://www.w3.org/1999/xlink">
    <!-- Generator: Sketch 53.1 (72631) - https://sketchapp.com -->
    <title>web_avanti_primarylogo_rgb</title>
    <desc>Created with Sketch.</desc>
    <g id="Page-1" stroke="none" stroke-width="1" fill="none" fill-rule="evenodd">
        <g id="Desktop-HD-Copy" transform="translate(-545.000000, -740.000000)" fill-rule="nonzero">
            <g id="web_avanti_primarylogo_rgb" transform="translate(545.000000, 740.000000)">
                <path d="M137.62349,142.10411 L73.87875,2.82594 C73.26075,1.5814 72.43243,0.55145 70.36399,0.55145 L68.29554,0.55145 C66.43314,0.55145 65.39893,1.5814 64.77222,2.82594 L31.17179,75.54075 L56.2083,80.02685 L68.50159,52.49482 L69.12386,52.49482 L110.09833,143.34864 C111.54465,146.24113 112.99494,147.48125 116.09775,147.48125 L134.10031,147.48125 C137.20743,147.48126 138.86819,144.79054 137.62349,142.10411 Z" id="Path" fill="#96A3AE"></path>
                <path d="M23.75732,91.58629 L0.41378,142.10411 C-0.82634,144.79054 0.83,147.48126 3.92854,147.48126 L21.93966,147.48126 C25.24394,147.48126 27.11076,145.4171 27.93466,143.34865 L46.17486,102.49782 L23.75732,91.58629 Z" id="Path" fill="#96A3AE"></path>
                <polygon id="Path" fill="#323E48" points="12.86457 115.15915 25.81599 87.36363 82.95215 97.20387"></polygon>
            </g>
        </g>
    </g>
</svg>