<?xml version="1.0" encoding="UTF-8"?>
<svg viewBox="0 0 126 126" version="1.1" xmlns="http://www.w3.org/2000/svg" xmlns:xlink="http://www.w3.org/1999/xlink">
    <!-- Generator: Sketch 52.5 (67469) - http://www.bohemiancoding.com/sketch -->
    <title>bigos-logo-icon</title>
    <desc>Created with Sketch.</desc>
    <g id="Page-11" stroke="none" stroke-width="1" fill="none" fill-rule="evenodd">
        <g id="Bigos_LogoGuide_V1" transform="translate(-333.000000, -243.000000)" fill="#ffffff">
            <g id="bigos-logo-icon" transform="translate(333.000000, 243.000000)">
                <path d="M4.2904,125.7452 C2.0604,125.7452 0.2624,123.9312 0.2584,121.7022 L0.2584,4.2952 C0.2624,2.0672 2.0604,0.2552 4.2904,0.2552 L121.7084,0.2552 C123.9354,0.2552 125.7384,2.0672 125.7414,4.2952 L125.7414,121.7022 C125.7384,123.9312 123.9354,125.7452 121.7084,125.7452 L4.2904,125.7452 Z M6.2274,119.7702 L119.7694,119.7702 L119.7694,6.2222 L6.2274,6.2222 L6.2274,119.7702 Z" id="Fill-606"></path>
                <path d="M29.3236,95.7188 C28.3416,95.7188 27.5436,94.9238 27.5436,93.9378 L27.5436,88.6938 C27.5436,88.2368 27.9136,87.8708 28.3716,87.8708 L31.3076,87.8708 C31.7646,87.8708 32.1326,87.5008 32.1326,87.0408 L32.1326,39.2848 C32.1326,38.8278 31.7646,38.4588 31.3076,38.4588 L28.3606,38.4588 C27.9016,38.4588 27.5316,38.0888 27.5316,37.6318 L27.5316,32.2108 C27.5316,31.2258 28.3286,30.4328 29.3116,30.4328 L38.3226,30.4328 C39.3076,30.4328 40.1046,31.2258 40.1046,32.2108 L40.1046,86.0558 C40.1046,87.0408 40.9026,87.8398 41.8856,87.8398 L86.3376,87.8398 C87.2136,87.8398 88.1816,87.7468 88.7026,87.0718 C89.2246,86.3918 89.0616,85.4188 88.8306,84.5598 C86.2726,74.9578 79.4626,68.6338 69.6546,67.5998 C68.3336,67.4608 67.0176,67.4148 65.9006,67.3918 C65.2736,67.3788 64.6486,67.3758 64.0116,67.3758 L61.5926,67.3838 L61.5926,58.9808 L62.9796,58.9808 C67.0496,58.9808 70.7136,58.8938 74.3306,57.8078 C81.6566,55.6078 86.4116,50.1678 88.8546,42.1308 C89.0166,41.6048 89.1966,40.9918 89.2846,40.3478 C89.3646,39.7928 89.2616,39.3158 88.9816,38.9458 C88.6816,38.5538 88.2096,38.3148 87.5796,38.2328 C87.4636,38.2178 87.3466,38.2148 87.2296,38.2148 L56.6406,38.2178 C56.4536,38.2178 55.8376,38.2298 55.6116,38.2478 C55.6116,38.2478 55.1146,38.2478 55.1146,38.7768 C55.1146,39.3008 55.1046,49.8388 55.1046,49.8388 C55.0956,57.6208 55.0836,65.3998 55.1456,73.1818 C55.1716,76.7338 52.9616,80.5478 47.9636,81.0528 L46.8016,81.1638 L46.8016,32.0628 C46.8016,31.0798 47.6016,30.2818 48.5846,30.2818 L93.0426,30.2818 C94.7316,30.2818 96.1966,30.8508 97.1646,31.8778 C98.1066,32.8788 98.5526,34.2518 98.4576,35.8508 C97.8686,45.6858 94.5236,53.3958 88.2326,59.4168 C87.6166,60.0048 86.9296,60.5468 86.2206,61.0958 C85.7406,61.4678 85.2416,61.8198 84.7186,62.1838 L83.3356,63.1698 C83.3356,63.1698 84.7686,64.2088 84.9906,64.3658 C90.9496,68.5288 94.8836,74.3878 97.0176,82.2908 C97.9286,85.6578 98.4816,88.5038 98.2396,91.4328 C98.0496,93.7498 95.8826,95.7138 93.5056,95.7138 C82.5146,95.7188 71.5196,95.7218 60.5256,95.7218 L29.3236,95.7188 Z" id="Fill-608"></path>
            </g>
        </g>
    </g>
</svg>