<?xml version="1.0" encoding="UTF-8"?>
<svg viewBox="0 0 512 512" version="1.1" xmlns="http://www.w3.org/2000/svg" xmlns:xlink="http://www.w3.org/1999/xlink">
    <!-- Generator: Sketch 57.1 (83088) - https://sketch.com -->
    <title>512-favicon</title>
    <desc>Created with Sketch.</desc>
    <g id="Page-1" stroke="none" stroke-width="1" fill="none" fill-rule="evenodd">
        <g id="512-favicon">
            <rect id="Rectangle" fill="#000000" x="0" y="0" width="512" height="512"></rect>
            <path d="M458.215917,475 L437.840088,475 C369.144436,471.21594 345.275608,456.079702 322.862196,424.933982 C300.448784,393.788261 278.326455,351.581443 257.077377,315.487337 C246.598379,297.149202 237.865881,293.365143 213.123803,293.365143 L197.114223,293.365143 L197.114223,388.548794 C197.114223,440.943464 203.809138,444.727524 252.420044,450.258072 L252.420044,471.798103 L67,471.798103 L67,449.384828 C116.775239,444.145361 122.014738,440.07022 122.014738,387.675549 L122.014738,140.547354 C122.014738,89.0259285 115.319823,82.331054 67,79.420239 L67,57.8802078 L243.396463,57.8802078 C281.59401,54.1600202 320.010733,62.2904941 353.42594,81.166728 C381.520501,99.7046146 397.777921,131.666285 396.215181,165.289282 C395.39081,214.054906 362.962964,256.623565 316.167281,270.369704 C326.355195,289.581083 351.970523,331.49682 370.890936,360.313888 C385.571501,383.493168 401.9151,405.57635 419.792926,426.389389 C430.517134,440.219257 445.261789,450.387923 462,455.497539 L458.215917,475 Z M218.877801,267.534414 C241.925475,269.808538 265.020796,263.700767 283.927798,250.331343 C306.153733,231.677557 317.996423,203.441193 315.723536,174.521202 C315.723536,106.87523 274.593269,82.3827224 234.338114,82.3827224 C223.604577,81.0296938 212.725827,83.2865679 203.417488,88.7974267 C198.750224,92.8795112 197,99.8773704 197,114.164666 L197,267.534414 L218.877801,267.534414 Z" id="Shape" fill="#FFFFFF" fill-rule="nonzero"></path>
        </g>
    </g>
</svg>