<svg viewBox="0 0 320.22 111.47" xmlns="http://www.w3.org/2000/svg"><g fill="#fff"><path d="m60.19 60.61c-.53 0-1.6 0-2.68-.09-11.34-.53-14.65-2.94-17.33-6.7-3.57-4.91-6.18-10.36-9.18-15.72-1.34-2.41-2.59-3-5.45-3l-1.79-.09v13c0 7.24.89 7.87 7.59 8.67v3.31h-27.35v-3.22c6.79-.71 7.6-1.43 7.6-8.67v-34.22c0-7-.9-8-7.6-8.57v-3.31h25.9c8 0 12.51.89 16.18 3.4s6 6.34 6 11.88c0 8-5.27 12.15-11.17 14.47 1.34 2.68 4.83 8.49 7.51 12.6a71.35 71.35 0 0 0 6.79 9.29c2.06 2.33 3 3 5.63 3.94zm-34-29.21c3.84 0 6.79-.63 8.76-2.33 3-2.5 4.2-5.89 4.2-10.45 0-9.47-5.45-12.87-10.46-12.87-2.41 0-3.57.36-4.11.9s-.8 1.6-.8 3.39v21.36z"/><path d="m98.17 51.32c-5.45 8-12.6 9.83-16.36 9.83-12 0-18.76-8.85-18.76-19.48a23.49 23.49 0 0 1 6.7-16.08 20 20 0 0 1 13.94-6.26 14.65 14.65 0 0 1 14.74 14.57c0 1.52-.09 3-1.16 3.3-1.7.45-14.29 1.08-23 1.43.36 9.47 5.63 14.3 12.06 14.3a15.41 15.41 0 0 0 10.19-4zm-16.27-28.32c-3.57 0-6.61 4.2-7.14 11.26l10.81-.26c1.25-.09 1.78-.27 1.78-1.79.09-4.48-1.96-9.21-5.45-9.21z"/><path d="m129.62 32c-2.32-6.25-5.36-9.11-9.56-9.11a4.6 4.6 0 0 0 -4.73 4.73c0 3.13 2.23 4.83 6.88 6.88 7.23 3.22 12.15 6.26 12.15 13.32 0 8.93-8.49 13.31-16.26 13.31a29.64 29.64 0 0 1 -11.35-2.68c-.36-2.06-1.16-8.22-1.43-11.35l3-.53c1.87 5.63 5.54 10.9 11.34 10.9 3.4 0 5.1-2.06 5.1-4.65 0-2.77-1.34-4.82-6.88-7.5-5.9-2.86-11.62-6-11.62-13.41 0-7.06 5.81-12.6 15.28-12.6a41.5 41.5 0 0 1 9.65 1.34c.27 2.42 1.07 8.14 1.43 10.55z"/><path d="m163.94 2c7.06 0 12.69 1 16.35 3.57 4.2 2.95 6.7 7.33 6.7 13.5 0 13-11 18.4-20.55 18.49a22.34 22.34 0 0 1 -2.68-.18l-5.18-1.38v12.19c0 7.51.62 7.87 8.4 8.58v3.31h-28.42v-3.31c6.7-.8 7.6-1.07 7.6-8.58v-34.13c0-7.5-.9-8.31-7.6-8.75v-3.31zm-5.36 30.29a11.38 11.38 0 0 0 4.73.89c4.11 0 10.81-2.41 10.81-14.2 0-10-5.45-13.32-11.25-13.32a5.44 5.44 0 0 0 -3.49.9c-.62.53-.8 1.43-.8 2.77z"/><path d="m215.08 60.08h-23.59v-3.08c4.74-.54 5.18-1 5.18-6.34v-19.53c0-4.47-.35-4.92-4.55-5.81v-2.77a86.17 86.17 0 0 0 16.08-3.39v9.65c4-6.17 7.24-9.48 10.9-9.48 3.31 0 5.81 2.24 5.81 5.37a8.68 8.68 0 0 1 -4.56 7.59 2.45 2.45 0 0 1 -2.77-.45c-1.52-1.25-2.68-2.68-4.2-2.68-1.34 0-3.57 1.16-5.18 4.56v17c0 5.36.62 5.63 6.88 6.34z"/><path d="m249.24 19.33c12.6 0 20.56 9.48 20.56 20.2 0 14.38-10.37 21.62-20.91 21.62-13.49 0-21.18-10.19-21.18-20.64 0-13.67 11.29-21.18 21.53-21.18zm-1.07 3.58c-3.84 0-7.59 4-7.59 15s3.66 19.57 9.29 19.57c3.4 0 7.06-2.33 7.06-15.37 0-12.41-3.22-19.2-8.76-19.2z"/><path d="m273.3 22.46a149.11 149.11 0 0 0 16.44-4v6.43c.18-.09 6-3.57 6.25-3.66a11.53 11.53 0 0 1 5.81-1.88c9.83 0 15.46 9 15.46 17.61 0 13-10.37 21.71-21.89 24.21a16.48 16.48 0 0 1 -5.63-.8v8.82c0 5 .44 5.54 6.61 6.34v2.95h-24v-2.97c5.45-.53 5.81-1.34 5.81-6.25v-37.95c0-4.83-.53-5.36-4.91-5.9zm16.44 31.1a12.3 12.3 0 0 0 7.32 3.3c4.74 0 8.22-5.81 8.22-15.46 0-11-5.45-15.19-9.91-15.19a9.72 9.72 0 0 0 -5.63 2z"/><path d="m17.58 103.88h-.7c-2.36-.13-3.18-.65-3.95-1.72s-1.53-2.52-2.26-3.76c-.36-.63-.66-.76-1.51-.76h-.55v3.27c0 1.8.23 1.93 1.9 2.12v.74h-6.37v-.77c1.71-.18 1.89-.32 1.89-2.12v-8.49c0-1.77-.23-2-1.89-2.1v-.74h6.06a6.42 6.42 0 0 1 3.78.8 3.28 3.28 0 0 1 1.47 2.89 3.83 3.83 0 0 1 -2.75 3.61c.35.66 1.23 2.1 1.88 3.09a19.48 19.48 0 0 0 1.68 2.27 2.91 2.91 0 0 0 1.45 1zm-8.22-7.12a3.3 3.3 0 0 0 2.23-.59 3.08 3.08 0 0 0 1.09-2.6c0-2.32-1.41-3.16-2.79-3.16a1.67 1.67 0 0 0 -1.06.22c-.16.14-.22.38-.22.87v5.26z"/><path d="m26.56 101.69a5 5 0 0 1 -3.86 2.31 4.41 4.41 0 0 1 -4.47-4.73 5.69 5.69 0 0 1 1.56-3.89 4.72 4.72 0 0 1 3.35-1.55 3.52 3.52 0 0 1 3.51 3.5c0 .39 0 .7-.34.77s-3.4.27-5.69.36c0 2.53 1.5 3.71 3.06 3.71a3.76 3.76 0 0 0 2.51-1zm-3.89-7c-.92 0-1.74 1-1.94 2.74 1 0 2 0 3-.07.33 0 .46-.08.46-.44.05-1.11-.54-2.23-1.52-2.23z"/><path d="m33.93 96.83c-.51-1.43-1.19-2.19-2.32-2.19a1.2 1.2 0 0 0 -1.23 1.25c0 .82.58 1.24 1.75 1.77 1.8.82 2.91 1.53 2.91 3.16 0 2.12-2 3.17-3.83 3.17a6.57 6.57 0 0 1 -2.71-.64c-.09-.54-.29-1.94-.36-2.69l.69-.12c.43 1.38 1.28 2.61 2.74 2.61a1.22 1.22 0 0 0 1.34-1.25c0-.79-.42-1.29-1.7-1.91-1.47-.72-2.81-1.46-2.81-3.19s1.39-3 3.61-3a10.7 10.7 0 0 1 2.27.31c.06.57.24 2 .34 2.52z"/><path d="m36.34 103.73v-.73c1.25-.15 1.38-.25 1.38-1.77v-4.3c0-1.42-.09-1.51-1.21-1.67v-.65a20.78 20.78 0 0 0 3.65-.82v7.48c0 1.48.11 1.62 1.43 1.77v.69zm2.45-11.55a1.45 1.45 0 0 1 -1.42-1.42 1.42 1.42 0 0 1 1.44-1.42 1.39 1.39 0 0 1 1.42 1.42 1.43 1.43 0 0 1 -1.44 1.42z"/><path d="m53.71 103.17a31.25 31.25 0 0 0 -4 .84v-1.32c-.39.25-1 .57-1.34.83a2.62 2.62 0 0 1 -1.31.47 4.63 4.63 0 0 1 -4.34-4.83c0-3 2.64-5.34 5.9-5.34a4.05 4.05 0 0 1 1.09.13v-2.76c0-1.24-.13-1.32-1.55-1.48v-.71a26.78 26.78 0 0 0 4-.74v12.76c0 1.16.13 1.29 1 1.37l.55.06zm-4-7.32a2 2 0 0 0 -1.87-1.09c-.8 0-2.4.54-2.4 3.69 0 2.79 1.61 4 2.73 4a2.71 2.71 0 0 0 1.54-.52z"/><path d="m63.12 101.69a5 5 0 0 1 -3.86 2.3 4.41 4.41 0 0 1 -4.48-4.73 5.69 5.69 0 0 1 1.56-3.89 4.72 4.72 0 0 1 3.35-1.55 3.52 3.52 0 0 1 3.51 3.5c0 .39-.05.7-.34.77s-3.4.27-5.68.36c0 2.53 1.5 3.71 3.06 3.71a3.73 3.73 0 0 0 2.5-1zm-3.9-7c-.91 0-1.74 1-1.93 2.74 1 0 2 0 3-.07.34 0 .47-.08.47-.44.04-1.11-.56-2.23-1.54-2.23z"/><path d="m70.77 103.73v-.73c1-.14 1.12-.25 1.12-1.74v-3.65c0-1.54-.68-2.21-1.68-2.21a3.07 3.07 0 0 0 -1.92.82v5.22c0 1.39.11 1.46 1.14 1.6v.69h-4.94v-.73c1.24-.19 1.37-.23 1.37-1.66v-4.48c0-1.35-.17-1.41-1.2-1.61v-.65a18.56 18.56 0 0 0 3.66-.85v1.63c.44-.31.91-.63 1.43-1a3.07 3.07 0 0 1 1.74-.6c1.76 0 2.87 1.29 2.87 3.47v4.14c0 1.4.13 1.46 1.25 1.61v.69z"/><path d="m81.1 103.74a2.32 2.32 0 0 1 -.89.25c-1.58 0-2.49-.81-2.49-2.71v-6.18h-1.44l-.11-.26.61-.76h.94v-1.82c.62-.49 1.54-1.14 2.18-1.64l.3.13c0 .71-.07 1.9 0 3.33h2.29a.86.86 0 0 1 -.16 1h-2.18v5.43c0 1.73.7 2 1.16 2a2.89 2.89 0 0 0 1.15-.26l.21.71z"/><path d="m83.52 103.73v-.73c1.25-.15 1.39-.25 1.39-1.77v-4.3c0-1.42-.1-1.51-1.22-1.67v-.65a20.78 20.78 0 0 0 3.65-.82v7.48c0 1.48.11 1.62 1.43 1.77v.69zm2.48-11.55a1.45 1.45 0 0 1 -1.42-1.42 1.43 1.43 0 0 1 1.42-1.42 1.39 1.39 0 0 1 1.41 1.42 1.43 1.43 0 0 1 -1.41 1.42z"/><path d="m97.05 104a1.92 1.92 0 0 1 -1.24-.44 2.13 2.13 0 0 1 -.55-.87 7.42 7.42 0 0 1 -2.42 1.31 2.8 2.8 0 0 1 -2.84-2.78c0-1.12.55-1.71 1.72-2.15a17.8 17.8 0 0 0 3.49-1.43v-.78c0-1.28-.54-2-1.55-2a1.13 1.13 0 0 0 -.93.46 4.32 4.32 0 0 0 -.54 1.43.79.79 0 0 1 -.84.66 1.24 1.24 0 0 1 -1.17-1.08c0-.36.27-.63.75-1a10.35 10.35 0 0 1 3.37-1.54 3.54 3.54 0 0 1 2.1.62 3 3 0 0 1 1.17 2.63v3.96c0 1 .36 1.3.72 1.3a1.76 1.76 0 0 0 .72-.19l.23.69zm-1.86-5.5-1.5.76c-.73.35-1.17.75-1.17 1.52a1.52 1.52 0 0 0 1.42 1.67 1.79 1.79 0 0 0 1.25-.51z"/><path d="m99.76 103.73v-.73c1.3-.18 1.39-.29 1.39-1.68v-10.08c0-1.2-.12-1.33-1.35-1.55v-.69a20.72 20.72 0 0 0 3.78-.74v13.06c0 1.43.09 1.53 1.4 1.68v.69z"/><path d="m119.38 89.55a6.85 6.85 0 0 1 3.85.91 3.67 3.67 0 0 1 1.61 3.21c0 3.17-2.7 4.49-5 4.5a5.41 5.41 0 0 1 -.63 0l-1.35-.35v3.12c0 1.83.15 1.9 2.09 2.09v.74h-6.62v-.77c1.72-.19 1.9-.28 1.9-2.11v-8.46c0-1.87-.23-2-1.9-2.14v-.74zm-1.47 7.37a3.21 3.21 0 0 0 1.31.24c1.17 0 2.86-.65 2.86-3.48 0-2.43-1.41-3.29-3-3.29a1.57 1.57 0 0 0 -1 .23c-.16.14-.21.38-.21.79z"/><path d="m131.72 103.73h-5.5v-.73c1.23-.14 1.35-.25 1.35-1.59v-4.7c0-1.21-.09-1.3-1.2-1.5v-.63a17.23 17.23 0 0 0 3.63-.85v2.37c.91-1.38 1.74-2.32 2.7-2.32a1.26 1.26 0 0 1 1.37 1.22 1.9 1.9 0 0 1 -1 1.62.56.56 0 0 1 -.64-.08c-.36-.32-.63-.62-1-.62s-1 .42-1.44 1.35v4.13c0 1.35.14 1.44 1.72 1.6z"/><path d="m139.94 93.82a4.8 4.8 0 0 1 4.93 4.92 5 5 0 1 1 -10 .27 5.09 5.09 0 0 1 5.07-5.19zm-.26.83c-1.07 0-2.09 1.09-2.09 3.72s1 4.77 2.53 4.77c1 0 2-.71 2-3.82-.01-2.87-.89-4.67-2.44-4.67z"/><path d="m145.85 94.57a26.66 26.66 0 0 0 3.72-1v1.63c.05 0 1.58-.93 1.65-1a2.9 2.9 0 0 1 1.37-.45 4 4 0 0 1 3.8 4.25c0 3.23-2.56 5.34-5.39 5.92a3.8 3.8 0 0 1 -1.43-.26v2.73c0 1.36.13 1.49 1.69 1.67v.68h-5.61v-.68c1.36-.14 1.48-.3 1.48-1.59v-9.8c0-1.23-.1-1.34-1.28-1.5zm3.72 7.55a3 3 0 0 0 1.88.82c1.42 0 2.4-1.48 2.4-3.87 0-2.57-1.35-3.7-2.6-3.7a3 3 0 0 0 -1.68.64z"/><path d="m166.06 101.69a5 5 0 0 1 -3.86 2.3 4.42 4.42 0 0 1 -4.48-4.73 5.69 5.69 0 0 1 1.56-3.89 4.74 4.74 0 0 1 3.35-1.55 3.51 3.51 0 0 1 3.51 3.5c0 .39 0 .7-.34.77s-3.39.27-5.68.36c0 2.53 1.5 3.71 3.06 3.71a3.71 3.71 0 0 0 2.5-1zm-3.89-7c-.92 0-1.75 1-1.94 2.74 1 0 2 0 3-.07.34 0 .47-.08.47-.44.04-1.11-.55-2.23-1.53-2.23z"/><path d="m173 103.73h-5.5v-.73c1.23-.14 1.35-.25 1.35-1.59v-4.7c0-1.21-.09-1.3-1.2-1.5v-.63a17.52 17.52 0 0 0 3.63-.85v2.37c.91-1.38 1.74-2.32 2.7-2.32a1.25 1.25 0 0 1 1.31 1.22 1.88 1.88 0 0 1 -1 1.62.56.56 0 0 1 -.64-.08c-.35-.32-.63-.62-1-.62s-1 .42-1.43 1.35v4.13c0 1.35.14 1.44 1.72 1.6z"/><path d="m181.14 103.74a2.32 2.32 0 0 1 -.89.25c-1.58 0-2.5-.81-2.5-2.71v-6.18h-1.43l-.12-.26.62-.76h.93v-1.82c.63-.49 1.55-1.14 2.19-1.64l.3.13c0 .71-.07 1.9-.05 3.33h2.29a.86.86 0 0 1 -.16 1h-2.13v5.43c0 1.73.7 2 1.16 2a2.89 2.89 0 0 0 1.15-.26l.21.71z"/><path d="m193.87 94.77c-1.07.16-1.3.36-1.84 1.56s-1.15 2.75-2.5 6a63.39 63.39 0 0 0 -2.26 6.14c-.15.47-.4.61-.74.61a1.53 1.53 0 0 1 -1.59-1.28c0-.32.14-.51.55-.79a4.5 4.5 0 0 0 1.71-1.59 11.58 11.58 0 0 0 .66-1.48 1.16 1.16 0 0 0 -.07-.85c-1-2.91-2.35-5.79-2.84-6.94s-.66-1.28-1.76-1.43v-.69h5.09v.69c-1 .15-1.1.33-.85 1l1.85 4.87c.53-1.31 1.34-3.46 1.76-4.73.23-.75 0-1-1.16-1.19v-.69h4z"/><path d="m213.41 103.73v-.73c1.7-.17 1.8-.32 1.79-2.41v-8.66c-1.64 3.84-3.77 8.72-5.06 11.8h-.67c-1.18-3-3.05-7.74-4.65-11.61-.31 7.13-.32 8.61-.32 9.27 0 1.19.49 1.45 2.08 1.6v.74h-5.33v-.73c1.25-.11 1.8-.36 2-1.62.1-.77.17-1.85.69-9.32.07-1.08-.1-1.59-2-1.76v-.74h4.39l4.42 10.12 4.56-10.12h4.33v.74c-1.79.19-2 .37-2 2l.15 8.25c0 2.09.12 2.19 1.94 2.41v.74z"/><path d="m228 104a1.92 1.92 0 0 1 -1.24-.44 2.13 2.13 0 0 1 -.55-.87 7.42 7.42 0 0 1 -2.42 1.31 2.8 2.8 0 0 1 -2.86-2.77c0-1.12.55-1.71 1.72-2.15a17.8 17.8 0 0 0 3.49-1.43v-.78c0-1.28-.54-2-1.55-2a1.13 1.13 0 0 0 -.93.46 4.32 4.32 0 0 0 -.54 1.43.78.78 0 0 1 -.83.66 1.24 1.24 0 0 1 -1.18-1.08c0-.36.27-.63.75-1a10.35 10.35 0 0 1 3.37-1.54 3.52 3.52 0 0 1 2.1.62 3 3 0 0 1 1.17 2.63v3.95c0 1 .36 1.3.72 1.3a1.76 1.76 0 0 0 .72-.19l.23.69zm-1.86-5.5-1.5.76c-.73.35-1.16.75-1.16 1.52a1.52 1.52 0 0 0 1.41 1.67 1.79 1.79 0 0 0 1.25-.51z"/><path d="m237.22 103.73v-.73c1-.14 1.12-.25 1.12-1.74v-3.65c0-1.54-.68-2.21-1.68-2.21a3.07 3.07 0 0 0 -1.92.82v5.22c0 1.39.11 1.46 1.14 1.6v.69h-4.94v-.73c1.24-.19 1.37-.23 1.37-1.66v-4.48c0-1.35-.16-1.41-1.2-1.61v-.65a18.56 18.56 0 0 0 3.66-.85v1.63c.44-.31.91-.63 1.43-1a3.07 3.07 0 0 1 1.74-.6c1.76 0 2.87 1.29 2.87 3.47v4.14c0 1.4.13 1.46 1.25 1.61v.69z"/><path d="m250.3 104a1.87 1.87 0 0 1 -1.24-.44 2 2 0 0 1 -.55-.87 7.62 7.62 0 0 1 -2.42 1.31 2.8 2.8 0 0 1 -2.86-2.77c0-1.12.54-1.71 1.72-2.15a18.08 18.08 0 0 0 3.49-1.43v-.78c0-1.28-.55-2-1.56-2a1.11 1.11 0 0 0 -.92.46 4.09 4.09 0 0 0 -.55 1.43.78.78 0 0 1 -.83.66 1.24 1.24 0 0 1 -1.17-1.08c0-.36.27-.63.75-1a10.4 10.4 0 0 1 3.36-1.54 3.57 3.57 0 0 1 2.11.62 3 3 0 0 1 1.17 2.63v3.95c0 1 .35 1.3.72 1.3a1.75 1.75 0 0 0 .71-.19l.24.69zm-1.86-5.5-1.51.76c-.73.35-1.16.75-1.16 1.52a1.52 1.52 0 0 0 1.42 1.67 1.81 1.81 0 0 0 1.25-.51z"/><path d="m256.4 100.4a1.42 1.42 0 0 0 -.51.87c0 .36.4.81 1.29.81h2.45c1.36 0 3.25.51 3.25 2.66 0 2.39-2.9 4.42-5.8 4.42-2.72 0-4-1.41-4-2.64a1.44 1.44 0 0 1 .61-1.22c.54-.43 1.21-.92 1.7-1.26a3 3 0 0 1 -1.64-1.21 1.85 1.85 0 0 1 -.32-1.1 5.75 5.75 0 0 0 2.23-1.57zm1.05.22c-2.33 0-4-1.3-4-3.29 0-2.41 2.26-3.53 4.13-3.53a5 5 0 0 1 2.34.56 15 15 0 0 0 3-.32l.11.19a2.74 2.74 0 0 1 -.8 1.28c-.36 0-1-.09-1.31-.11a2.92 2.92 0 0 1 .56 1.86c.01 2.25-1.99 3.36-4.03 3.36zm.34 3.49a2.92 2.92 0 0 0 -2 .43 1.9 1.9 0 0 0 -.76 1.4c0 1.17 1.14 2.07 2.95 2.07s2.91-.89 2.91-2.14a1.55 1.55 0 0 0 -1.11-1.54 6.59 6.59 0 0 0 -1.99-.22zm-.33-9.53c-.78 0-1.53.84-1.53 2.48s.64 2.78 1.72 2.78c.89 0 1.5-.88 1.5-2.52 0-1.49-.58-2.74-1.69-2.74z"/><path d="m271.86 101.69a5 5 0 0 1 -3.86 2.31 4.42 4.42 0 0 1 -4.48-4.73 5.69 5.69 0 0 1 1.56-3.89 4.74 4.74 0 0 1 3.35-1.55 3.51 3.51 0 0 1 3.51 3.5c0 .39 0 .7-.33.77s-3.4.27-5.69.36c0 2.53 1.5 3.71 3.06 3.71a3.76 3.76 0 0 0 2.51-1zm-3.89-7c-.92 0-1.75 1-1.94 2.74 1 0 2 0 3-.07.34 0 .47-.08.47-.44.04-1.11-.5-2.23-1.5-2.23z"/><path d="m285.26 103.73v-.73c1-.14 1.17-.22 1.17-1.62v-3.69c0-1.72-.74-2.28-1.65-2.28a3 3 0 0 0 -1.9.84c0 .26.05.57.05.92v4.35c0 1.27.11 1.38 1.18 1.52v.69h-4.82v-.73c1.1-.14 1.22-.21 1.22-1.54v-3.85c0-1.57-.57-2.21-1.56-2.21a3.24 3.24 0 0 0 -1.93.82v5.28c0 1.3.13 1.4 1.1 1.54v.69h-4.9v-.73c1.29-.15 1.38-.24 1.38-1.59v-4.55c0-1.28-.05-1.44-1.14-1.62v-.64a18.5 18.5 0 0 0 3.56-.85v1.69c.47-.34.88-.65 1.43-1a3.29 3.29 0 0 1 1.8-.64 2.52 2.52 0 0 1 2.43 1.7c.55-.42 1-.75 1.58-1.12a3.38 3.38 0 0 1 1.74-.58c1.83 0 2.84 1.26 2.84 3.46v4.22c0 1.3.12 1.38 1.25 1.54v.69z"/><path d="m299.32 101.69a5 5 0 0 1 -3.87 2.3 4.41 4.41 0 0 1 -4.45-4.73 5.69 5.69 0 0 1 1.56-3.89 4.72 4.72 0 0 1 3.35-1.55 3.52 3.52 0 0 1 3.51 3.5c0 .39 0 .7-.34.77s-3.4.27-5.68.36c0 2.53 1.49 3.71 3.06 3.71a3.73 3.73 0 0 0 2.5-1zm-3.9-7c-.92 0-1.74 1-1.93 2.74 1 0 2 0 3-.07.33 0 .46-.08.46-.44.05-1.11-.55-2.23-1.53-2.23z"/><path d="m306.55 103.73v-.73c1-.14 1.13-.25 1.13-1.74v-3.65c0-1.54-.69-2.21-1.69-2.21a3.06 3.06 0 0 0 -1.91.82v5.22c0 1.39.1 1.46 1.13 1.6v.69h-4.94v-.73c1.24-.19 1.38-.23 1.38-1.66v-4.48c0-1.35-.17-1.41-1.21-1.61v-.65a18.83 18.83 0 0 0 3.67-.85v1.63c.43-.31.9-.63 1.42-1a3.08 3.08 0 0 1 1.75-.6c1.75 0 2.86 1.29 2.86 3.47v4.14c0 1.4.13 1.46 1.26 1.61v.69z"/><path d="m316.47 103.74a2.32 2.32 0 0 1 -.89.25c-1.58 0-2.5-.81-2.5-2.71v-6.18h-1.43l-.12-.26.62-.76h.93v-1.82c.63-.49 1.55-1.14 2.19-1.64l.3.13c0 .71-.07 1.9-.05 3.33h2.29a.86.86 0 0 1 -.16 1h-2.13v5.43c0 1.73.7 2 1.16 2a2.89 2.89 0 0 0 1.15-.26l.21.71z"/></g></svg>