<?xml version="1.0" encoding="utf-8"?>
<!-- Generator: Adobe Illustrator 22.0.0, SVG Export Plug-In . SVG Version: 6.00 Build 0)  -->
<svg version="1.1" id="Layer_1" xmlns="http://www.w3.org/2000/svg" xmlns:xlink="http://www.w3.org/1999/xlink" x="0px" y="0px"
	 viewBox="0 0 1000 400" style="enable-background:new 0 0 1000 400;" xml:space="preserve">
<style type="text/css">
	.st0{fill:#96A3AE;}
	.st1{fill:#323E48;}
</style>
<g>
	<path class="st0" d="M243.64018,96.99922c-1.24023-2.69066,0.4162-5.37712,3.51454-5.37712h21.10956
		c1.86676,0,3.10699,1.24023,3.51901,2.27013l39.73431,88.99129h1.45056l39.73419-88.99129
		c0.41632-1.0299,1.65656-2.27013,3.51901-2.27013h21.10522c3.10699,0,4.76355,2.68646,3.51898,5.37712l-64.15253,139.27832
		c-0.61789,1.24454-1.65213,2.27444-3.51901,2.27444h-2.06845c-1.86243,0-2.89233-1.02991-3.52319-2.27444L243.64018,96.99922z"/>
	<path class="st0" d="M567.89014,93.27343c0-2.06844,1.86243-3.72488,3.93085-3.72488h5.17114l86.0946,91.47607h0.20605V95.5522
		c0-2.07277,1.65643-3.93089,3.93085-3.93089h19.04114c2.06842,0,3.93518,1.85812,3.93518,3.93089v139.27832
		c0,2.06844-1.86676,3.72487-3.93518,3.72487h-4.96527l-86.5022-94.99063h-0.21033v88.98698
		c0,2.07277-1.65643,3.93088-3.93085,3.93088h-18.83514c-2.06842,0-3.93085-1.85811-3.93085-3.93088V93.27343z"/>
	<path class="st0" d="M767.98206,116.45312h-31.66656c-2.27441,0-3.93085-1.86676-3.93085-3.93088V95.5539
		c0-2.07276,1.65643-3.9352,3.93085-3.9352h90.43756c2.27875,0,3.93103,1.86244,3.93103,3.9352v16.96835
		c0,2.06412-1.65228,3.93088-3.93103,3.93088h-31.66211v116.10033c0,2.06844-1.86243,3.93088-3.93103,3.93088h-19.24695
		c-2.06848,0-3.93091-1.86244-3.93091-3.93088V116.45312z"/>
	<path class="st0" d="M872.89111,95.55338c0-2.07263,1.86243-3.9352,3.93091-3.9352h19.2428
		c2.07275,0,3.93518,1.86257,3.93518,3.9352v136.99954c0,2.06845-1.86243,3.93102-3.93518,3.93102h-19.2428
		c-2.06848,0-3.93091-1.86256-3.93091-3.93102V95.55338z"/>
	<g>
		<path class="st0" d="M528.3844,231.10411L464.63965,91.82594c-0.61801-1.24454-1.44632-2.27449-3.51477-2.27449h-2.06845
			c-1.86237,0-2.89661,1.02995-3.52332,2.27449l-33.60043,72.71481l25.03653,4.4861l12.29327-27.53203h0.62228l40.97446,90.85382
			c1.44632,2.89249,2.89661,4.13261,5.99942,4.13261h18.00256C527.96832,236.48126,529.62909,233.79054,528.3844,231.10411z"/>
		<path class="st0" d="M414.51822,180.58629l-23.34357,50.51782c-1.24011,2.68643,0.41623,5.37715,3.51477,5.37715h18.01111
			c3.30429,0,5.17111-2.06416,5.99503-4.13261l18.2402-40.85083L414.51822,180.58629z"/>
	</g>
	<polygon class="st1" points="403.62546,204.15915 416.57687,176.36363 473.71304,186.20387 	"/>
	<g>
		<path class="st1" d="M217.43312,310.09103l-21.58076-16.23114v16.23114h-2.76387v-38.47195h12.98325
			c14.12733,0,15.44955,6.61316,15.44955,11.60025c0,7.39685-4.32915,11.1225-15.02838,11.1225h-6.49161l22.06061,15.74921
			H217.43312z M206.19118,273.96176h-10.33882v18.15472h10.64055c11.60236,0,12.26242-4.86975,12.26242-8.89716
			C218.75533,279.07458,217.73276,273.96176,206.19118,273.96176z"/>
		<path class="st1" d="M257.73438,310.09103v-38.47195h25.7276v2.34268h-23.02451v15.33011h21.22037v2.22534h-21.22037v16.23114
			h23.02451v2.34268H257.73438z"/>
		<path class="st1" d="M334.10208,310.45145c-12.74435,0-16.95197-6.18988-16.95197-14.12735h2.70517
			c0.11945,6.31143,3.30658,11.7218,14.12735,11.7218c10.69922,0,13.10269-4.62668,13.10269-8.59543
			c0-11.60025-28.4328-3.60413-28.4328-17.13217c0-7.33398,5.71213-11.00098,14.84818-11.00098s15.68842,4.14896,15.68842,13.46521
			h-2.64441c-0.11945-7.8746-5.64926-11.11832-13.16345-11.11832c-7.33398,0-12.08432,2.76175-12.08432,8.53674
			c0,10.99677,28.49356,3.60413,28.49356,17.06931C349.7905,304.37891,346.60547,310.45145,334.10208,310.45145z"/>
		<path class="st1" d="M385.52374,310.09103v-38.47195h2.76389v38.47195H385.52374z"/>
		<path class="st1" d="M439.05972,310.09103h-13.64539v-38.47195H439.659c11.12253,0,16.7131,6.61316,16.7131,18.9971
			C456.3721,302.8786,450.36032,310.09103,439.05972,310.09103z M439.11838,273.96176h-11.00095v33.90393h10.52112
			c9.91763,0,15.08704-5.82947,15.08704-17.24951C453.72559,279.01172,448.9166,273.96176,439.11838,273.96176z"/>
		<path class="st1" d="M492.22061,310.09103v-38.47195h25.72757v2.34268h-23.02029v15.33011h21.21823v2.22534h-21.21823v16.23114
			h23.02029v2.34268H492.22061z"/>
		<path class="st1" d="M583.92468,310.09103l-27.77271-35.40427v35.40427h-2.70734v-38.47195h3.48682l27.59253,35.22406v-35.22406
			h2.70306v38.47195H583.92468z"/>
		<path class="st1" d="M636.66229,273.96176v36.12927h-2.64441v-36.12927h-13.04614v-2.34268h28.73663v2.34268H636.66229z"/>
		<path class="st1" d="M683.45306,310.09103v-38.47195h2.76599v38.47195H683.45306z"/>
		<path class="st1" d="M753.46118,310.09103l-3.84723-8.8385h-23.44354l-3.84723,8.8385h-2.82465l16.77179-38.47195h3.48676
			l16.5329,38.47195H753.46118z M737.95502,273.96176l-10.94226,25.18698h21.88037L737.95502,273.96176z"/>
		<path class="st1" d="M789.73297,310.09103v-38.47195h2.70728v36.24661h17.73145v2.22534H789.73297z"/>
	</g>
	<g>
		<path class="st0" d="M237.62349,231.10411L173.87875,91.82594c-0.618-1.24454-1.44632-2.27449-3.51476-2.27449h-2.06845
			c-1.8624,0-2.89661,1.02995-3.52332,2.27449l-33.60043,72.71481l25.03651,4.4861l12.29329-27.53203h0.62227l40.97447,90.85382
			c1.44632,2.89249,2.89661,4.13261,5.99942,4.13261h18.00256C237.20743,236.48126,238.86819,233.79054,237.62349,231.10411z"/>
		<path class="st0" d="M123.75732,180.58629l-23.34354,50.51782c-1.24012,2.68643,0.41622,5.37715,3.51476,5.37715h18.01112
			c3.30428,0,5.1711-2.06416,5.995-4.13261l18.2402-40.85083L123.75732,180.58629z"/>
	</g>
	<polygon class="st1" points="112.86457,204.15915 125.81599,176.36363 182.95215,186.20387 	"/>
</g>
</svg>
