<?xml version="1.0" encoding="UTF-8"?>
<svg viewBox="0 0 241 86" version="1.1" xmlns="http://www.w3.org/2000/svg" xmlns:xlink="http://www.w3.org/1999/xlink">
    <!-- Generator: Sketch 61 (89581) - https://sketch.com -->
    <title>arrive-logo</title>
    <desc>Created with Sketch.</desc>
    <g id="Page-1" stroke="none" stroke-width="1" fill="none" fill-rule="evenodd">
        <g id="ARRIVE-LUXURY-COMMUNITIES-363x90" transform="translate(-2.000000, -2.000000)">
            <g id="arrive-logo" transform="translate(2.000000, 2.000000)">
                <path d="M68.5244,25.6875 C68.4654,23.9435 68.3784,22.3745 68.2614,20.9805 L73.9284,20.9805 C74.0434,22.0845 74.1304,23.3045 74.1904,24.6405 C74.2474,25.9785 74.2774,27.0815 74.2774,27.9535 L74.4504,27.9535 C75.6134,25.5715 77.3564,23.6395 79.6814,22.1565 C82.0054,20.6745 84.6204,19.9345 87.5254,19.9345 C88.2814,19.9345 88.9644,19.9635 89.5754,20.0205 C90.1844,20.0805 90.8094,20.1955 91.4484,20.3695 L90.6644,26.0355 C90.3164,25.9195 89.7334,25.8045 88.9204,25.6875 C88.1064,25.5715 87.2944,25.5125 86.4794,25.5125 C84.9114,25.5125 83.3994,25.8025 81.9484,26.3835 C80.4944,26.9625 79.2314,27.8755 78.1554,29.1215 C77.0804,30.3685 76.2084,31.9615 75.5414,33.9035 C74.8714,35.8465 74.5384,38.1805 74.5384,40.9055 L74.5384,61.7745 L68.6104,61.7745 L68.6104,29.9585 C68.6104,28.8545 68.5814,27.4305 68.5244,25.6875" id="Fill-2" fill="#DE4A2E"></path>
                <path d="M99.0317,25.6875 C98.9727,23.9435 98.8857,22.3745 98.7687,20.9805 L104.4357,20.9805 C104.5507,22.0845 104.6377,23.3045 104.6977,24.6405 C104.7547,25.9785 104.7847,27.0815 104.7847,27.9535 L104.9577,27.9535 C106.1207,25.5715 107.8637,23.6395 110.1897,22.1565 C112.5127,20.6745 115.1277,19.9345 118.0327,19.9345 C118.7887,19.9345 119.4717,19.9635 120.0827,20.0205 C120.6917,20.0805 121.3167,20.1955 121.9557,20.3695 L121.1717,26.0355 C120.8237,25.9195 120.2407,25.8045 119.4287,25.6875 C118.6147,25.5715 117.8017,25.5125 116.9867,25.5125 C115.4187,25.5125 113.9067,25.8025 112.4557,26.3835 C111.0017,26.9625 109.7387,27.8755 108.6627,29.1215 C107.5877,30.3685 106.7167,31.9615 106.0487,33.9035 C105.3787,35.8465 105.0457,38.1805 105.0457,40.9055 L105.0457,61.7745 L99.1177,61.7745 L99.1177,29.9585 C99.1177,28.8545 99.0887,27.4305 99.0317,25.6875" id="Fill-4" fill="#DE4A2E"></path>
                <path d="M129.713,61.774 L135.641,61.774 L135.641,20.98 L129.713,20.98 L129.713,61.774 Z M136.86,5.29 C136.86,6.51 136.425,7.513 135.553,8.297 C134.682,9.082 133.723,9.474 132.677,9.474 C131.631,9.474 130.672,9.082 129.8,8.297 C128.929,7.513 128.493,6.51 128.493,5.29 C128.493,4.069 128.929,3.067 129.8,2.282 C130.672,1.498 131.631,1.106 132.677,1.106 C133.723,1.106 134.682,1.498 135.553,2.282 C136.425,3.067 136.86,4.069 136.86,5.29 L136.86,5.29 Z" id="Fill-6" fill="#DE4A2E"></path>
                <polygon id="Fill-8" fill="#DE4A2E" points="167.2822 61.7744 160.7452 61.7744 144.0952 20.9804 150.7202 20.9804 163.9692 55.4984 164.1432 55.4984 177.4802 20.9804 183.8442 20.9804"></polygon>
                <path d="M220.2793,38.2388 C220.1043,34.4048 218.8693,31.2218 216.5743,28.6948 C214.2773,26.1658 211.0093,24.9028 206.7673,24.9028 C204.7923,24.9028 202.9623,25.2658 201.2753,25.9918 C199.5903,26.7198 198.1093,27.7068 196.8303,28.9558 C195.5513,30.2058 194.5353,31.6298 193.7793,33.2268 C193.0243,34.8258 192.5883,36.4958 192.4723,38.2388 L220.2793,38.2388 Z M226.2923,40.1568 L226.2923,41.4648 C226.2923,41.9308 226.2633,42.4238 226.2073,42.9458 L192.3843,42.9458 C192.4423,44.9808 192.8493,46.8988 193.6043,48.6998 C194.3603,50.5008 195.4073,52.0698 196.7433,53.4058 C198.0803,54.7438 199.6483,55.8038 201.4513,56.5878 C203.2513,57.3728 205.1993,57.7648 207.2913,57.7648 C210.3703,57.7648 213.0283,57.0538 215.2663,55.6298 C217.5033,54.2058 219.2023,52.5658 220.3663,50.7038 L224.8113,54.1918 C222.3703,57.2718 219.6813,59.4798 216.7493,60.8158 C213.8123,62.1518 210.6593,62.8208 207.2913,62.8208 C204.2693,62.8208 201.4643,62.2818 198.8803,61.2078 C196.2943,60.1328 194.0713,58.6368 192.2113,56.7188 C190.3503,54.8008 188.8833,52.5338 187.8073,49.9198 C186.7333,47.3048 186.1963,44.4578 186.1963,41.3768 C186.1963,38.2978 186.7193,35.4498 187.7653,32.8348 C188.8103,30.2198 190.2623,27.9528 192.1243,26.0358 C193.9833,24.1188 196.1623,22.6228 198.6613,21.5468 C201.1593,20.4718 203.8613,19.9338 206.7673,19.9338 C209.9633,19.9338 212.7833,20.4718 215.2223,21.5468 C217.6643,22.6228 219.6963,24.0748 221.3243,25.9058 C222.9513,27.7358 224.1863,29.8718 225.0293,32.3118 C225.8703,34.7518 226.2923,37.3668 226.2923,40.1568 L226.2923,40.1568 Z" id="Fill-9" fill="#DE4A2E"></path>
                <path d="M240.752,58.0918 C240.752,59.1968 240.348,60.1738 239.54,61.0228 C238.733,61.8728 237.714,62.2978 236.482,62.2978 C235.292,62.2978 234.283,61.8828 233.455,61.0548 C232.627,60.2268 232.213,59.2608 232.213,58.1548 C232.213,57.0088 232.616,56.0208 233.424,55.1928 C234.231,54.3638 235.25,53.9498 236.482,53.9498 C237.714,53.9498 238.733,54.3538 239.54,55.1598 C240.348,55.9678 240.752,56.9448 240.752,58.0918" id="Fill-10" fill="#DE4A2E"></path>
                <polygon id="Fill-11" fill="#DE4A2E" points="78.7534 73.7588 80.0764 73.7588 80.0764 80.0158 83.2354 80.0158 83.2354 81.1918 78.7534 81.1918"></polygon>
                <path d="M91.8745,78.4619 C91.8745,78.9099 91.7985,79.3149 91.6435,79.6749 C91.4905,80.0349 91.2805,80.3409 91.0145,80.5929 C90.7485,80.8449 90.4335,81.0389 90.0685,81.1759 C89.7065,81.3129 89.3105,81.3799 88.8835,81.3799 C88.4565,81.3799 88.0615,81.3129 87.6975,81.1759 C87.3335,81.0389 87.0165,80.8449 86.7465,80.5929 C86.4775,80.3409 86.2675,80.0349 86.1175,79.6749 C85.9665,79.3149 85.8925,78.9099 85.8925,78.4619 L85.8925,73.7589 L87.2135,73.7589 L87.2135,78.4089 C87.2135,78.6269 87.2425,78.8419 87.2985,79.0549 C87.3535,79.2689 87.4465,79.4589 87.5765,79.6269 C87.7065,79.7949 87.8765,79.9319 88.0905,80.0369 C88.3035,80.1419 88.5685,80.1929 88.8835,80.1929 C89.1975,80.1929 89.4625,80.1419 89.6765,80.0369 C89.8895,79.9319 90.0605,79.7949 90.1905,79.6269 C90.3195,79.4589 90.4125,79.2689 90.4685,79.0549 C90.5245,78.8419 90.5525,78.6269 90.5525,78.4089 L90.5525,73.7589 L91.8745,73.7589 L91.8745,78.4619 Z" id="Fill-12" fill="#DE4A2E"></path>
                <polygon id="Fill-13" fill="#DE4A2E" points="97.083 77.2236 94.772 73.7586 96.368 73.7586 97.901 76.2996 99.413 73.7586 100.935 73.7586 98.667 77.2546 101.333 81.1916 99.665 81.1916 97.849 78.2736 96.105 81.1916 94.51 81.1916"></polygon>
                <path d="M109.9512,78.4619 C109.9512,78.9099 109.8742,79.3149 109.7202,79.6749 C109.5672,80.0349 109.3572,80.3409 109.0912,80.5929 C108.8252,80.8449 108.5102,81.0389 108.1452,81.1759 C107.7822,81.3129 107.3872,81.3799 106.9602,81.3799 C106.5332,81.3799 106.1372,81.3129 105.7742,81.1759 C105.4092,81.0389 105.0942,80.8449 104.8232,80.5929 C104.5542,80.3409 104.3442,80.0349 104.1942,79.6749 C104.0432,79.3149 103.9692,78.9099 103.9692,78.4619 L103.9692,73.7589 L105.2902,73.7589 L105.2902,78.4089 C105.2902,78.6269 105.3192,78.8419 105.3742,79.0549 C105.4302,79.2689 105.5232,79.4589 105.6522,79.6269 C105.7832,79.7949 105.9532,79.9319 106.1672,80.0369 C106.3802,80.1419 106.6452,80.1929 106.9602,80.1929 C107.2742,80.1929 107.5392,80.1419 107.7522,80.0369 C107.9662,79.9319 108.1372,79.7949 108.2672,79.6269 C108.3962,79.4589 108.4892,79.2689 108.5452,79.0549 C108.6012,78.8419 108.6292,78.6269 108.6292,78.4089 L108.6292,73.7589 L109.9512,73.7589 L109.9512,78.4619 Z" id="Fill-14" fill="#DE4A2E"></path>
                <path d="M115.7676,76.9609 C115.9566,76.9609 116.1456,76.9469 116.3346,76.9189 C116.5246,76.8909 116.6936,76.8389 116.8436,76.7619 C116.9946,76.6849 117.1186,76.5739 117.2166,76.4309 C117.3146,76.2869 117.3636,76.1039 117.3636,75.8799 C117.3636,75.6769 117.3176,75.5109 117.2266,75.3809 C117.1356,75.2519 117.0206,75.1489 116.8806,75.0709 C116.7406,74.9949 116.5806,74.9419 116.4026,74.9139 C116.2246,74.8859 116.0516,74.8719 115.8826,74.8719 L114.6866,74.8719 L114.6866,76.9609 L115.7676,76.9609 Z M113.3636,73.7589 L115.9456,73.7589 C116.2966,73.7589 116.6356,73.7959 116.9636,73.8689 C117.2926,73.9429 117.5856,74.0639 117.8406,74.2319 C118.0966,74.3989 118.3016,74.6199 118.4556,74.8929 C118.6086,75.1659 118.6866,75.4979 118.6866,75.8909 C118.6866,76.4299 118.5346,76.8679 118.2286,77.2069 C117.9246,77.5469 117.5106,77.7759 116.9856,77.8959 L118.9696,81.1909 L117.3736,81.1909 L115.6516,78.0419 L114.6866,78.0419 L114.6866,81.1909 L113.3636,81.1909 L113.3636,73.7589 Z" id="Fill-15" fill="#DE4A2E"></path>
                <polygon id="Fill-16" fill="#DE4A2E" points="123.5986 77.9688 120.8066 73.7598 122.4226 73.7598 124.2916 76.8868 126.1806 73.7598 127.7136 73.7598 124.9206 77.9688 124.9206 81.1918 123.5986 81.1918"></polygon>
                <path d="M139.9961,75.502 C139.8001,75.236 139.5451,75.042 139.2291,74.919 C138.9141,74.797 138.6051,74.735 138.3061,74.735 C137.9211,74.735 137.5701,74.806 137.2561,74.945 C136.9411,75.085 136.6701,75.278 136.4421,75.523 C136.2151,75.768 136.0401,76.055 135.9171,76.384 C135.7941,76.713 135.7331,77.069 135.7331,77.454 C135.7331,77.86 135.7931,78.231 135.9131,78.567 C136.0311,78.903 136.2001,79.191 136.4221,79.434 C136.6421,79.675 136.9051,79.861 137.2141,79.995 C137.5211,80.128 137.8681,80.193 138.2541,80.193 C138.6511,80.193 139.0061,80.116 139.3131,79.958 C139.6211,79.801 139.8701,79.593 140.0591,79.333 L141.1181,80.078 C140.7901,80.491 140.3881,80.812 139.9111,81.039 C139.4351,81.267 138.8801,81.38 138.2421,81.38 C137.6611,81.38 137.1281,81.284 136.6421,81.092 C136.1551,80.899 135.7371,80.63 135.3871,80.283 C135.0371,79.937 134.7651,79.524 134.5681,79.045 C134.3731,78.565 134.2741,78.035 134.2741,77.454 C134.2741,76.859 134.3771,76.322 134.5841,75.843 C134.7911,75.363 135.0741,74.956 135.4341,74.62 C135.7941,74.284 136.2201,74.025 136.7101,73.843 C137.1991,73.661 137.7311,73.57 138.3061,73.57 C138.5431,73.57 138.7921,73.593 139.0521,73.639 C139.3091,73.685 139.5581,73.754 139.7961,73.848 C140.0341,73.943 140.2581,74.061 140.4691,74.2 C140.6781,74.341 140.8561,74.509 141.0041,74.704 L139.9961,75.502 Z" id="Fill-17" fill="#DE4A2E"></path>
                <path d="M144.8555,77.4541 C144.8555,77.8531 144.9175,78.2191 145.0405,78.5511 C145.1625,78.8841 145.3365,79.1731 145.5645,79.4181 C145.7915,79.6621 146.0615,79.8531 146.3725,79.9891 C146.6845,80.1261 147.0295,80.1931 147.4065,80.1931 C147.7855,80.1931 148.1305,80.1261 148.4465,79.9891 C148.7615,79.8531 149.0325,79.6621 149.2595,79.4181 C149.4875,79.1731 149.6625,78.8841 149.7855,78.5511 C149.9075,78.2191 149.9685,77.8531 149.9685,77.4541 C149.9685,77.0691 149.9075,76.7131 149.7855,76.3831 C149.6625,76.0551 149.4895,75.7671 149.2645,75.5221 C149.0415,75.2781 148.7715,75.0851 148.4565,74.9451 C148.1425,74.8051 147.7925,74.7351 147.4065,74.7351 C147.0215,74.7351 146.6735,74.8051 146.3625,74.9451 C146.0505,75.0851 145.7835,75.2781 145.5595,75.5221 C145.3345,75.7671 145.1625,76.0551 145.0405,76.3831 C144.9175,76.7131 144.8555,77.0691 144.8555,77.4541 M143.4185,77.4541 C143.4185,76.8591 143.5175,76.3221 143.7165,75.8431 C143.9175,75.3641 144.1925,74.9561 144.5455,74.6201 C144.8995,74.2831 145.3195,74.0251 145.8055,73.8431 C146.2925,73.6611 146.8225,73.5701 147.3965,73.5701 C147.9765,73.5701 148.5125,73.6611 149.0015,73.8431 C149.4925,74.0251 149.9165,74.2831 150.2735,74.6201 C150.6295,74.9561 150.9075,75.3641 151.1075,75.8431 C151.3065,76.3221 151.4075,76.8591 151.4075,77.4541 C151.4075,78.0351 151.3065,78.5651 151.1075,79.0451 C150.9075,79.5241 150.6295,79.9361 150.2735,80.2831 C149.9165,80.6301 149.4925,80.8991 149.0015,81.0921 C148.5125,81.2841 147.9765,81.3801 147.3965,81.3801 C146.8225,81.3801 146.2925,81.2841 145.8055,81.0921 C145.3195,80.8991 144.8995,80.6301 144.5455,80.2831 C144.1925,79.9361 143.9175,79.5241 143.7165,79.0451 C143.5175,78.5651 143.4185,78.0351 143.4185,77.4541" id="Fill-18" fill="#DE4A2E"></path>
                <polygon id="Fill-19" fill="#DE4A2E" points="154.5244 73.7588 156.5924 73.7588 158.5244 79.0388 158.5554 79.0388 160.4664 73.7588 162.5454 73.7588 162.5454 81.1918 161.2324 81.1918 161.2324 75.2188 161.2114 75.2188 158.9544 81.1918 158.0304 81.1918 155.8054 75.2188 155.7844 75.2188 155.7844 81.1918 154.5244 81.1918"></polygon>
                <polygon id="Fill-20" fill="#DE4A2E" points="166.0195 73.7588 168.0875 73.7588 170.0195 79.0388 170.0505 79.0388 171.9615 73.7588 174.0405 73.7588 174.0405 81.1918 172.7285 81.1918 172.7285 75.2188 172.7065 75.2188 170.4495 81.1918 169.5255 81.1918 167.3005 75.2188 167.2795 75.2188 167.2795 81.1918 166.0195 81.1918"></polygon>
                <path d="M183.4346,78.4619 C183.4346,78.9099 183.3586,79.3149 183.2046,79.6749 C183.0506,80.0349 182.8406,80.3409 182.5756,80.5929 C182.3086,80.8449 181.9946,81.0389 181.6296,81.1759 C181.2666,81.3129 180.8716,81.3799 180.4446,81.3799 C180.0166,81.3799 179.6216,81.3129 179.2576,81.1759 C178.8936,81.0389 178.5776,80.8449 178.3066,80.5929 C178.0386,80.3409 177.8276,80.0349 177.6776,79.6749 C177.5266,79.3149 177.4526,78.9099 177.4526,78.4619 L177.4526,73.7589 L178.7746,73.7589 L178.7746,78.4089 C178.7746,78.6269 178.8026,78.8419 178.8586,79.0549 C178.9136,79.2689 179.0066,79.4589 179.1366,79.6269 C179.2666,79.7949 179.4376,79.9319 179.6516,80.0369 C179.8646,80.1419 180.1286,80.1929 180.4446,80.1929 C180.7586,80.1929 181.0226,80.1419 181.2366,80.0369 C181.4506,79.9319 181.6216,79.7949 181.7506,79.6269 C181.8796,79.4589 181.9736,79.2689 182.0286,79.0549 C182.0846,78.8419 182.1136,78.6269 182.1136,78.4089 L182.1136,73.7589 L183.4346,73.7589 L183.4346,78.4619 Z" id="Fill-21" fill="#DE4A2E"></path>
                <polygon id="Fill-22" fill="#DE4A2E" points="186.8467 73.7588 188.5997 73.7588 192.0527 79.3228 192.0747 79.3228 192.0747 73.7588 193.3967 73.7588 193.3967 81.1918 191.7167 81.1918 188.1907 75.4488 188.1687 75.4488 188.1687 81.1918 186.8467 81.1918"></polygon>
                <polygon id="Fill-23" fill="#DE4A2E" points="196.871 81.192 198.194 81.192 198.194 73.759 196.871 73.759"></polygon>
                <polygon id="Fill-24" fill="#DE4A2E" points="203.1709 74.9141 200.8919 74.9141 200.8919 73.7591 206.7719 73.7591 206.7719 74.9141 204.4939 74.9141 204.4939 81.1911 203.1709 81.1911"></polygon>
                <polygon id="Fill-25" fill="#DE4A2E" points="209.469 81.192 210.792 81.192 210.792 73.759 209.469 73.759"></polygon>
                <polygon id="Fill-26" fill="#DE4A2E" points="214.2666 73.7588 219.1896 73.7588 219.1896 74.9138 215.5896 74.9138 215.5896 76.8038 219.0006 76.8038 219.0006 77.9158 215.5896 77.9158 215.5896 80.0158 219.3786 80.0158 219.3786 81.1918 214.2666 81.1918"></polygon>
                <path d="M226.2969,75.3125 C226.1559,75.1305 225.9599,74.9785 225.7029,74.8565 C225.4479,74.7335 225.1919,74.6715 224.9319,74.6715 C224.7769,74.6715 224.6249,74.6915 224.4709,74.7305 C224.3159,74.7685 224.1759,74.8285 224.0499,74.9085 C223.9239,74.9895 223.8209,75.0945 223.7399,75.2235 C223.6599,75.3535 223.6199,75.5085 223.6199,75.6905 C223.6199,75.8585 223.6549,76.0015 223.7249,76.1215 C223.7949,76.2405 223.8919,76.3415 224.0139,76.4255 C224.1359,76.5095 224.2839,76.5835 224.4589,76.6465 C224.6339,76.7085 224.8269,76.7715 225.0369,76.8345 C225.2749,76.9125 225.5229,76.9995 225.7759,77.0975 C226.0329,77.1955 226.2669,77.3255 226.4809,77.4855 C226.6929,77.6475 226.8689,77.8505 227.0059,78.0945 C227.1419,78.3395 227.2109,78.6445 227.2109,79.0075 C227.2109,79.4075 227.1379,79.7545 226.9889,80.0515 C226.8429,80.3495 226.6469,80.5965 226.4009,80.7925 C226.1559,80.9885 225.8699,81.1355 225.5399,81.2335 C225.2119,81.3325 224.8649,81.3805 224.5019,81.3805 C224.0199,81.3805 223.5459,81.2915 223.0849,81.1125 C222.6229,80.9335 222.2439,80.6695 221.9499,80.3205 L222.8959,79.4385 C223.0769,79.6905 223.3209,79.8895 223.6249,80.0375 C223.9299,80.1835 224.2289,80.2575 224.5229,80.2575 C224.6769,80.2575 224.8339,80.2375 224.9949,80.1995 C225.1559,80.1615 225.3009,80.0955 225.4309,80.0045 C225.5609,79.9155 225.6649,79.7995 225.7459,79.6645 C225.8259,79.5275 225.8659,79.3575 225.8659,79.1555 C225.8659,78.9585 225.8199,78.7965 225.7299,78.6665 C225.6389,78.5375 225.5169,78.4255 225.3619,78.3315 C225.2089,78.2365 225.0259,78.1545 224.8179,78.0835 C224.6079,78.0145 224.3859,77.9405 224.1549,77.8635 C223.9309,77.7935 223.7069,77.7095 223.4829,77.6125 C223.2599,77.5135 223.0589,77.3835 222.8799,77.2225 C222.7009,77.0625 222.5559,76.8655 222.4439,76.6295 C222.3319,76.3955 222.2759,76.1035 222.2759,75.7535 C222.2759,75.3755 222.3549,75.0505 222.5129,74.7775 C222.6699,74.5045 222.8759,74.2795 223.1319,74.1005 C223.3869,73.9215 223.6779,73.7895 224.0029,73.7015 C224.3289,73.6145 224.6589,73.5705 224.9949,73.5705 C225.3729,73.5705 225.7559,73.6365 226.1449,73.7695 C226.5329,73.9025 226.8699,74.1025 227.1579,74.3685 L226.2969,75.3125 Z" id="Fill-27" fill="#DE4A2E"></path>
                <path d="M26.9209,0.0596 L0.2479,61.7746 L7.1349,61.7746 L13.8469,45.5616 L45.7489,45.5616 L63.4589,85.9406 L70.4319,85.9406 L33.0239,0.0596 L26.9209,0.0596 Z M29.7979,7.0326 L43.3959,39.8086 L16.1989,39.8086 L29.7979,7.0326 Z" id="Fill-1" fill="#246172"></path>
            </g>
        </g>
    </g>
</svg>