<?xml version="1.0" encoding="UTF-8"?>
<svg viewBox="0 0 311 48" version="1.1" xmlns="http://www.w3.org/2000/svg" xmlns:xlink="http://www.w3.org/1999/xlink">
    <!-- Generator: Sketch 52.3 (67297) - http://www.bohemiancoding.com/sketch -->
    <title>A4 Copy 3</title>
    <desc>Created with Sketch.</desc>
    <g id="A4-Copy-3" stroke="none" stroke-width="1" fill="none" fill-rule="evenodd">
        <g id="Group-335" transform="translate(112.000000, 16.000000)"></g>
        <polygon id="Fill-347" fill="#008FC6" points="281 16 284.672087 16 284.672087 28.9785319 291 28.9785319 291 32 281 32"></polygon>
        <path d="M276,32 L272.378212,32 L271.489183,28.755367 L266.384373,28.755367 L265.494364,32 L262,32 L267.019534,16 L271.086326,16 L276,32 Z M267.125394,26.0660753 L270.747182,26.0660753 L268.94756,19.4441445 L267.125394,26.0660753 Z" id="Fill-346" fill="#008FC6"></path>
        <polygon id="Fill-345" fill="#008FC6" points="254 32 258 32 258 16 254 16"></polygon>
        <polygon id="Fill-344" fill="#008FC6" points="242.205503 19.0224965 238 19.0224965 238 16 250 16 250 19.0224965 245.794497 19.0224965 245.794497 32 242.205503 32"></polygon>
        <polygon id="Fill-343" fill="#008FC6" points="222 16 225.562304 16 230.875392 25.3112225 230.875392 16 234 16 234 32 231.166546 32 225.125572 21.40018 225.125572 32 222 32"></polygon>
        <polygon id="Fill-342" fill="#008FC6" points="207 16 216.936807 16 216.936807 19.0224965 210.424072 19.0224965 210.424072 22.489266 216.075442 22.489266 216.075442 25.3338475 210.424072 25.3338475 210.424072 29.0896002 217 29.0896002 217 32 207 32"></polygon>
        <path d="M195.438223,16 C199.967068,16 203,18.7561383 203,23.977375 C203,29.2891117 199.858785,32 195.438223,32 L190,32 L190,16 L195.438223,16 Z M195.438223,29.0896002 C197.692118,29.0896002 199.467762,27.688906 199.467762,24.0668466 C199.467762,20.4221622 197.692118,19.0224965 195.438223,19.0224965 L193.532238,19.0224965 L193.532238,29.0896002 L195.438223,29.0896002 Z" id="Fill-340" fill="#008FC6"></path>
        <polygon id="Fill-339" fill="#008FC6" points="181 32 185 32 185 16 181 16"></polygon>
        <path d="M167.823647,27.9136655 C169.187375,28.6451452 170.573146,29.2044536 171.980962,29.2044536 C173.56012,29.2044536 174.46994,28.4938732 174.46994,27.4409405 C174.46994,24.4732226 167.411824,26.0854637 167.411824,20.8596131 C167.411824,17.8709958 169.706413,16 173.063126,16 C174.752505,16 176.310621,16.472725 177.54509,17.2042048 L176.722445,20.2147167 C175.617234,19.4832369 174.318637,18.9249238 173.084168,18.9249238 C171.742485,18.9249238 170.940882,19.5907197 170.940882,20.5371649 C170.940882,23.2899173 178,21.6557816 178,26.9891149 C178,30.0852149 175.596192,32 172.024048,32 C170.334669,32 168.472946,31.570069 167,30.7739006 L167.823647,27.9136655 Z" id="Fill-337" fill="#008FC6"></path>
        <polygon id="Fill-336" fill="#008FC6" points="153 16 162.936801 16 162.936801 19.0224965 156.424404 19.0224965 156.424404 22.489266 162.076325 22.489266 162.076325 25.3338475 156.424404 25.3338475 156.424404 29.0896002 163 29.0896002 163 32 153 32"></polygon>
        <path d="M141.671747,25.6444273 L139.586851,25.6444273 L139.586851,32 L136,32 L136,16 L142.59076,16 C146.199394,16 148.305035,17.6218023 148.305035,20.7995886 C148.305035,23.0446073 147.252214,24.4884947 145.302162,25.2001543 L149,32 L144.988909,32 L141.671747,25.6444273 Z M142.209048,23.0662039 C143.912232,23.0662039 144.720259,22.4440159 144.720259,21.0217252 C144.720259,19.5778378 143.912232,18.9556498 142.209048,18.9556498 L139.586851,18.9556498 L139.586851,23.0662039 L142.209048,23.0662039 Z" id="Fill-333" fill="#008FC6"></path>
        <path d="M120.60528,29.1178702 L120.60528,25.9351869 L117.969307,25.9351869 L117.969307,23.3337065 L124,23.3337065 L124,30.7092119 C122.481473,31.4834857 120.671438,32 118.617446,32 C113.948155,32 111,29.3119363 111,24.1935685 C111,18.8602351 114.194179,16 118.974078,16 C121.051845,16 122.683047,16.5374137 124,17.3972756 L123.15132,20.3868881 C121.922233,19.5489208 120.671438,18.9249238 119.018527,18.9249238 C116.450779,18.9249238 114.640744,20.4087827 114.640744,24.1716738 C114.640744,27.8927661 116.405296,29.2900417 119.041269,29.2900417 C119.599475,29.2900417 120.113232,29.225353 120.60528,29.1178702" id="Fill-331" fill="#008FC6"></path>
        <path d="M101.670709,25.6444273 L99.5858135,25.6444273 L99.5858135,32 L96,32 L96,16 L102.589723,16 C106.198356,16 108.305035,17.6218023 108.305035,20.7995886 C108.305035,23.0446073 107.252214,24.4884947 105.302162,25.2001543 L109,32 L104.987872,32 L101.670709,25.6444273 Z M102.209048,23.0662039 C103.912232,23.0662039 104.719221,22.4440159 104.719221,21.0217252 C104.719221,19.5778378 103.912232,18.9556498 102.209048,18.9556498 L99.5858135,18.9556498 L99.5858135,23.0662039 L102.209048,23.0662039 Z" id="Fill-329" fill="#008FC6"></path>
        <path d="M81.8236473,27.9136655 C83.1873747,28.6451452 84.5731463,29.2044536 85.9809619,29.2044536 C87.5601202,29.2044536 88.4709419,28.4938732 88.4709419,27.4409405 C88.4709419,24.4732226 81.4118236,26.0854637 81.4118236,20.8596131 C81.4118236,17.8709958 83.7074148,16 87.0631263,16 C88.752505,16 90.3116232,16.472725 91.5450902,17.2042048 L90.7224449,20.2147167 C89.6172345,19.4832369 88.3186373,18.9249238 87.0851703,18.9249238 C85.742485,18.9249238 84.9408818,19.5907197 84.9408818,20.5371649 C84.9408818,23.2899173 92,21.6557816 92,26.9891149 C92,30.0852149 89.5961924,32 86.0240481,32 C84.3346693,32 82.4729459,31.570069 81,30.7739006 L81.8236473,27.9136655 Z" id="Fill-327" fill="#008FC6"></path>
        <polygon id="Fill-326" fill="#008FC6" points="65 48 53 48 53 12 41 24 41 48 29 48 29 36 17 48 17 0 65 0"></polygon>
    </g>
</svg>