<?xml version="1.0" encoding="UTF-8"?>
<svg viewBox="0 0 244 50" version="1.1" xmlns="http://www.w3.org/2000/svg" xmlns:xlink="http://www.w3.org/1999/xlink">
    <!-- Generator: Sketch 52.5 (67469) - http://www.bohemiancoding.com/sketch -->
    <title>NRED-Logo-Reverse</title>
    <desc>Created with Sketch.</desc>
    <defs>
        <polygon id="path-1" points="0.06 0.433 38.286 0.433 38.286 30.173 0.06 30.173"></polygon>
        <polygon id="path-3" points="0.783 0.768 91.388 0.768 91.388 49 0.783 49"></polygon>
    </defs>
    <g id="NRED-Logo-Reverse" stroke="none" stroke-width="1" fill="none" fill-rule="evenodd">
        <polyline id="Fill-1" fill="#E4E4E3" points="5.469 28.763 12.306 50 17.881 47.362 12.8 29.939 5.469 28.763"></polyline>
        <polyline id="Fill-2" fill="#FFFFFE" points="12.8 29.938 17.882 47.362 44.098 34.959 12.8 29.938"></polyline>
        <g id="Group-6">
            <mask id="mask-2" fill="white">
                <use xlink:href="#path-1"></use>
            </mask>
            <g id="Clip-4"></g>
            <polyline id="Fill-3" fill="#D8232A" mask="url(#mask-2)" points="33.852 7.482 8.571 24.336 38.286 30.173 33.852 7.482"></polyline>
            <polyline id="Fill-5" fill="#972528" mask="url(#mask-2)" points="32.475 0.433 0 22.652 8.571 24.336 33.852 7.482 32.475 0.433"></polyline>
        </g>
        <polyline id="Fill-7" fill="#FFFFFE" points="49.57 1.769 54.668 1.769 85.054 40.423 85.054 1.769 90.36 1.769 90.36 49.999 86.018 49.999 54.876 10.45 54.876 49.999 49.57 49.999 49.57 1.769"></polyline>
        <path d="M124.327,25.195 C126.945,25.195 128.954,24.575 130.355,23.335 C131.757,22.095 132.458,20.441 132.458,18.373 L132.458,18.236 C132.458,15.94 131.723,14.217 130.253,13.069 C128.781,11.921 126.739,11.346 124.12,11.346 L113.578,11.346 L113.578,25.195 L124.327,25.195 Z M102.968,1.769 L125.016,1.769 C131.124,1.769 135.809,3.4 139.072,6.661 C141.828,9.417 143.206,13.092 143.206,17.685 L143.206,17.823 C143.206,21.727 142.252,24.909 140.347,27.366 C138.44,29.824 135.947,31.626 132.871,32.774 L144.652,49.999 L132.251,49.999 L121.916,34.566 L113.578,34.566 L113.578,49.999 L102.968,49.999 L102.968,1.769 Z" id="Fill-8" fill="#D8232A"></path>
        <g id="Group-12" transform="translate(152.000000, 1.000000)">
            <mask id="mask-4" fill="white">
                <use xlink:href="#path-3"></use>
            </mask>
            <g id="Clip-10"></g>
            <polyline id="Fill-9" fill="#D8232A" mask="url(#mask-4)" points="0.783 0.769 37.094 0.769 37.094 10.208 11.256 10.208 11.256 19.992 33.993 19.992 33.993 29.432 11.256 29.432 11.256 39.56 37.438 39.56 37.438 48.999 0.783 48.999 0.783 0.769"></polyline>
            <path d="M65.757,39.422 C67.915,39.422 69.891,39.078 71.681,38.389 C73.473,37.7 75.001,36.712 76.264,35.427 C77.526,34.141 78.514,32.624 79.226,30.879 C79.938,29.134 80.295,27.182 80.295,25.022 L80.295,24.885 C80.295,22.772 79.938,20.819 79.226,19.027 C78.514,17.236 77.526,15.698 76.264,14.411 C75.001,13.126 73.473,12.126 71.681,11.414 C69.891,10.702 67.915,10.346 65.757,10.346 L57.557,10.346 L57.557,39.422 L65.757,39.422 Z M46.946,0.768 L65.757,0.768 C69.522,0.768 72.979,1.378 76.126,2.594 C79.272,3.812 81.983,5.5 84.257,7.658 C86.53,9.818 88.288,12.356 89.527,15.273 C90.767,18.189 91.389,21.348 91.389,24.747 L91.389,24.885 C91.389,28.284 90.767,31.454 89.527,34.393 C88.288,37.333 86.53,39.882 84.257,42.04 C81.983,44.2 79.272,45.899 76.126,47.14 C72.979,48.379 69.522,49 65.757,49 L46.946,49 L46.946,0.768 Z" id="Fill-11" fill="#D8232A" mask="url(#mask-4)"></path>
        </g>
    </g>
</svg>