<?xml version="1.0" encoding="UTF-8"?>
<svg viewBox="0 0 107 30" version="1.1" xmlns="http://www.w3.org/2000/svg" xmlns:xlink="http://www.w3.org/1999/xlink">
    <!-- Generator: Sketch 61 (89581) - https://sketch.com -->
    <title>Group 3</title>
    <desc>Created with Sketch.</desc>
    <g id="Page-1" stroke="none" stroke-width="1" fill="none" fill-rule="evenodd">
        <g id="Rockstar-logo" transform="translate(-181.000000, -104.000000)">
            <g id="Group-179" transform="translate(26.000000, 104.000000)">
                <g id="Group-3" transform="translate(155.477000, 0.927000)">
                    <path d="M45.8199,18.7434 C43.2909,18.7434 41.3229,16.6354 41.3229,13.3614 C41.3229,10.2844 43.0799,8.7394 45.4259,8.7394 C47.6469,8.7394 49.6979,10.5514 49.6979,13.9234 C49.6979,18.0124 47.0849,18.7434 45.8199,18.7434 M36.1549,11.6544 C35.6939,11.9754 35.1319,12.0354 34.6509,12.0354 C33.7669,12.0354 32.8439,11.8954 32.5429,11.7154 C32.4429,11.6544 32.4029,11.5744 32.4029,11.4744 L32.4029,4.9114 C32.4029,4.7914 32.4629,4.7104 32.5629,4.6704 C32.7639,4.6104 33.3059,4.5504 33.9079,4.5504 C36.0549,4.5504 37.3799,6.0554 37.3799,8.5634 C37.3799,10.0894 36.8579,11.1734 36.1549,11.6544 M60.2089,16.5374 C60.1249,16.5374 60.0959,16.5934 60.0679,16.7474 C60.0259,17.0014 59.8429,17.6194 59.5489,17.9284 C58.9859,18.5044 58.1569,18.6314 57.1029,18.6314 C54.0959,18.6314 52.0309,16.1724 52.0309,13.4884 C52.0309,12.0554 52.2699,10.8044 53.2959,9.8204 C53.7869,9.3434 54.6589,8.7954 56.5269,8.7954 C57.7629,8.7954 58.8449,9.1744 59.3379,9.5964 C59.7029,9.9054 59.9269,10.4814 59.9269,11.0294 C59.9269,11.2254 59.9419,11.3244 60.0399,11.3244 C60.1249,11.3244 60.1519,11.2404 60.1669,11.0294 C60.1799,10.8184 60.1799,10.0454 60.2089,9.5814 C60.2369,9.0764 60.2789,8.9074 60.2789,8.7954 C60.2789,8.7104 60.2509,8.6544 60.1519,8.6404 C59.6329,8.5704 59.1969,8.5284 58.6629,8.4304 C57.9739,8.3034 57.1879,8.2614 56.6259,8.2614 C54.4619,8.2614 53.1829,8.9214 52.3399,9.7644 C51.5509,10.5534 51.1319,11.4984 50.9299,12.3254 C50.4199,9.7744 48.2769,8.2614 45.5249,8.2614 C41.6469,8.2614 39.9879,11.4784 39.9879,13.7554 C39.9879,15.5174 40.7699,17.5024 42.5449,18.5454 C42.0749,18.3604 41.4869,18.0064 40.8119,17.2944 C39.6479,16.0504 38.2829,14.2644 36.6369,12.1564 C38.4439,10.4904 39.0659,9.0054 39.0659,7.5204 C39.0659,6.1354 38.1829,5.1524 37.6809,4.7914 C36.6169,4.0284 35.2729,3.9084 34.0079,3.9084 C33.3859,3.9084 31.8609,3.9684 31.6399,3.9684 C31.5399,3.9684 30.2749,3.9084 29.3719,3.9084 C29.1519,3.9084 29.0509,3.9484 29.0509,4.0684 C29.0509,4.1494 29.1319,4.1884 29.2119,4.1884 C29.3919,4.1884 29.7329,4.2084 29.8939,4.2494 C30.5559,4.3894 30.7169,4.7104 30.7569,5.3934 C30.7969,6.0354 30.7969,6.5974 30.7969,9.7284 L30.7969,13.2604 C30.7969,15.1874 30.7969,21.1854 30.6969,22.0284 C30.6169,22.6104 30.5159,23.0524 30.1139,23.1324 C29.9339,23.1724 29.6939,23.2124 29.5129,23.2124 C29.3919,23.2124 29.3519,23.2724 29.3519,23.3334 C29.3519,23.4534 29.4529,23.4934 29.6739,23.4934 C30.2749,23.4934 31.5399,23.4334 31.5599,23.4334 C31.6599,23.4334 32.9239,23.4934 34.0279,23.4934 C34.2489,23.4934 34.3499,23.4334 34.3499,23.3334 C34.3499,23.2724 34.3089,23.2124 34.1889,23.2124 C34.0079,23.2124 33.5669,23.1724 33.2859,23.1324 C32.6829,23.0524 32.5629,22.6104 32.5029,22.0284 C32.4029,21.1854 32.4029,15.1874 32.4029,13.2604 L32.4029,12.7794 C32.4029,12.6784 32.4429,12.6184 32.5429,12.6184 L35.0109,12.6584 C35.1319,12.6584 35.1929,12.6984 35.2729,12.7794 C35.6739,13.3004 36.6169,14.6454 37.4599,15.7484 C38.6039,17.2544 39.3069,18.2374 40.1699,18.6994 C40.6909,18.9804 41.1929,19.0804 42.3169,19.0804 L43.7419,19.0804 C43.7849,19.0804 43.8149,19.0774 43.8519,19.0764 C44.3339,19.2014 44.8579,19.2774 45.4409,19.2774 C48.3149,19.2774 50.3429,17.4024 50.8919,14.9104 C51.0839,15.9004 51.5289,16.9194 52.4659,17.7594 C53.5759,18.7574 54.9959,19.2774 57.1029,19.2774 C58.0029,19.2774 59.0709,19.1794 59.6329,18.9544 C59.8849,18.8414 59.9139,18.8134 59.9979,18.5464 C60.1379,18.0694 60.3069,16.8464 60.3069,16.7474 C60.3069,16.6354 60.2789,16.5374 60.2089,16.5374" id="Fill-109" fill="#FFFFFE"></path>
                    <path d="M70.649,18.884 C70.508,18.884 70.368,18.87 70.242,18.842 C69.567,18.715 69.075,18.406 67.923,17.324 C67.262,16.706 64.705,14.107 63.82,13.137 C64.185,12.729 65.787,11.142 67.024,9.947 C67.867,9.132 68.133,8.964 68.485,8.823 C68.681,8.739 68.934,8.683 69.202,8.655 C69.328,8.641 69.356,8.613 69.356,8.556 C69.356,8.5 69.314,8.458 69.117,8.458 C68.892,8.458 68.063,8.5 67.628,8.5 C67.15,8.5 67.192,8.458 66.785,8.458 C66.659,8.458 66.574,8.486 66.574,8.542 C66.574,8.598 66.602,8.627 66.701,8.669 C66.813,8.711 66.883,8.823 66.883,8.935 C66.883,9.104 66.827,9.245 65.984,10.116 C65.127,11.001 63.215,13.01 62.78,13.432 L62.78,12.532 C62.78,10.341 62.78,9.947 62.808,9.498 C62.837,9.006 62.949,8.725 63.329,8.683 C63.468,8.669 63.483,8.669 63.637,8.655 C63.764,8.641 63.792,8.613 63.792,8.556 C63.792,8.486 63.721,8.458 63.567,8.458 C63.145,8.458 62.26,8.5 62.19,8.5 C62.12,8.5 61.178,8.458 60.714,8.458 C60.56,8.458 60.49,8.486 60.49,8.57 C60.49,8.627 60.532,8.655 60.644,8.655 C60.743,8.655 60.996,8.669 61.15,8.711 C61.46,8.781 61.6,9.02 61.628,9.498 C61.656,9.947 61.656,10.341 61.656,12.532 L61.656,15.006 C61.656,16.355 61.656,17.465 61.586,18.055 C61.53,18.462 61.446,18.785 61.165,18.842 C61.038,18.87 60.883,18.884 60.799,18.884 C60.672,18.884 60.644,18.94 60.644,18.982 C60.644,19.067 60.714,19.081 60.869,19.081 C61.291,19.081 62.12,19.038 62.19,19.038 C62.26,19.038 63.145,19.081 63.919,19.081 C64.073,19.081 64.129,19.052 64.129,18.982 C64.129,18.94 64.087,18.884 63.961,18.884 C63.876,18.884 63.595,18.856 63.398,18.827 C62.977,18.771 62.892,18.462 62.85,18.055 C62.78,17.465 62.78,16.355 62.78,15.006 L62.78,13.558 C64.016,15.034 66.545,17.745 67.389,18.406 C68.049,18.926 68.373,19.081 69.595,19.081 L70.634,19.081 C70.79,19.081 70.845,19.052 70.845,18.982 C70.845,18.912 70.761,18.884 70.649,18.884" id="Fill-110" fill="#FFFFFE"></path>
                    <path d="M73.0328,13.0525 L72.6388,12.7435 C71.2908,11.6895 70.9248,11.1835 70.9248,10.3835 C70.9248,9.3575 71.6828,8.7525 72.6528,8.7525 C73.9458,8.7525 74.3248,9.3435 74.4098,9.4975 C74.4938,9.6525 74.5778,10.0315 74.5928,10.1995 C74.6058,10.3125 74.6208,10.3835 74.7048,10.3835 C74.7748,10.3835 74.8038,10.2845 74.8038,10.0595 C74.8038,9.1045 74.8588,8.6405 74.8588,8.5705 C74.8588,8.4995 74.8308,8.4715 74.7188,8.4715 C74.6058,8.4715 74.4938,8.4575 74.2268,8.4015 C73.8758,8.3175 73.4688,8.2605 72.9198,8.2605 C71.1358,8.2605 70.0118,9.2865 70.0118,10.7905 C70.0118,11.7455 70.3478,12.6165 71.8378,13.8395 L72.4708,14.3595 C73.6788,15.3575 74.0868,15.9195 74.0868,16.8885 C74.0868,17.7875 73.4268,18.7575 72.0768,18.7575 C71.1358,18.7575 70.2088,18.3645 69.9978,17.3235 C69.9548,17.1275 69.9548,16.9305 69.9548,16.8045 C69.9548,16.6915 69.9408,16.6495 69.8568,16.6495 C69.7868,16.6495 69.7588,16.7195 69.7448,16.8745 C69.7298,17.0995 69.6748,17.6615 69.6748,18.3645 C69.6748,18.7435 69.6878,18.7995 69.8858,18.8985 C70.4618,19.1785 71.1078,19.2775 71.7678,19.2775 C72.5268,19.2775 73.2858,19.1085 73.8888,18.6875 C74.8588,17.9985 75.0838,16.9305 75.0838,16.3545 C75.0838,15.2305 74.6908,14.3595 73.0328,13.0525" id="Fill-111" fill="#FFFFFE"></path>
                    <path d="M98.1978,11.6545 C97.7368,11.9755 97.1748,12.0355 96.6928,12.0355 C95.8098,12.0355 94.8868,11.8955 94.5868,11.7155 C94.4848,11.6545 94.4458,11.5745 94.4458,11.4745 L94.4458,4.9115 C94.4458,4.7915 94.5058,4.7105 94.6058,4.6705 C94.8058,4.6105 95.3478,4.5505 95.9508,4.5505 C98.0978,4.5505 99.4228,6.0555 99.4228,8.5635 C99.4228,10.0895 98.9008,11.1735 98.1978,11.6545 M87.4718,14.4295 L84.7888,14.4295 C84.7468,14.4295 84.7188,14.4015 84.7468,14.3315 L85.9828,10.5375 C86.0528,10.3265 86.1238,10.3265 86.1938,10.5375 L87.5288,14.3315 C87.5428,14.3875 87.5428,14.4295 87.4718,14.4295 M106.0058,23.2745 C105.8848,23.2745 105.1418,22.9555 104.8288,22.7695 C104.3748,22.5015 103.2988,21.3535 102.9468,20.8985 C101.9048,19.5505 100.3258,14.2635 98.6798,12.1565 C100.4868,10.4905 101.1088,9.0055 101.1088,7.5205 C101.1088,6.1355 100.2248,5.1525 99.7238,4.7915 C98.6598,4.0285 97.3148,3.9075 96.0518,3.9075 C95.4278,3.9075 93.9038,3.9675 93.6828,3.9675 C93.5828,3.9675 92.3178,3.9075 91.4148,3.9075 C91.1938,3.9075 91.0938,3.9475 91.0938,4.0685 C91.0938,4.1495 91.1748,4.1885 91.2548,4.1885 C91.4348,4.1885 91.7758,4.2085 91.9368,4.2495 C92.5988,4.3895 92.7598,4.7105 92.8008,5.3935 C92.8398,6.0355 92.8398,6.5975 92.8398,9.7285 L92.8398,13.2605 C92.8398,15.1875 92.8398,16.7725 92.7398,17.6155 C92.6598,18.1975 92.5588,18.6385 92.1578,18.7185 C91.9768,18.7595 91.7358,18.7995 91.5548,18.7995 C91.4718,18.7995 91.4288,18.8285 91.4098,18.8655 C91.3158,18.8535 91.2128,18.8335 91.1118,18.7995 C90.8168,18.7155 90.4088,18.4905 89.9028,17.2395 C89.0468,15.1045 86.8408,9.3005 86.6298,8.7665 C86.4608,8.3315 86.4048,8.2605 86.3198,8.2605 C86.2358,8.2605 86.1798,8.3455 86.0108,8.8095 L82.8218,17.5345 C82.5688,18.2375 82.2878,18.7715 81.6408,18.8555 C81.5798,18.8635 81.5138,18.8705 81.4508,18.8765 C81.3038,18.8655 81.1178,18.8465 80.9818,18.8275 C80.5598,18.7715 80.4758,18.4625 80.4338,18.0545 C80.3638,17.4645 80.3638,16.3545 80.3638,15.0055 L80.3638,9.0625 C80.9538,9.0765 81.5438,9.0765 82.1348,9.0905 C83.4828,9.1185 83.8198,9.4415 83.8628,9.8625 C83.8628,9.9195 83.8768,9.9615 83.8768,10.0175 C83.8898,10.2145 83.9188,10.2565 83.9888,10.2565 C84.0458,10.2565 84.0878,10.1995 84.0878,10.0735 C84.0878,9.9195 84.1298,8.9495 84.1298,8.5285 C84.1298,8.4445 84.1298,8.3595 84.0588,8.3595 C84.0028,8.3595 83.8768,8.4015 83.6658,8.4295 C83.4408,8.4715 83.1178,8.4995 82.6678,8.4995 L77.3988,8.4995 C77.2298,8.4995 76.6968,8.4715 76.2888,8.4295 C75.9098,8.4015 75.7688,8.2605 75.6708,8.2605 C75.6148,8.2605 75.5578,8.4445 75.5298,8.5285 C75.5018,8.6405 75.2208,9.8485 75.2208,9.9895 C75.2208,10.0735 75.2488,10.1155 75.2918,10.1155 C75.3468,10.1155 75.3888,10.0885 75.4318,9.9755 C75.4738,9.8775 75.5158,9.7785 75.6708,9.5395 C75.8948,9.2025 76.2328,9.1045 77.1038,9.0905 C77.7928,9.0765 78.4948,9.0765 79.1828,9.0625 L79.1828,15.0055 C79.1828,16.3545 79.1828,17.4645 79.1128,18.0545 C79.0568,18.4625 78.9868,18.7715 78.7058,18.8275 C78.5798,18.8555 78.4108,18.8835 78.2838,18.8835 C78.1998,18.8835 78.1718,18.9255 78.1718,18.9675 C78.1718,19.0525 78.2418,19.0805 78.3968,19.0805 C78.8178,19.0805 79.7028,19.0385 79.7728,19.0385 C79.8398,19.0385 80.6208,19.0745 81.3548,19.0795 C81.3618,19.0795 81.3668,19.0805 81.3748,19.0805 C81.3928,19.0805 81.4138,19.0805 81.4328,19.0805 C81.4558,19.0805 81.4788,19.0805 81.5018,19.0805 C81.5068,19.0805 81.5108,19.0795 81.5148,19.0795 C82.1398,19.0745 82.8178,19.0385 82.9628,19.0385 C83.1168,19.0385 83.6778,19.0805 84.0158,19.0805 C84.1418,19.0805 84.2688,19.0525 84.2688,18.9675 C84.2688,18.9115 84.2268,18.8835 84.0868,18.8835 L83.9598,18.8835 C83.7198,18.8835 83.4538,18.7575 83.4538,18.4765 C83.4538,18.2235 83.5238,17.8865 83.6508,17.5345 L84.4938,15.0475 C84.5218,14.9775 84.5638,14.9355 84.6348,14.9355 L87.6548,14.9355 C87.7248,14.9355 87.7538,14.9635 87.7818,15.0195 L89.0888,18.4765 C89.1728,18.7015 89.0888,18.8275 89.0038,18.8555 C88.9478,18.8695 88.9058,18.8985 88.9058,18.9545 C88.9058,19.0385 89.0598,19.0385 89.3278,19.0525 C90.2968,19.0805 91.3228,19.0805 91.5328,19.0805 C91.5668,19.0805 91.5978,19.0785 91.6288,19.0755 C91.6568,19.0775 91.6818,19.0805 91.7168,19.0805 C92.3178,19.0805 93.5828,19.0205 93.6018,19.0205 C93.7028,19.0205 94.9678,19.0805 96.0708,19.0805 C96.2918,19.0805 96.3918,19.0205 96.3918,18.9205 C96.3918,18.8595 96.3518,18.7995 96.2318,18.7995 C96.0518,18.7995 95.6098,18.7595 95.3288,18.7185 C94.7258,18.6385 94.6058,18.1975 94.5458,17.6155 C94.4458,16.7725 94.4458,15.1875 94.4458,13.2605 L94.4458,12.7795 C94.4458,12.6775 94.4848,12.6185 94.5868,12.6185 L97.0538,12.6585 C97.1748,12.6585 97.2348,12.6985 97.3148,12.7795 C97.7168,13.3005 99.6038,18.7275 100.2068,19.9775 C101.0448,21.7155 101.5148,22.4735 102.3788,22.9355 C102.8998,23.2165 103.1558,23.5555 104.2798,23.5555 L105.7048,23.5555 C106.0658,23.5555 106.1858,23.5155 106.1858,23.3955 C106.1858,23.3345 106.1058,23.2745 106.0058,23.2745" id="Fill-112" fill="#FFFFFE"></path>
                    <path d="M41.6636,23.7918 C41.6396,23.7918 41.6306,23.8088 41.6226,23.8538 C41.6106,23.9268 41.5576,24.1058 41.4716,24.1968 C41.3086,24.3638 41.0666,24.3998 40.7606,24.3998 C39.8866,24.3998 39.2866,23.6858 39.2866,22.9058 C39.2866,22.4888 39.3556,22.1248 39.6536,21.8398 C39.7966,21.7008 40.0496,21.5418 40.5936,21.5418 C40.9526,21.5418 41.2676,21.6518 41.4106,21.7738 C41.5166,21.8638 41.5816,22.0318 41.5816,22.1908 C41.5816,22.2478 41.5856,22.2768 41.6146,22.2768 C41.6396,22.2768 41.6466,22.2518 41.6516,22.1908 C41.6556,22.1298 41.6556,21.9048 41.6636,21.7698 C41.6716,21.6228 41.6836,21.5738 41.6836,21.5418 C41.6836,21.5168 41.6756,21.4998 41.6466,21.4968 C41.4966,21.4758 41.3696,21.4638 41.2146,21.4358 C41.0146,21.3988 40.7856,21.3858 40.6216,21.3858 C39.9926,21.3858 39.6216,21.5778 39.3756,21.8228 C39.0126,22.1868 38.9186,22.6648 38.9186,22.9378 C38.9186,23.3268 39.0166,23.7918 39.4136,24.1468 C39.7356,24.4378 40.1476,24.5888 40.7606,24.5888 C41.0216,24.5888 41.3326,24.5598 41.4966,24.4948 C41.5696,24.4618 41.5776,24.4538 41.6016,24.3758 C41.6426,24.2368 41.6916,23.8818 41.6916,23.8538 C41.6916,23.8208 41.6836,23.7918 41.6636,23.7918" id="Fill-113" fill="#FFFFFE"></path>
                    <path d="M49.8985,23.1794 L49.1185,23.1794 C49.1065,23.1794 49.0975,23.1704 49.1065,23.1504 L49.4655,22.0474 C49.4855,21.9864 49.5065,21.9864 49.5265,22.0474 L49.9145,23.1504 C49.9195,23.1674 49.9195,23.1794 49.8985,23.1794 M51.1155,24.4734 C51.0835,24.4734 51.0175,24.4704 50.9565,24.4494 C50.8705,24.4254 50.7525,24.3594 50.6055,23.9964 C50.3565,23.3754 49.7145,21.6884 49.6535,21.5334 C49.6045,21.4064 49.5875,21.3864 49.5635,21.3864 C49.5395,21.3864 49.5225,21.4104 49.4735,21.5454 L48.5465,24.0814 C48.4725,24.2854 48.3915,24.4414 48.2035,24.4664 C48.1705,24.4704 48.1335,24.4734 48.1055,24.4734 C48.0685,24.4734 48.0475,24.4824 48.0475,24.4984 C48.0475,24.5224 48.0725,24.5314 48.1255,24.5314 C48.3175,24.5314 48.5425,24.5194 48.5875,24.5194 C48.6325,24.5194 48.7955,24.5314 48.8935,24.5314 C48.9305,24.5314 48.9665,24.5224 48.9665,24.4984 C48.9665,24.4824 48.9545,24.4734 48.9145,24.4734 L48.8775,24.4734 C48.8075,24.4734 48.7305,24.4374 48.7305,24.3554 C48.7305,24.2824 48.7505,24.1834 48.7875,24.0814 L49.0325,23.3594 C49.0405,23.3384 49.0525,23.3264 49.0735,23.3264 L49.9515,23.3264 C49.9715,23.3264 49.9805,23.3344 49.9885,23.3504 L50.3685,24.3554 C50.3925,24.4214 50.3685,24.4574 50.3435,24.4664 C50.3275,24.4704 50.3155,24.4774 50.3155,24.4944 C50.3155,24.5194 50.3595,24.5194 50.4375,24.5224 C50.7195,24.5314 51.0175,24.5314 51.0785,24.5314 C51.1235,24.5314 51.1605,24.5224 51.1605,24.4984 C51.1605,24.4774 51.1405,24.4734 51.1155,24.4734" id="Fill-114" fill="#FFFFFE"></path>
                    <path d="M58.5582,21.4436 C58.3712,21.4436 58.1332,21.4556 58.0432,21.4556 C58.0112,21.4556 57.7662,21.4436 57.5822,21.4436 C57.5372,21.4436 57.5162,21.4516 57.5162,21.4756 C57.5162,21.4926 57.5332,21.5006 57.5492,21.5006 C57.5862,21.5006 57.6562,21.5046 57.6882,21.5126 C57.8232,21.5416 57.8562,21.6066 57.8642,21.7456 C57.8722,21.8766 57.8722,21.9906 57.8722,22.6276 L57.8722,23.3466 C57.8722,23.7386 57.8722,24.0616 57.8522,24.2336 C57.8352,24.3516 57.8152,24.4416 57.7332,24.4576 C57.6972,24.4656 57.6472,24.4736 57.6112,24.4736 C57.5862,24.4736 57.5782,24.4866 57.5782,24.4986 C57.5782,24.5226 57.5982,24.5306 57.6432,24.5306 C57.7662,24.5306 58.0232,24.5196 58.0362,24.5196 C58.0552,24.5196 58.3132,24.5306 58.5372,24.5306 C58.5822,24.5306 58.6032,24.5196 58.6032,24.4986 C58.6032,24.4866 58.5952,24.4736 58.5702,24.4736 C58.5342,24.4736 58.4442,24.4656 58.3872,24.4576 C58.2642,24.4416 58.2402,24.3516 58.2272,24.2336 C58.2062,24.0616 58.2062,23.7386 58.2062,23.3466 L58.2062,21.6686 C58.2062,21.6276 58.2152,21.5986 58.2402,21.5906 C58.2762,21.5736 58.3462,21.5666 58.4152,21.5666 C58.5092,21.5666 58.7582,21.5496 58.9752,21.7696 C59.1912,21.9906 59.2042,22.2646 59.2042,22.3666 C59.2042,22.7956 58.8932,23.0656 58.4962,23.0656 C58.4122,23.0656 58.3872,23.0686 58.3872,23.1016 C58.3872,23.1216 58.4122,23.1306 58.4312,23.1306 C58.4522,23.1346 58.4962,23.1346 58.5172,23.1346 C59.0972,23.1346 59.5222,22.7426 59.5222,22.2116 C59.5222,21.9456 59.4082,21.7616 59.3182,21.6756 C59.2522,21.6146 59.0692,21.4436 58.5582,21.4436" id="Fill-115" fill="#FFFFFE"></path>
                    <path d="M67.2261,24.4739 C67.2021,24.4739 67.1161,24.4659 67.0591,24.4579 C66.9361,24.4419 66.9121,24.3509 66.8991,24.2329 C66.8781,24.0609 66.8781,23.7389 66.8781,23.3469 L66.8781,22.6279 C66.8781,21.9909 66.8781,21.8759 66.8871,21.7449 C66.8951,21.6019 66.9281,21.5329 67.0391,21.5129 C67.0871,21.5049 67.1121,21.4999 67.1401,21.4999 C67.1571,21.4999 67.1721,21.4929 67.1721,21.4759 C67.1721,21.4519 67.1531,21.4439 67.1081,21.4439 C66.9851,21.4439 66.7281,21.4549 66.7071,21.4549 C66.6871,21.4549 66.4291,21.4439 66.2941,21.4439 C66.2491,21.4439 66.2301,21.4519 66.2301,21.4759 C66.2301,21.4929 66.2461,21.4999 66.2621,21.4999 C66.2901,21.4999 66.3441,21.5049 66.3881,21.5169 C66.4781,21.5369 66.5191,21.6069 66.5281,21.7449 C66.5361,21.8759 66.5361,21.9909 66.5361,22.6279 L66.5361,23.3469 C66.5361,23.7389 66.5361,24.0609 66.5151,24.2329 C66.4991,24.3509 66.4751,24.4459 66.3931,24.4619 C66.3561,24.4699 66.3111,24.4739 66.2871,24.4739 C66.2491,24.4739 66.2421,24.4869 66.2421,24.4979 C66.2421,24.5229 66.2621,24.5309 66.3071,24.5309 C66.4291,24.5309 66.6871,24.5189 66.7071,24.5189 C66.7281,24.5189 66.9901,24.5309 67.2141,24.5309 C67.2591,24.5309 67.2751,24.5189 67.2751,24.4979 C67.2751,24.4869 67.2631,24.4739 67.2261,24.4739" id="Fill-116" fill="#FFFFFE"></path>
                    <path d="M76.4048,21.4148 C76.3878,21.4148 76.3518,21.4268 76.2908,21.4358 C76.2248,21.4478 76.1318,21.4558 76.0008,21.4558 L74.4688,21.4558 C74.4198,21.4558 74.2638,21.4478 74.1458,21.4358 C74.0358,21.4268 73.9948,21.3858 73.9668,21.3858 C73.9498,21.3858 73.9328,21.4388 73.9258,21.4638 C73.9178,21.4968 73.8358,21.8478 73.8358,21.8888 C73.8358,21.9138 73.8428,21.9248 73.8558,21.9248 C73.8728,21.9248 73.8838,21.9168 73.8968,21.8848 C73.9088,21.8558 73.9218,21.8278 73.9668,21.7578 C74.0318,21.6598 74.1298,21.6308 74.3828,21.6268 C74.5838,21.6228 74.7878,21.6228 74.9878,21.6198 L74.9878,23.3468 C74.9878,23.7388 74.9878,24.0608 74.9668,24.2328 C74.9508,24.3518 74.9298,24.4418 74.8478,24.4578 C74.8118,24.4658 74.7628,24.4738 74.7258,24.4738 C74.7018,24.4738 74.6928,24.4868 74.6928,24.4978 C74.6928,24.5228 74.7138,24.5308 74.7588,24.5308 C74.8818,24.5308 75.1378,24.5188 75.1588,24.5188 C75.1788,24.5188 75.4368,24.5308 75.6618,24.5308 C75.7068,24.5308 75.7258,24.5188 75.7258,24.4978 C75.7258,24.4868 75.7178,24.4738 75.6938,24.4738 C75.6568,24.4738 75.5678,24.4658 75.5098,24.4578 C75.3868,24.4418 75.3628,24.3518 75.3508,24.2328 C75.3308,24.0608 75.3308,23.7388 75.3308,23.3468 L75.3308,21.6198 C75.5028,21.6228 75.6738,21.6228 75.8448,21.6268 C76.2378,21.6358 76.3358,21.7288 76.3468,21.8518 C76.3468,21.8678 76.3518,21.8808 76.3518,21.8968 C76.3558,21.9538 76.3638,21.9658 76.3838,21.9658 C76.4008,21.9658 76.4128,21.9498 76.4128,21.9138 C76.4128,21.8678 76.4258,21.5858 76.4258,21.4638 C76.4258,21.4388 76.4258,21.4148 76.4048,21.4148" id="Fill-117" fill="#FFFFFE"></path>
                    <path d="M84.2388,23.1794 L83.4598,23.1794 C83.4468,23.1794 83.4388,23.1704 83.4468,23.1504 L83.8058,22.0474 C83.8268,21.9864 83.8468,21.9864 83.8678,22.0474 L84.2558,23.1504 C84.2598,23.1674 84.2598,23.1794 84.2388,23.1794 M85.4568,24.4734 C85.4238,24.4734 85.3578,24.4704 85.2978,24.4494 C85.2118,24.4254 85.0928,24.3594 84.9458,23.9964 C84.6968,23.3754 84.0548,21.6884 83.9938,21.5334 C83.9448,21.4064 83.9288,21.3864 83.9048,21.3864 C83.8808,21.3864 83.8628,21.4104 83.8138,21.5454 L82.8868,24.0814 C82.8138,24.2854 82.7318,24.4414 82.5448,24.4664 C82.5108,24.4704 82.4748,24.4734 82.4458,24.4734 C82.4088,24.4734 82.3888,24.4824 82.3888,24.4984 C82.3888,24.5224 82.4138,24.5314 82.4668,24.5314 C82.6588,24.5314 82.8838,24.5194 82.9278,24.5194 C82.9728,24.5194 83.1358,24.5314 83.2348,24.5314 C83.2708,24.5314 83.3078,24.5224 83.3078,24.4984 C83.3078,24.4824 83.2958,24.4734 83.2548,24.4734 L83.2178,24.4734 C83.1478,24.4734 83.0708,24.4374 83.0708,24.3554 C83.0708,24.2824 83.0918,24.1834 83.1288,24.0814 L83.3738,23.3594 C83.3818,23.3384 83.3928,23.3264 83.4148,23.3264 L84.2928,23.3264 C84.3128,23.3264 84.3208,23.3344 84.3288,23.3504 L84.7088,24.3554 C84.7338,24.4214 84.7088,24.4574 84.6838,24.4664 C84.6678,24.4704 84.6558,24.4774 84.6558,24.4944 C84.6558,24.5194 84.7008,24.5194 84.7778,24.5224 C85.0598,24.5314 85.3578,24.5314 85.4198,24.5314 C85.4648,24.5314 85.5018,24.5224 85.5018,24.4984 C85.5018,24.4774 85.4808,24.4734 85.4568,24.4734" id="Fill-118" fill="#FFFFFE"></path>
                    <path d="M93.773,23.9636 C93.749,23.9636 93.74,23.9836 93.736,24.0166 C93.724,24.0946 93.683,24.1966 93.63,24.2616 C93.532,24.3806 93.352,24.3836 93.136,24.3836 C92.817,24.3836 92.711,24.3556 92.646,24.2906 C92.572,24.2166 92.555,23.9556 92.555,23.3546 L92.555,22.6276 C92.555,21.9906 92.555,21.8766 92.564,21.7456 C92.572,21.6026 92.605,21.5326 92.723,21.5126 C92.772,21.5046 92.83,21.5006 92.858,21.5006 C92.875,21.5006 92.891,21.4926 92.891,21.4756 C92.891,21.4516 92.871,21.4436 92.825,21.4436 C92.703,21.4436 92.405,21.4556 92.384,21.4556 C92.364,21.4556 92.107,21.4436 91.922,21.4436 C91.877,21.4436 91.857,21.4516 91.857,21.4756 C91.857,21.4926 91.874,21.5006 91.89,21.5006 C91.926,21.5006 91.996,21.5046 92.029,21.5126 C92.164,21.5416 92.196,21.6066 92.205,21.7456 C92.212,21.8766 92.212,21.9906 92.212,22.6276 L92.212,23.3466 C92.212,23.7386 92.212,24.0616 92.192,24.2336 C92.176,24.3516 92.156,24.4416 92.074,24.4576 C92.037,24.4656 91.988,24.4736 91.952,24.4736 C91.926,24.4736 91.919,24.4866 91.919,24.4986 C91.919,24.5226 91.939,24.5306 91.984,24.5306 C92.135,24.5306 92.257,24.5196 92.384,24.5196 C92.78,24.5196 93.127,24.5436 93.479,24.5436 C93.695,24.5436 93.708,24.5266 93.736,24.4336 C93.769,24.3146 93.797,24.0696 93.797,24.0246 C93.797,23.9796 93.794,23.9636 93.773,23.9636" id="Fill-119" fill="#FFFFFE"></path>
                    <polygon id="Fill-120" fill="#FFFFFE" points="35.166 26.341 97.751 26.341 97.751 26.042 35.166 26.042"></polygon>
                    <polygon id="Fill-121" fill="#1E5494" points="0.329 28.313 27.948 28.313 27.948 0.33 0.329 0.33"></polygon>
                    <polygon id="Fill-122" fill="#FFFFFE" points="7.771 4.7698 7.707 4.5708 7.642 4.7698 7.432 4.7698 7.602 4.8938 7.537 5.0928 7.707 4.9688 7.876 5.0928 7.811 4.8938 7.981 4.7698"></polygon>
                    <polygon id="Fill-123" fill="#FFFFFE" points="9.0337 8.1907 8.9687 7.9917 8.9047 8.1907 8.6947 8.1907 8.8647 8.3137 8.7997 8.5127 8.9687 8.3897 9.1377 8.5127 9.0737 8.3137 9.2427 8.1907"></polygon>
                    <polygon id="Fill-124" fill="#FFFFFE" points="11.1729 6.7644 11.1079 6.5654 11.0439 6.7644 10.8339 6.7644 11.0039 6.8874 10.9389 7.0864 11.1079 6.9634 11.2779 7.0864 11.2129 6.8874 11.3819 6.7644"></polygon>
                    <polygon id="Fill-125" fill="#FFFFFE" points="12.2613 8.8489 12.1973 8.6499 12.1323 8.8489 11.9223 8.8489 12.0923 8.9719 12.0273 9.1709 12.1973 9.0479 12.3663 9.1709 12.3013 8.9719 12.4703 8.8489"></polygon>
                    <polygon id="Fill-126" fill="#FFFFFE" points="13.294 8.9954 13.229 8.7964 13.165 8.9954 12.955 8.9954 13.125 9.1184 13.06 9.3174 13.229 9.1944 13.398 9.3174 13.334 9.1184 13.503 8.9954"></polygon>
                    <polygon id="Fill-127" fill="#FFFFFE" points="14.2813 7.5872 14.2163 7.3882 14.1523 7.5872 13.9423 7.5872 14.1123 7.7102 14.0473 7.9102 14.2163 7.7862 14.3853 7.9102 14.3213 7.7102 14.4903 7.5872"></polygon>
                    <polygon id="Fill-128" fill="#FFFFFE" points="16.4751 9.7815 16.4111 9.5825 16.3461 9.7815 16.1361 9.7815 16.3061 9.9045 16.2411 10.1035 16.4111 9.9805 16.5801 10.1035 16.5151 9.9045 16.6841 9.7815"></polygon>
                    <polygon id="Fill-129" fill="#FFFFFE" points="15.232 12.9446 15.167 12.7456 15.103 12.9446 14.893 12.9446 15.063 13.0676 14.998 13.2666 15.167 13.1436 15.337 13.2666 15.272 13.0676 15.441 12.9446"></polygon>
                    <polygon id="Fill-130" fill="#FFFFFE" points="11.9874 12.1951 11.9224 11.9961 11.8574 12.1951 11.6484 12.1951 11.8184 12.3181 11.7534 12.5171 11.9224 12.3941 12.0914 12.5171 12.0274 12.3181 12.1964 12.1951"></polygon>
                    <polygon id="Fill-131" fill="#FFFFFE" points="20.9649 5.3933 20.8999 5.1943 20.8349 5.3933 20.6259 5.3933 20.7959 5.5163 20.7309 5.7153 20.8999 5.5923 21.0689 5.7153 21.0049 5.5163 21.1739 5.3933"></polygon>
                    <polygon id="Fill-132" fill="#FFFFFE" points="23.2769 2.3762 23.2129 2.1772 23.1479 2.3762 22.9379 2.3762 23.1079 2.4992 23.0429 2.6982 23.2129 2.5752 23.3819 2.6982 23.3169 2.4992 23.4859 2.3762"></polygon>
                    <polygon id="Fill-133" fill="#FFFFFE" points="24.898 2.3762 24.689 2.3762 24.624 2.1772 24.559 2.3762 24.349 2.3762 24.519 2.4992 24.454 2.6982 24.624 2.5752 24.793 2.6982 24.729 2.4992"></polygon>
                    <path d="M24.076,24.948 L24.305,24.948 L24.305,24.361 L24.076,24.361 L24.076,24.948 Z M24.076,23.979 L24.305,23.979 L24.305,23.392 L24.076,23.392 L24.076,23.979 Z M24.076,23.049 L24.305,23.049 L24.305,22.462 L24.076,22.462 L24.076,23.049 Z M24.971,24.948 L25.201,24.948 L25.201,24.361 L24.971,24.361 L24.971,24.948 Z M24.971,23.979 L25.201,23.979 L25.201,23.392 L24.971,23.392 L24.971,23.979 Z M24.971,23.049 L25.201,23.049 L25.201,22.462 L24.971,22.462 L24.971,23.049 Z M26.16,24.948 L26.39,24.948 L26.39,24.361 L26.16,24.361 L26.16,24.948 Z M26.16,23.979 L26.39,23.979 L26.39,23.392 L26.16,23.392 L26.16,23.979 Z M19.413,22.281 L19.643,22.281 L19.643,21.694 L19.413,21.694 L19.413,22.281 Z M17.521,22.755 L17.751,22.755 L17.751,22.168 L17.521,22.168 L17.521,22.755 Z M16.423,21.348 L16.653,21.348 L16.653,20.761 L16.423,20.761 L16.423,21.348 Z M15.683,21.348 L15.913,21.348 L15.913,20.761 L15.683,20.761 L15.683,21.348 Z M14.878,23.908 L15.108,23.908 L15.108,23.321 L14.878,23.321 L14.878,23.908 Z M11.661,21.111 L11.891,21.111 L11.891,20.524 L11.661,20.524 L11.661,21.111 Z M11.661,22.276 L11.891,22.276 L11.891,21.689 L11.661,21.689 L11.661,22.276 Z M10.393,24.416 L10.623,24.416 L10.623,23.829 L10.393,23.829 L10.393,24.416 Z M9.968,19.966 L10.198,19.966 L10.198,19.379 L9.968,19.379 L9.968,19.966 Z M9.296,19.966 L9.526,19.966 L9.526,19.379 L9.296,19.379 L9.296,19.966 Z M9.296,21.111 L9.526,21.111 L9.526,20.524 L9.296,20.524 L9.296,21.111 Z M9.296,22.276 L9.526,22.276 L9.526,21.689 L9.296,21.689 L9.296,22.276 Z M9.296,23.442 L9.526,23.442 L9.526,22.855 L9.296,22.855 L9.296,23.442 Z M23.158,18.776 L23.158,21.93 L22.226,21.93 L22.226,17.618 L20.443,18.197 L20.443,20.23 L19.812,20.23 L19.812,18.402 L17.892,19.025 L17.892,19.462 L16.96,19.462 L16.96,19.328 L14.116,20.251 L16.96,16.339 L16.96,15.129 L14.656,15.129 L14.656,19.215 L13.951,19.215 L13.951,22.095 L13.01,22.095 L13.01,18.557 L12.325,18.557 L12.325,17.679 L12.015,17.679 L12.015,16.323 L11.305,16.323 L10.806,17.009 L10.806,18.036 L10.103,18.036 L10.059,18.036 L2.812,28.005 L18.256,22.992 L19.413,24.583 L19.413,24.361 L19.643,24.361 L19.643,24.899 L22.125,28.313 L27.948,28.313 L27.948,24.458 L23.822,18.776 L23.158,18.776 Z" id="Fill-134" fill="#FFFFFE"></path>
                    <path d="M0.329,28.313 L27.948,28.313 L27.948,0.33 L0.329,0.33 L0.329,28.313 Z M0,28.642 L28.277,28.642 L28.277,0 L0,0 L0,28.642 Z" id="Fill-135" fill="#0B0B09"></path>
                    <polygon id="Fill-136" fill="#D0263A" points="22.9322 0.3293 0.3282 0.3293 0.3282 28.3123 22.1242 28.3123 18.2562 22.9923 2.8112 28.0043 12.3602 14.8713 2.8202 1.7323 18.2612 6.7543"></polygon>
                    <polygon id="Fill-137" fill="#E5AD2C" points="14.1207 5.4138 19.5077 12.8338 14.1157 20.2508 22.8377 17.4198 27.9477 24.4578 27.9477 1.2258 22.8407 8.2498"></polygon>
                </g>
            </g>
        </g>
    </g>
</svg>