<?xml version="1.0" encoding="UTF-8"?>
<svg viewBox="0 0 80 80" version="1.1" xmlns="http://www.w3.org/2000/svg" xmlns:xlink="http://www.w3.org/1999/xlink">
    <title>Group 171</title>
    <g id="Page-5" stroke="none" stroke-width="1" fill="none" fill-rule="evenodd">
        <g id="2022-Guide_Arrv-BrandStandardsOfficial-Flipbook" transform="translate(-186.000000, -342.000000)" fill="#00274B">
            <g id="Group-171" transform="translate(186.324900, 342.518600)">
                <path d="M39.431,0 C17.654,0 0,17.654 0,39.431 C0,61.208 17.654,78.862 39.431,78.862 C47.221,78.862 54.476,76.594 60.592,72.695 L60.592,72.695 L48.08,44.341 L25.306,44.341 L20.517,55.844 L15.6,55.844 L34.64,12.054 L38.997,12.054 L64.374,69.966 C73.216,62.736 78.862,51.744 78.862,39.431 C78.862,17.654 61.208,0 39.431,0 L39.431,0 Z M67.199,56.216 C66.349,56.216 65.63,55.923 65.036,55.336 C64.445,54.748 64.15,54.061 64.15,53.276 C64.15,52.465 64.439,51.764 65.015,51.176 C65.591,50.588 66.319,50.293 67.199,50.293 C68.077,50.293 68.805,50.579 69.381,51.152 C69.957,51.725 70.246,52.417 70.246,53.232 C70.246,54.017 69.957,54.709 69.381,55.312 C68.805,55.914 68.077,56.216 67.199,56.216 L67.199,56.216 Z M26.986,40.258 L46.4,40.258 L36.696,17.005 L26.986,40.258 Z" id="Fill-169"></path>
            </g>
        </g>
    </g>
</svg>