<?xml version="1.0" encoding="UTF-8"?>
<svg viewBox="0 0 257 257" version="1.1" xmlns="http://www.w3.org/2000/svg" xmlns:xlink="http://www.w3.org/1999/xlink">
    <title>favicon</title>
    <g id="Page-6" stroke="none" stroke-width="1" fill="none" fill-rule="evenodd">
        <g id="2022-Guide_RNw-BrandStandardsOfficial-Flippingbook-(1)" transform="translate(-386.000000, -347.000000)">
            <g id="favicon" transform="translate(386.599000, 347.252900)">
                <path d="M128,256 C198.69696,256 256,198.69696 256,128 C256,57.30304 198.69696,0 128,0 C57.31328,0 0,57.30304 0,128 C0,198.69696 57.31328,256 128,256" id="Fill-614" fill="#006E99"></path>
                <path d="M88.735744,60.31872 L123.142144,60.31872 L123.142144,84.2496 L123.736064,84.2496 C127.729664,75.88352 133.310464,69.0944 140.498944,63.90272 C147.677184,58.72128 156.053504,56.13056 165.627904,56.13056 C167.020544,56.13056 168.515584,56.18176 170.123264,56.28416 C171.710464,56.37632 173.103104,56.63232 174.301184,57.02144 L174.301184,89.94304 C171.905024,89.33888 169.867264,88.93952 168.177664,88.74496 C166.467584,88.5504 164.829184,88.448 163.241984,88.448 C155.049984,88.448 148.475904,89.94304 143.489024,92.93312 C138.502144,95.9232 134.610944,99.51744 131.815424,103.7056 C129.030144,107.88352 127.135744,112.18432 126.132224,116.56704 C125.128704,120.96 124.637184,124.45184 124.637184,127.04256 L124.637184,203.93472 L88.735744,203.93472 L88.735744,60.31872 Z" id="Fill-616" fill="#FFFFFE"></path>
            </g>
        </g>
    </g>
</svg>