<?xml version="1.0" encoding="UTF-8"?>
<svg viewBox="0 0 478 510" version="1.1" xmlns="http://www.w3.org/2000/svg" xmlns:xlink="http://www.w3.org/1999/xlink">
    <!-- Generator: Sketch 58 (84663) - https://sketch.com -->
    <title>icon</title>
    <desc>Created with Sketch.</desc>
    <g id="Favicons" stroke="none" stroke-width="1" fill="none" fill-rule="evenodd">
        <g id="icon" transform="translate(0.000000, -1.000000)" fill-rule="nonzero">
            <path d="M476.102884,491.603408 L255.580541,9.77622486 C253.442595,5.47078919 250.577055,1.90771892 243.421371,1.90771892 L236.265652,1.90771892 C229.822755,1.90771892 226.244947,5.47078919 224.076869,9.77622486 L107.837544,261.330162 L194.450335,276.849643 L236.978474,181.603702 L239.131191,181.603702 L380.880709,495.908809 C385.884195,505.915261 390.901414,510.205405 401.635459,510.205405 L463.914586,510.205405 C474.663542,510.205405 480.408874,500.897003 476.102884,491.603408 Z" id="Path" fill="#96A3AE"></path>
            <path d="M82.1874854,316.839057 L1.43145514,491.603408 C-2.85868973,500.897003 2.87135135,510.20544 13.5906249,510.20544 L75.8993643,510.20544 C87.330387,510.20544 93.7885751,503.064562 96.6388238,495.908843 L159.740056,354.587053 L82.1874854,316.839057 Z" id="Path" fill="#96A3AE"></path>
            <polygon id="Path" fill="#323E48" points="44.5044584 398.388411 89.3093708 302.230936 286.9696 336.272848"></polygon>
        </g>
    </g>
</svg>