<svg viewBox="0 0 260 262" fill="none" xmlns="http://www.w3.org/2000/svg">
<circle cx="130" cy="130" r="130" fill="white"/>
<path fill-rule="evenodd" clip-rule="evenodd" d="M206.939 165.386H254.06C257.913 154.184 260 142.298 260 129.979C260 129.328 259.956 128.689 259.946 128.041C245.503 142.651 222.491 152.622 206.939 165.386Z" fill="#D23D42"/>
<path fill-rule="evenodd" clip-rule="evenodd" d="M145.775 208.209V170.809C166.21 155.024 223.188 121.507 223.188 93.5786C223.188 86.0484 213.57 79.249 206.84 79.249C193.617 79.249 188.088 96.2475 186.163 106.936L145.775 99.4057C149.38 64.1918 176.309 42.8181 210.447 42.8181C215.948 42.8181 221.295 43.3783 226.426 44.4053C202.716 17.1916 168.001 0 129.296 0C86.3713 0 48.3546 21.129 24.8161 53.6321C35.6962 46.1567 50.4038 41.8974 68.0689 41.8974C95.7025 41.8974 115.675 48.7032 132.859 60.9016L111.028 96.5597C96.6331 86.7083 82.2347 81.0744 65.7456 81.0744C52.2777 81.0744 49.0271 85.3015 49.0271 91.164C49.0271 97.2616 54.8304 100.079 75.7334 105.004C116.602 114.859 134.717 127.527 134.717 158.26C134.717 195.795 106.618 211.274 67.6036 211.274C51.1687 211.274 35.1035 207.874 21.2245 202.562C44.3678 238.011 84.1149 261.416 129.296 261.416C172.029 261.416 209.912 240.477 233.469 208.209H145.775Z" fill="#D23D42"/>
<path fill-rule="evenodd" clip-rule="evenodd" d="M21.1218 160.215C33.0263 168.531 53.7958 176.843 68.967 176.843C85.0702 176.843 90.2041 173.991 90.2041 166.154C90.2041 159.977 84.3688 156.179 62.4303 150.95C24.5807 142.064 5.6944 131.581 4.22757 101.365C1.47324 112.087 0 123.333 0 134.932C0 151.283 2.93047 166.93 8.25656 181.391L21.1218 160.215Z" fill="#D23D42"/>
</svg>
