<?xml version="1.0" encoding="UTF-8"?>
<svg viewBox="0 0 229 90" version="1.1" xmlns="http://www.w3.org/2000/svg" xmlns:xlink="http://www.w3.org/1999/xlink">
    <!-- Generator: Sketch 61 (89581) - https://sketch.com -->
    <title>renew-logo</title>
    <desc>Created with Sketch.</desc>
    <g id="renew-logo" stroke="none" stroke-width="1" fill="none" fill-rule="evenodd">
        <path d="M4,26.0486642 L12.4452141,26.0486642 L12.4452141,32.0398851 L12.5906857,32.0398851 C13.56967,29.9435593 14.9408378,28.2462472 16.7032062,26.9469463 C18.4655745,25.6486479 20.5228177,25 22.8719869,25 C23.2140417,25 23.5816522,25.0130331 23.9728528,25.0370942 C24.3650363,25.0631605 24.7061081,25.1253184 25,25.223568 L25,33.4635019 C24.4131992,33.3141224 23.9128949,33.2138677 23.4971215,33.1637403 C23.0793822,33.113613 22.6763866,33.0885493 22.2851861,33.0885493 C20.2761058,33.0885493 18.6621577,33.4635019 17.4364615,34.2124045 C16.213714,34.9623097 15.2583197,35.8605918 14.5732272,36.9092559 C13.8881348,37.955915 13.4241985,39.0306454 13.1774865,40.1294369 C12.9317575,41.2282285 12.809876,42.103452 12.809876,42.7510974 L12.809876,62 L4,62 L4,26.0486642 Z" id="Fill-1" fill="#49B69F"></path>
        <path d="M58.1103032,40.4100598 C58.1103032,39.2626406 57.9496819,38.1652834 57.6294307,37.117988 C57.3062051,36.0716939 56.8015368,35.1485522 56.1104685,34.3515664 C55.4194001,33.5525782 54.5429232,32.9187943 53.4810378,32.4432061 C52.4181608,31.9686191 51.1718582,31.7323268 49.7411386,31.7323268 C47.0740312,31.7323268 44.8154177,32.5433299 42.9623234,34.1633336 C41.1102206,35.7853398 40.0850202,37.8659131 39.8896968,40.4100598 L58.1103032,40.4100598 Z M67,44.4490554 L67,45.6455353 C67,46.0450294 66.9732298,46.4445235 66.9256383,46.8420151 L39.8896968,46.8420151 C39.9858713,48.1406213 40.3200033,49.3240851 40.8881269,50.3954101 C41.457242,51.4677364 42.2097827,52.389877 43.1467405,53.162833 C44.0866727,53.935789 45.1495497,54.5475456 46.3314054,54.9961004 C47.5172271,55.4446552 48.7526233,55.6699339 50.0366025,55.6699339 C52.2585309,55.6699339 54.1344295,55.2574237 55.6672726,54.435407 C57.1971412,53.6113878 58.4543502,52.4779859 59.4448484,51.0321977 L65.3689994,55.8181171 C61.8640833,60.6050378 56.7777411,63 50.1119557,63 C47.3437164,63 44.8015368,62.5624588 42.4824424,61.6903802 C40.1603735,60.8193028 38.1466579,59.5837747 36.4432785,57.9878007 C34.7398992,56.3918267 33.407337,54.435407 32.4446005,52.1165389 C31.4808725,49.7966696 31,47.1674176 31,44.224778 C31,41.3332016 31.4808725,38.7019471 32.4446005,36.3330172 C33.407337,33.9650884 34.7270098,31.9445894 36.4056019,30.2735225 C38.0851855,28.6034569 40.0741139,27.3078545 42.370404,26.3847127 C44.6657027,25.4615709 47.148393,25 49.8155003,25 C52.2823267,25 54.5677105,25.411509 56.6657027,26.2355282 C58.7646864,27.0575449 60.5791126,28.2800569 62.1119557,29.9000606 C63.6418243,31.5200643 64.8375609,33.5415646 65.70214,35.9595552 C66.5677105,38.3785472 67,41.2080468 67,44.4490554 L67,44.4490554 Z" id="Fill-3" fill="#49B69F"></path>
        <polygon id="Fill-5" fill="#DE4A2E" points="118.756385 62 103.711137 37.14904 103.551545 37.14904 103.764665 62 95 62 95 24 105.294169 24 120.288863 48.7965418 120.445481 48.7965418 120.235335 24 129 24 129 62"></polygon>
        <polygon id="Fill-7" fill="#DE4A2E" points="140 62 140 24 165.053324 24 165.053324 31.7283865 148.684125 31.7283865 148.684125 38.9216612 164.156056 38.9216612 164.156056 46.2751671 148.684125 46.2751671 148.684125 54.1637849 166 54.1637849 166 62"></polygon>
        <polygon id="Fill-9" fill="#DE4A2E" points="215.162606 62 206.094336 62 198.57959 36.2904423 198.419402 36.2904423 190.908686 62 181.786013 62 171 24 180.874249 24 186.883829 49.2792511 187.04301 49.2792511 193.80618 24 203.356023 24 210.171582 49.2792511 210.330763 49.2792511 216.448143 24 226 24"></polygon>
        <polygon id="Fill-11" fill="#49B69F" points="78 87 81 87 81 2 78 2"></polygon>
        <path d="M97.2194147,76.7877439 L98.7796258,76.7877439 L97.9956821,74.3495378 L97.2194147,76.7877439 Z M99.1557652,78.0920917 L96.8442348,78.0920917 L96.5602111,79 L95,79 L97.0946746,73 L98.8966896,73 L101,79 L99.4388294,79 L99.1557652,78.0920917 Z" id="Fill-13" fill="#DE492E"></path>
        <path d="M104.747309,74.3043478 L103.520414,74.3043478 L103.520414,75.6538857 L104.747309,75.6538857 C105.153565,75.6538857 105.454195,75.3940431 105.454195,74.9883602 C105.454195,74.5744608 105.153565,74.3043478 104.747309,74.3043478 L104.747309,74.3043478 Z M102,73 L104.950437,73 C106.275848,73 107,73.9089353 107,74.9976036 C107,76.0770284 106.275848,76.9674769 104.950437,76.9674769 L103.520414,76.9674769 L103.520414,79 L102,79 L102,73 Z" id="Fill-14" fill="#DE492E"></path>
        <path d="M109.219415,76.7877439 L110.779626,76.7877439 L109.995682,74.3495378 L109.219415,76.7877439 Z M111.155765,78.0920917 L108.844235,78.0920917 L108.560211,79 L107,79 L109.094675,73 L110.897649,73 L113,79 L111.438829,79 L111.155765,78.0920917 Z" id="Fill-15" fill="#DE492E"></path>
        <path d="M116.706607,74.3043478 L115.510406,74.3043478 L115.510406,75.6538857 L116.706607,75.6538857 C117.101637,75.6538857 117.436048,75.3940431 117.436048,74.9791167 C117.436048,74.5652174 117.101637,74.3043478 116.706607,74.3043478 L116.706607,74.3043478 Z M116.2843,76.9674769 L115.510406,76.9674769 L115.510406,79 L114,79 L114,73 L116.934936,73 C118.235199,73 118.972722,73.8822321 118.972722,74.9976036 C118.972722,76.0400548 118.349364,76.5977405 117.804809,76.7969873 L119,79 L117.269347,79 L116.2843,76.9674769 Z" id="Fill-16" fill="#DE492E"></path>
        <polygon id="Fill-17" fill="#DE492E" points="120.71519 74.3487417 119 74.3487417 119 73 124 73 124 74.3487417 122.293249 74.3487417 122.293249 79 120.71519 79"></polygon>
        <polygon id="Fill-18" fill="#DE492E" points="130.410541 74.9517206 128.846598 79 128.144897 79 126.590522 74.9517206 126.590522 79 125 79 125 73 127.210358 73 128.495747 76.4001027 129.790705 73 132 73 132 79 130.410541 79"></polygon>
        <polygon id="Fill-19" fill="#DE492E" points="133 73 137 73 137 74.3043478 134.406676 74.3043478 134.406676 75.3026361 136.941702 75.3026361 136.941702 76.6162273 134.406676 76.6162273 134.406676 77.6956522 137 77.6956522 137 79 133 79"></polygon>
        <polygon id="Fill-20" fill="#DE492E" points="139.38724 75.3755563 139.38724 79 138 79 138 73 139.428042 73 141.605341 76.4549812 141.605341 73 143 73 143 79 141.661907 79"></polygon>
        <polygon id="Fill-21" fill="#DE492E" points="145.71519 74.3487417 144 74.3487417 144 73 149 73 149 74.3487417 147.293249 74.3487417 147.293249 79 145.71519 79"></polygon>
        <path d="M152,75.9995036 C152,74.2083402 153.434921,73 155.27619,73 C156.804233,73 157.595767,73.7903359 158,74.5568426 L156.638095,75.1644878 C156.434921,74.7037895 155.911111,74.321529 155.27619,74.321529 C154.318519,74.321529 153.609524,75.0522919 153.609524,75.9995036 C153.609524,76.9477081 154.318519,77.6774781 155.27619,77.6774781 C155.911111,77.6774781 156.434921,77.2962105 156.638095,76.8345193 L158,77.4431574 C157.604233,78.1917922 156.804233,79 155.27619,79 C153.434921,79 152,77.7827238 152,75.9995036" id="Fill-22" fill="#DE492E"></path>
        <path d="M161.003387,74.3213104 C160.069666,74.3213104 159.471698,75.0519523 159.471698,75.9990073 C159.471698,76.9391132 160.069666,77.6776969 161.003387,77.6776969 C161.929366,77.6776969 162.526367,76.9391132 162.526367,75.9990073 C162.526367,75.0519523 161.929366,74.3213104 161.003387,74.3213104 M161.003387,73 C162.719884,73 164,74.2349437 164,75.9990073 C164,77.7650563 162.719884,79 161.003387,79 C159.286889,79 158,77.7650563 158,75.9990073 C158,74.2349437 159.286889,73 161.003387,73" id="Fill-23" fill="#DE492E"></path>
        <polygon id="Fill-24" fill="#DE492E" points="170.410541 74.9517206 168.846598 79 168.143834 79 166.590522 74.9517206 166.590522 79 165 79 165 73 167.210358 73 168.495747 76.4001027 169.790705 73 172 73 172 79 170.410541 79"></polygon>
        <polygon id="Fill-25" fill="#DE492E" points="178.410541 74.9517206 176.846598 79 176.144897 79 174.590522 74.9517206 174.590522 79 173 79 173 73 175.210358 73 176.495747 76.4001027 177.790705 73 180 73 180 79 178.410541 79"></polygon>
        <path d="M181,73 L182.413447,73 L182.413447,76.4555238 C182.413447,77.152682 182.753343,77.6561291 183.503715,77.6561291 C184.247585,77.6561291 184.586553,77.152682 184.586553,76.4555238 L184.586553,73 L186,73 L186,76.498907 C186,77.9658651 185.232912,79 183.503715,79 C181.775446,79 181,77.9567849 181,76.5079872 L181,73 Z" id="Fill-26" fill="#DE492E"></path>
        <polygon id="Fill-27" fill="#DE492E" points="189.38724 75.3755563 189.38724 79 188 79 188 73 189.428042 73 191.605341 76.4549812 191.605341 73 193 73 193 79 191.661907 79"></polygon>
        <polygon id="Fill-28" fill="#DE492E" points="194 79 195 79 195 73 194 73"></polygon>
        <polygon id="Fill-29" fill="#DE492E" points="197.71519 74.3487417 196 74.3487417 196 73 201 73 201 74.3487417 199.293249 74.3487417 199.293249 79 197.71519 79"></polygon>
        <polygon id="Fill-30" fill="#DE492E" points="202 79 203 79 203 73 202 73"></polygon>
        <polygon id="Fill-31" fill="#DE492E" points="205 73 209 73 209 74.3043478 206.406676 74.3043478 206.406676 75.3026361 208.941702 75.3026361 208.941702 76.6162273 206.406676 76.6162273 206.406676 77.6956522 209 77.6956522 209 79 205 79"></polygon>
        <path d="M210.792268,76.9532803 C211.210938,77.3707753 211.85597,77.7196819 212.648237,77.7196819 C213.162059,77.7196819 213.475561,77.5019881 213.475561,77.222664 C213.475561,76.8916501 213.100962,76.7624254 212.481971,76.6312127 C211.523438,76.4393638 210.183293,76.195825 210.183293,74.8200795 C210.183293,73.8449304 211.010617,73 212.5,73 C213.432492,73 214.241787,73.2793241 214.860777,73.8101392 L214.041466,74.8807157 C213.554687,74.4811133 212.917668,74.2813121 212.403846,74.2813121 C211.907051,74.2813121 211.715745,74.4811133 211.715745,74.7335984 C211.715745,75.0377734 212.073317,75.1421471 212.718349,75.2644135 C213.675881,75.4642147 215,75.7425447 215,77.0576541 C215,78.2236581 214.13762,79 212.578125,79 C211.402244,79 210.583934,78.6332008 210,78.0765408 L210.792268,76.9532803 Z" id="Fill-32" fill="#DE492E"></path>
    </g>
</svg>