<?xml version="1.0" encoding="utf-8"?>
<!-- Generator: Adobe Illustrator 25.0.0, SVG Export Plug-In . SVG Version: 6.00 Build 0)  -->
<svg version="1.1" id="Layer_1" xmlns="http://www.w3.org/2000/svg" xmlns:xlink="http://www.w3.org/1999/xlink" x="0px" y="0px"
	 viewBox="0 0 250 100" style="enable-background:new 0 0 250 100;" xml:space="preserve">
<style type="text/css">
	.st0{clip-path:url(#SVGID_2_);fill:#58595B;}
	.st1{fill:#58595B;}
</style>
<g>
	<g>
		<defs>
			<path id="SVGID_1_" d="M56.49,48.25l-0.06-13.24c-0.37-4.16-4.01-7.5-8.64-7.97v21.65h-2.23V27.04c-4.64,0.46-8.31,3.8-8.68,7.97
				l0.07,13.24H14.67V34.7l31.98-16.42L78.63,34.7v11.37H92.3V27.68L46.65,4.24L26.18,14.75V4l-12.77,7.99v9.31L1,27.68v30.89h0.01
				v0.46h77.62v8.5L46.65,83.96L14.8,67.61h-0.03v-6.4H1v13.35L46.65,98L92.3,74.56V59.04h0.03V48.25H56.49z M43.2,39.36
				c-0.48,0-0.86-0.34-0.86-0.77s0.39-0.77,0.86-0.77c0.48,0,0.86,0.34,0.86,0.77S43.67,39.36,43.2,39.36z M50.24,39.36
				c-0.48,0-0.86-0.34-0.86-0.77s0.39-0.77,0.86-0.77c0.48,0,0.86,0.34,0.86,0.77S50.72,39.36,50.24,39.36z"/>
		</defs>
		<use xlink:href="#SVGID_1_"  style="overflow:visible;fill:#58595B;"/>
		<clipPath id="SVGID_2_">
			<use xlink:href="#SVGID_1_"  style="overflow:visible;"/>
		</clipPath>
		<rect x="-5.01" y="-6.77" class="st0" width="100.7" height="108.61"/>
	</g>
	<g>
		<path class="st1" d="M95.1,28.32h6.59v7.13h7.2v-7.13h6.62V48.7h-6.62v-8.25h-7.2v8.25H95.1V28.32z"/>
		<path class="st1" d="M118.09,28.32h17.66v4.35h-11.05v3.24h10.25v4.16h-10.25v4.02h11.37v4.62h-17.98V28.32z"/>
		<path class="st1" d="M150.93,45.34h-7.48l-1.04,3.36h-6.73l8.01-20.38h7.19l8.01,20.38H152L150.93,45.34z M149.57,40.93
			l-2.35-7.33l-2.33,7.33H149.57z"/>
		<path class="st1" d="M159.29,28.32h9.79c1.93,0,3.49,0.25,4.68,0.75c1.19,0.5,2.17,1.22,2.95,2.15c0.77,0.94,1.34,2.03,1.69,3.27
			c0.35,1.24,0.52,2.56,0.52,3.95c0,2.18-0.26,3.87-0.78,5.07c-0.52,1.2-1.24,2.21-2.16,3.02c-0.92,0.81-1.91,1.35-2.97,1.62
			c-1.44,0.37-2.75,0.56-3.93,0.56h-9.79V28.32z M165.88,32.94v11.14h1.61c1.38,0,2.36-0.15,2.94-0.44c0.58-0.29,1.04-0.8,1.37-1.53
			c0.33-0.73,0.49-1.91,0.49-3.54c0-2.16-0.37-3.64-1.11-4.44c-0.74-0.8-1.96-1.2-3.67-1.2H165.88z"/>
		<path class="st1" d="M178.9,28.32h6.26l2.25,11.41l3.3-11.41h6.24l3.31,11.4l2.26-11.4h6.23l-4.7,20.38h-6.46l-3.74-12.83
			l-3.73,12.83h-6.46L178.9,28.32z"/>
		<path class="st1" d="M222.21,45.34h-7.48l-1.04,3.36h-6.73l8.01-20.38h7.19l8.01,20.38h-6.9L222.21,45.34z M220.84,40.93
			l-2.35-7.33l-2.33,7.33H220.84z"/>
		<path class="st1" d="M225.8,28.32h7.32l4.3,6.88l4.3-6.88H249l-8.29,11.85v8.54h-6.6v-8.54L225.8,28.32z"/>
	</g>
	<g>
		<path class="st1" d="M101.72,66.84l-1.26,5.35h-4.14l5.39-20.85h5.24l5.47,20.85h-4.29l-1.36-5.35H101.72z M106.19,63.31
			l-1.1-4.42c-0.31-1.24-0.63-2.78-0.89-4.02h-0.05c-0.26,1.24-0.52,2.82-0.81,4.02l-1.05,4.42H106.19z"/>
		<path class="st1" d="M113.5,51.62c1.23-0.25,2.96-0.43,5.39-0.43c2.46,0,4.21,0.56,5.39,1.67c1.13,1.05,1.88,2.78,1.88,4.83
			c0,2.04-0.58,3.77-1.62,4.95c-1.36,1.52-3.38,2.2-5.73,2.2c-0.52,0-0.99-0.03-1.36-0.09v7.46h-3.95V51.62z M117.45,61.08
			c0.34,0.09,0.76,0.12,1.34,0.12c2.12,0,3.43-1.27,3.43-3.4c0-1.92-1.13-3.06-3.12-3.06c-0.81,0-1.36,0.09-1.65,0.19V61.08z"/>
		<path class="st1" d="M129.96,66.84l-1.26,5.35h-4.14l5.39-20.85h5.24l5.47,20.85h-4.29l-1.36-5.35H129.96z M134.44,63.31
			l-1.1-4.42c-0.31-1.24-0.63-2.78-0.89-4.02h-0.05c-0.26,1.24-0.52,2.82-0.81,4.02l-1.05,4.42H134.44z"/>
		<path class="st1" d="M141.74,51.62c1.28-0.25,3.19-0.43,5.31-0.43c2.62,0,4.45,0.46,5.71,1.64c1.05,0.99,1.62,2.44,1.62,4.36
			c0,2.66-1.6,4.49-3.12,5.14v0.09c1.23,0.59,1.91,1.98,2.36,3.9c0.55,2.35,1.1,5.07,1.44,5.88h-4.08
			c-0.29-0.59-0.71-2.29-1.23-4.86c-0.47-2.6-1.23-3.31-2.85-3.34h-1.2v8.2h-3.95V51.62z M145.69,60.59h1.57
			c1.99,0,3.17-1.18,3.17-3c0-1.92-1.1-2.88-2.93-2.91c-0.97,0-1.52,0.09-1.81,0.15V60.59z"/>
		<path class="st1" d="M159.38,55.3h-4.74v-3.96h13.56v3.96h-4.82v16.89h-4V55.3z"/>
		<path class="st1" d="M183.86,64.21c-0.08-2.51-0.16-5.54-0.16-8.57h-0.08c-0.55,2.66-1.28,5.63-1.96,8.07l-2.15,8.14h-3.12
			l-1.88-8.07c-0.58-2.44-1.18-5.41-1.6-8.14h-0.05c-0.1,2.82-0.18,6.03-0.31,8.63l-0.31,7.92h-3.69l1.13-20.85h5.31l1.73,6.96
			c0.55,2.41,1.1,5.01,1.49,7.46h0.08c0.5-2.41,1.1-5.17,1.68-7.49l1.88-6.93h5.21l0.97,20.85h-3.9L183.86,64.21z"/>
		<path class="st1" d="M200.3,63.37h-6.49v4.95h7.25v3.87H189.8V51.34h10.89v3.87h-6.88v4.33h6.49V63.37z"/>
		<path class="st1" d="M202.5,72.19V51.34h4.66l3.66,7.64c1.05,2.2,2.09,4.8,2.88,7.15h0.08c-0.26-2.75-0.34-5.57-0.34-8.69v-6.09
			h3.66v20.85h-4.19l-3.77-8.04c-1.05-2.23-2.2-4.92-3.06-7.36l-0.08,0.03c0.1,2.75,0.16,5.69,0.16,9.09v6.28H202.5z"/>
		<path class="st1" d="M222.68,55.3h-4.74v-3.96h13.56v3.96h-4.82v16.89h-4.01V55.3z"/>
		<path class="st1" d="M232.24,67.33c1.07,0.65,2.72,1.3,4.42,1.3c1.83,0,2.8-0.9,2.8-2.26c0-1.3-0.84-2.04-2.96-2.94
			c-2.93-1.21-4.84-3.12-4.84-6.16c0-3.56,2.51-6.28,6.67-6.28c1.99,0,3.46,0.49,4.5,1.05l-0.89,3.81c-0.71-0.4-1.96-0.99-3.69-0.99
			c-1.73,0-2.57,0.93-2.57,2.01c0,1.33,0.99,1.92,3.27,2.94c3.12,1.36,4.58,3.28,4.58,6.22c0,3.5-2.28,6.47-7.12,6.47
			c-2.02,0-4-0.62-5-1.27L232.24,67.33z"/>
	</g>
</g>
</svg>
