<?xml version="1.0" encoding="utf-8"?>
<!-- Generator: Adobe Illustrator 26.0.1, SVG Export Plug-In . SVG Version: 6.00 Build 0)  -->
<svg version="1.1" id="Logo" xmlns="http://www.w3.org/2000/svg" xmlns:xlink="http://www.w3.org/1999/xlink" x="0px" y="0px"
	 viewBox="0 0 239.5 85" style="enable-background:new 0 0 239.5 85;" xml:space="preserve">
<style type="text/css">
	.st0{fill:#002F62;}
	.st1{fill:#FFFFFF;}
	.st2{fill:#C2C0BF;}
	.st3{fill:#C6401B;}
</style>
<g>
	<path class="st1" d="M26.6,0L0,61.1h6.9l6.7-16h31.8l17.6,40h6.9L32.6,0H26.6z M29.4,6.9L43,39.3H15.9L29.4,6.9z"/>
	<path class="st1" d="M68,25.4c-0.1-1.7-0.1-3.3-0.3-4.7h5.6c0.1,1.1,0.2,2.3,0.3,3.6c0.1,1.3,0.1,2.4,0.1,3.3h0.2
		c1.2-2.4,2.9-4.3,5.2-5.7c2.3-1.5,4.9-2.2,7.8-2.2c0.8,0,1.4,0,2,0.1c0.6,0.1,1.2,0.2,1.9,0.3L90,25.7c-0.3-0.1-0.9-0.2-1.7-0.3
		c-0.8-0.1-1.6-0.2-2.4-0.2c-1.6,0-3.1,0.3-4.5,0.9c-1.4,0.6-2.7,1.5-3.8,2.7c-1.1,1.2-1.9,2.8-2.6,4.7c-0.7,1.9-1,4.2-1,6.9v20.7
		h-5.9V29.6C68.1,28.5,68,27.1,68,25.4"/>
	<path class="st1" d="M98.4,25.4c-0.1-1.7-0.1-3.3-0.3-4.7h5.6c0.1,1.1,0.2,2.3,0.3,3.6c0.1,1.3,0.1,2.4,0.1,3.3h0.2
		c1.2-2.4,2.9-4.3,5.2-5.7c2.3-1.5,4.9-2.2,7.8-2.2c0.8,0,1.4,0,2,0.1c0.6,0.1,1.2,0.2,1.9,0.3l-0.8,5.6c-0.3-0.1-0.9-0.2-1.7-0.3
		c-0.8-0.1-1.6-0.2-2.4-0.2c-1.6,0-3.1,0.3-4.5,0.9c-1.4,0.6-2.7,1.5-3.8,2.7c-1.1,1.2-1.9,2.8-2.6,4.7c-0.7,1.9-1,4.2-1,6.9v20.7
		h-5.9V29.6C98.4,28.5,98.4,27.1,98.4,25.4"/>
	<path class="st1" d="M134.8,61.1h-5.9V20.7h5.9V61.1z M136,5.2c0,1.2-0.4,2.2-1.3,3c-0.9,0.8-1.8,1.2-2.9,1.2c-1,0-2-0.4-2.9-1.2
		c-0.9-0.8-1.3-1.8-1.3-3c0-1.2,0.4-2.2,1.3-3c0.9-0.8,1.8-1.2,2.9-1.2c1,0,2,0.4,2.9,1.2C135.6,3,136,4,136,5.2"/>
	<polygon class="st1" points="166.3,61.1 159.8,61.1 143.2,20.7 149.8,20.7 163,54.9 163.2,54.9 176.5,20.7 182.8,20.7 	"/>
	<path class="st1" d="M219.1,37.8c-0.2-3.8-1.4-6.9-3.7-9.4c-2.3-2.5-5.5-3.8-9.8-3.8c-2,0-3.8,0.4-5.5,1.1
		c-1.7,0.7-3.2,1.7-4.4,2.9c-1.3,1.2-2.3,2.6-3,4.2c-0.8,1.6-1.2,3.2-1.3,5H219.1z M225.1,39.7V41c0,0.5,0,1-0.1,1.5h-33.7
		c0.1,2,0.5,3.9,1.2,5.7c0.8,1.8,1.8,3.3,3.1,4.7c1.3,1.3,2.9,2.4,4.7,3.1c1.8,0.8,3.7,1.2,5.8,1.2c3.1,0,5.7-0.7,7.9-2.1
		c2.2-1.4,3.9-3,5.1-4.9l4.4,3.5c-2.4,3-5.1,5.2-8,6.6c-2.9,1.3-6.1,2-9.4,2c-3,0-5.8-0.5-8.4-1.6c-2.6-1.1-4.8-2.5-6.6-4.4
		c-1.9-1.9-3.3-4.1-4.4-6.7c-1.1-2.6-1.6-5.4-1.6-8.5c0-3,0.5-5.9,1.6-8.5c1-2.6,2.5-4.8,4.3-6.7c1.9-1.9,4-3.4,6.5-4.4
		c2.5-1.1,5.2-1.6,8.1-1.6c3.2,0,6,0.5,8.4,1.6c2.4,1.1,4.5,2.5,6.1,4.3c1.6,1.8,2.8,3.9,3.7,6.3C224.7,34.3,225.1,36.9,225.1,39.7"
		/>
	<path class="st1" d="M239.5,57.4c0,1.1-0.4,2.1-1.2,2.9c-0.8,0.8-1.8,1.3-3,1.3c-1.2,0-2.2-0.4-3-1.2c-0.8-0.8-1.2-1.8-1.2-2.9
		c0-1.1,0.4-2.1,1.2-2.9s1.8-1.2,3-1.2s2.2,0.4,3,1.2C239.1,55.3,239.5,56.3,239.5,57.4"/>
</g>
<g>
	<path class="st1" d="M77.4,80.7v-7.2h1.8v5.7h2.8v1.5H77.4z"/>
	<path class="st1" d="M87.2,80.9c-1.9,0-3.1-1.2-3.1-2.9v-4.5h1.7v4.4c0,0.8,0.4,1.5,1.4,1.5c1,0,1.4-0.7,1.4-1.5v-4.4h1.7V78
		C90.3,79.7,89.1,80.9,87.2,80.9z"/>
	<path class="st1" d="M97.8,80.7l-1.6-2.5l-1.5,2.5h-2.1l2.5-3.8l-2.3-3.4h2.1l1.3,2.2l1.3-2.2h2l-2.3,3.4l2.6,3.8H97.8z"/>
	<path class="st1" d="M105.3,80.9c-1.9,0-3.1-1.2-3.1-2.9v-4.5h1.7v4.4c0,0.8,0.4,1.5,1.4,1.5c1,0,1.4-0.7,1.4-1.5v-4.4h1.7V78
		C108.4,79.7,107.2,80.9,105.3,80.9z"/>
	<path class="st1" d="M115.4,80.7l-1.6-2.9h-0.6v2.9h-1.7v-7.2h2.8c1.4,0,2.8,0.5,2.8,2.2c0,1-0.6,1.7-1.5,1.9l1.9,3.1H115.4z
		 M114.1,74.9h-0.9v1.7h0.8c0.6,0,1.3-0.1,1.3-0.9C115.3,75,114.7,74.9,114.1,74.9z"/>
	<path class="st1" d="M123.4,77.6v3.1h-1.7v-3.1l-2.7-4.2h2.1l1.5,2.7l1.5-2.7h2L123.4,77.6z"/>
	<path class="st1" d="M135.9,80.9c-2.2,0-3.9-1.5-3.9-3.8c0-2.3,1.7-3.8,3.9-3.8c1,0,2.1,0.4,2.7,1.1l-1.2,1.2
		c-0.3-0.4-0.9-0.7-1.5-0.7c-1.2,0-2.1,0.9-2.1,2.2c0,1.3,0.8,2.2,2,2.2c0.7,0,1.2-0.3,1.5-0.7l1.2,1.1
		C138.1,80.4,137.1,80.9,135.9,80.9z"/>
	<path class="st1" d="M144.6,80.9c-2.3,0-3.9-1.5-3.9-3.8c0-2.3,1.7-3.8,3.9-3.8c2.3,0,3.9,1.5,3.9,3.8
		C148.6,79.3,146.9,80.9,144.6,80.9z M144.6,74.8c-1.2,0-2.1,0.9-2.1,2.2c0,1.3,0.8,2.2,2.1,2.2s2.1-0.9,2.1-2.2
		C146.7,75.8,145.9,74.8,144.6,74.8z"/>
	<path class="st1" d="M158,80.7l0-5.1h0l-1.9,5.1h-1.2l-1.8-5.1h0l0,5.1h-1.6v-7.2h2.5l1.6,4.6h0l1.6-4.6h2.5v7.2H158z"/>
	<path class="st1" d="M169.4,80.7l0-5.1h0l-1.9,5.1h-1.2l-1.8-5.1h0l0,5.1h-1.6v-7.2h2.5l1.6,4.6h0l1.6-4.6h2.5v7.2H169.4z"/>
	<path class="st1" d="M177.3,80.9c-1.9,0-3.1-1.2-3.1-2.9v-4.5h1.7v4.4c0,0.8,0.4,1.5,1.4,1.5c1,0,1.4-0.7,1.4-1.5v-4.4h1.7V78
		C180.4,79.7,179.2,80.9,177.3,80.9z"/>
	<path class="st1" d="M188.1,80.7l-2.9-4.7h0l0,4.7h-1.7v-7.2h2l2.9,4.7h0l0-4.7h1.7v7.2H188.1z"/>
	<path class="st1" d="M193.3,80.7v-7.2h1.8v7.2H193.3z"/>
	<path class="st1" d="M201.3,74.9v5.7h-1.7v-5.7h-2v-1.5h5.8v1.5H201.3z"/>
	<path class="st1" d="M205.8,80.7v-7.2h1.8v7.2H205.8z"/>
	<path class="st1" d="M210.8,80.7v-7.2h4.9v1.5h-3.2v1.4h3v1.4h-3v1.5h3.4v1.5H210.8z"/>
	<path class="st1" d="M222.5,75.3c-0.3-0.4-0.8-0.6-1.3-0.6c-0.4,0-1,0.2-1,0.7c0,0.5,0.4,0.6,1.1,0.8c1,0.3,2.2,0.7,2.2,2.2
		c0,1.7-1.3,2.4-2.8,2.4c-1,0-2.1-0.4-2.7-1l1.1-1.2c0.3,0.4,1,0.8,1.6,0.8c0.5,0,1-0.2,1-0.8c0-0.6-0.6-0.7-1.5-1
		c-0.9-0.3-1.8-0.8-1.8-2.1c0-1.6,1.4-2.3,2.8-2.3c0.8,0,1.7,0.3,2.4,0.9L222.5,75.3z"/>
</g>
</svg>
