<svg viewBox="0 0 336 50" fill="none" xmlns="http://www.w3.org/2000/svg">
<path fill-rule="evenodd" clip-rule="evenodd" d="M39 31.1688H47.8805C48.6067 29.0577 49 26.8177 49 24.4961C49 24.3733 48.9917 24.2529 48.9898 24.1307C46.2679 26.8841 41.9309 28.7633 39 31.1688Z" fill="#D23D42"/>
<path fill-rule="evenodd" clip-rule="evenodd" d="M27.473 39.2394V32.1909C31.3241 29.2161 42.0624 22.8994 42.0624 17.636C42.0624 16.2168 40.2498 14.9354 38.9813 14.9354C36.4894 14.9354 35.4473 18.1389 35.0845 20.1533L27.473 18.7341C28.1523 12.0977 33.2275 8.06957 39.6612 8.06957C40.6978 8.06957 41.7057 8.17514 42.6727 8.36869C38.2041 3.23996 31.6617 0 24.3673 0C16.2777 0 9.11299 3.982 4.67689 10.1076C6.72737 8.69876 9.49918 7.89605 12.8284 7.89605C18.0362 7.89605 21.8003 9.17868 25.0388 11.4776L20.9246 18.1978C18.2116 16.3412 15.4981 15.2794 12.3905 15.2794C9.85234 15.2794 9.23972 16.076 9.23972 17.1809C9.23972 18.3301 10.3334 18.861 14.2728 19.7893C21.975 21.6465 25.3889 24.034 25.3889 29.8259C25.3889 36.8998 20.0933 39.817 12.7407 39.817C9.64333 39.817 6.61565 39.1763 4 38.1751C8.36163 44.8559 15.8524 49.2669 24.3673 49.2669C32.4208 49.2669 39.5603 45.3207 44 39.2394H27.473Z" fill="#D23D42"/>
<path fill-rule="evenodd" clip-rule="evenodd" d="M3.98065 30.1944C6.22418 31.7616 10.1384 33.3282 12.9976 33.3282C16.0325 33.3282 17 32.7906 17 31.3137C17 30.1495 15.9003 29.4338 11.7657 28.4484C4.63252 26.7737 1.07318 24.7979 0.796734 19.1035C0.27765 21.1241 0 23.2436 0 25.4295C0 28.511 0.552281 31.4599 1.55604 34.1852L3.98065 30.1944Z" fill="#D23D42"/>
<path fill-rule="evenodd" clip-rule="evenodd" d="M67.6289 17.0945H72.2363C74.4018 17.0945 75.4991 18.0252 75.4991 19.8592C75.4991 21.8559 74.454 22.7456 72.1104 22.7456H67.6289V17.0945ZM79.0356 28.1577C82.4714 26.5286 84.2123 23.6703 84.2123 19.6549C84.2123 13.2846 80.253 10.0545 72.4458 10.0545H59V39.2124H67.6289V29.582H70.4073L75.1933 39.2124H85L79.0356 28.1577Z" fill="#0C0C0A"/>
<path fill-rule="evenodd" clip-rule="evenodd" d="M97.1498 31.967V27.6642H105.318V20.5013H97.1498V17.2993H110.724V10.0545H89V39.2124H111V31.967H97.1498Z" fill="#0C0C0A"/>
<path fill-rule="evenodd" clip-rule="evenodd" d="M128.205 21.0794H128.204C124.633 20.2595 123.655 19.8023 123.655 18.9523C123.655 18.1931 123.981 17.4898 126.347 17.4898C129.052 17.4898 131.575 18.3312 134.287 20.1404L134.547 20.3154L138.772 13.5871L138.539 13.4263C135.214 11.1254 131.472 10.0545 126.763 10.0545C119.606 10.0545 114.982 13.7239 114.982 19.4034C114.982 25.3945 118.563 27.3045 125.613 28.9075C129.576 29.8213 130.328 30.432 130.328 31.2384C130.328 32.2627 129.79 32.7844 126.846 32.7844C124.126 32.7844 120.511 31.3342 118.491 29.9699L118.23 29.7931L114 36.5294L114.246 36.6889C117.659 38.8983 122.307 40.2179 126.679 40.2179C134.625 40.2179 139 36.8264 139 30.6658C139 24.771 135.042 22.6862 128.205 21.0794Z" fill="#0C0C0A"/>
<path fill-rule="evenodd" clip-rule="evenodd" d="M143 39.2124H152V10.0545H143V39.2124Z" fill="#0C0C0A"/>
<path fill-rule="evenodd" clip-rule="evenodd" d="M166.836 17.4216H168.545C173.279 17.4216 175.039 19.3645 175.039 24.5925C175.039 30.0149 173.337 31.8459 168.293 31.8459H166.836V17.4216ZM168.587 10.0545H158V39.2124H167.831C179.164 39.2124 184 34.8039 184 24.4708C184 14.6361 179.103 10.0545 168.587 10.0545Z" fill="#0C0C0A"/>
<path fill-rule="evenodd" clip-rule="evenodd" d="M197.15 31.967V27.6642H205.318V20.5013H197.15V17.2993H210.724V10.0545H189V39.2124H211V31.967H197.15Z" fill="#0C0C0A"/>
<path fill-rule="evenodd" clip-rule="evenodd" d="M232.704 10.0545V18.1457C232.704 19.5106 232.719 22.3585 232.83 24.2311C231.788 22.5714 230.016 19.9864 228.986 18.6202L222.525 10.0545H215V39.2124H223.295V30.1831C223.295 28.8017 223.281 25.9036 223.166 24.0341C224.217 25.6645 225.957 28.2201 227.011 29.6627L234.01 39.2124H241V10.0545H232.704Z" fill="#0C0C0A"/>
<path fill-rule="evenodd" clip-rule="evenodd" d="M244 10.0545V17.5439H252.159V39.2124H260.841V17.5439H269V10.0545H244Z" fill="#0C0C0A"/>
<path fill-rule="evenodd" clip-rule="evenodd" d="M273 39.2124H282V10.0545H273V39.2124Z" fill="#0C0C0A"/>
<path fill-rule="evenodd" clip-rule="evenodd" d="M301.785 10.0545H293.216L283 39.2124H292.624L294.802 31.3218C295.668 28.2005 296.811 23.5834 297.458 20.634C298.119 23.6629 299.267 28.299 300.116 31.3218L302.294 39.2124H312L301.785 10.0545Z" fill="#0C0C0A"/>
<path fill-rule="evenodd" clip-rule="evenodd" d="M323.494 31.723V10.0545H315V39.2124H336V31.723H323.494Z" fill="#0C0C0A"/>
</svg>
