<?xml version="1.0" encoding="utf-8"?>
<!-- Generator: Adobe Illustrator 26.0.3, SVG Export Plug-In . SVG Version: 6.00 Build 0)  -->
<svg version="1.1" xmlns="http://www.w3.org/2000/svg" xmlns:xlink="http://www.w3.org/1999/xlink" x="0px" y="0px"
	 viewBox="0 0 236 90" style="enable-background:new 0 0 236 90;" xml:space="preserve">
<style type="text/css">
	.st0{fill:#FFFFFF;}
	.st1{fill:#0078AC;}
</style>
<symbol  id="White" viewBox="-117.8 -45 235.6 90">
	<g>
		<g>
			<rect x="-38.7" y="-45" class="st0" width="3.3" height="90"/>
		</g>
	</g>
	
		<use xlink:href="#White_Primary"  width="235.6" height="58.1" x="-117.8" y="-29.1" transform="matrix(1 0 0 1 0 -7.0214)" style="overflow:visible;"/>
</symbol>
<symbol  id="White_Primary" viewBox="-117.8 -29.1 235.6 58.1">
	<g>
		<path class="st0" d="M-117.8,27.1h9.1v-6.4h0.2c1.1,2.2,2.5,4,4.4,5.4c1.9,1.4,4.1,2.1,6.7,2.1c0.4,0,0.8,0,1.2,0
			c0.4,0,0.8-0.1,1.1-0.2v-8.7c-0.6,0.2-1.2,0.3-1.6,0.3c-0.5,0.1-0.9,0.1-1.3,0.1c-2.2,0-3.9-0.4-5.2-1.2c-1.3-0.8-2.4-1.7-3.1-2.9
			c-0.7-1.1-1.2-2.2-1.5-3.4c-0.3-1.2-0.4-2.1-0.4-2.8V-11h-9.5V27.1z"/>
		<path class="st0" d="M-60.1,11.9c0,1.2-0.2,2.4-0.5,3.5c-0.3,1.1-0.9,2.1-1.6,2.9c-0.7,0.8-1.7,1.5-2.8,2c-1.1,0.5-2.5,0.8-4,0.8
			c-2.9,0-5.3-0.9-7.3-2.6c-2-1.7-3.1-3.9-3.3-6.6H-60.1z M-50.5,7.6V6.3c0-0.4,0-0.8-0.1-1.3h-29c0.1-1.4,0.5-2.6,1.1-3.8
			c0.6-1.1,1.4-2.1,2.4-2.9c1-0.8,2.1-1.5,3.4-1.9c1.3-0.5,2.6-0.7,4-0.7c2.4,0,4.4,0.4,6,1.3c1.6,0.9,3,2.1,4.1,3.6l6.4-5.1
			c-3.8-5.1-9.2-7.6-16.4-7.6c-3,0-5.7,0.5-8.2,1.4c-2.5,0.9-4.6,2.2-6.5,3.9c-1.8,1.7-3.3,3.8-4.3,6.2c-1,2.5-1.5,5.3-1.5,8.4
			c0,3.1,0.5,5.9,1.5,8.4c1,2.5,2.4,4.7,4.2,6.4c1.8,1.8,3.9,3.1,6.4,4.1c2.5,1,5.1,1.5,8,1.5c2.6,0,5.1-0.4,7.3-1.3
			c2.3-0.9,4.2-2.2,5.8-3.9c1.6-1.7,2.9-3.9,3.9-6.4C-51,14-50.5,11-50.5,7.6"/>
	</g>
	<g>
		<polygon class="st0" points="4.3,-11 -11.8,15.2 -12,15.2 -11.7,-11 -21.1,-11 -21.1,29.1 -10.1,29.1 6,2.9 6.2,2.9 5.9,29.1 
			15.3,29.1 15.3,-11 		"/>
		<polygon class="st0" points="26.4,-11 26.4,29.1 53.4,29.1 53.4,20.9 35.8,20.9 35.8,13.3 52.4,13.3 52.4,5.6 35.8,5.6 35.8,-2.8 
			54.4,-2.8 54.4,-11 		"/>
		<polygon class="st0" points="106.4,-11 96.8,-11 88.9,16.1 88.7,16.1 80.8,-11 71.1,-11 59.8,29.1 70.2,29.1 76.5,2.4 76.7,2.4 
			83.8,29.1 93.9,29.1 101.1,2.4 101.3,2.4 107.7,29.1 117.8,29.1 		"/>
		<line class="st0" x1="117.8" y1="29.1" x2="106.4" y2="-11"/>
	</g>
	<text transform="matrix(1 0 0 -1 -21.4409 -27.1724)"><tspan x="0" y="0" class="st0" style="font-family:'AvenirNextLTPro-Bold'; font-size:7.5755px; letter-spacing:1;">apartment communitie</tspan><tspan x="123.7" y="0" class="st0" style="font-family:'AvenirNextLTPro-Bold'; font-size:7.5755px;">s</tspan></text>
</symbol>
<g id="Wide_White">
	
		<use xlink:href="#White"  width="235.6" height="90" id="XMLID_00000174568993556030760110000016682196444512944789_" x="-117.8" y="-45" transform="matrix(1 0 0 -1 118 45)" style="overflow:visible;"/>
</g>
<g id="Wide">
</g>
</svg>
