<svg id="Layer_2" data-name="Layer 2" xmlns="http://www.w3.org/2000/svg" xmlns:xlink="http://www.w3.org/1999/xlink" viewBox="0 0 948.79 251.87"><defs><style>.cls-1{fill:#fff;}.cls-2{fill:#162d54;}.cls-2,.cls-6{stroke:#fff;stroke-miterlimit:10;}.cls-3{fill:#6297ce;}.cls-4{fill:url(#linear-gradient);}.cls-5,.cls-6{fill:none;}</style><linearGradient id="linear-gradient" x1="138.9" y1="194.63" x2="289.27" y2="44.26" gradientUnits="userSpaceOnUse"><stop offset="0" stop-color="#ba8e3e"/><stop offset="0.07" stop-color="#c49f4c"/><stop offset="0.2" stop-color="#dfca6f"/><stop offset="0.21" stop-color="#e2cf73"/><stop offset="0.47" stop-color="#c09756"/><stop offset="0.71" stop-color="#e2cf73"/><stop offset="0.91" stop-color="#d3ab5a"/></linearGradient></defs><path class="cls-1" d="M468.89,110.17c.61-1.76,1.13-3.27,1.66-4.77A46.33,46.33,0,0,1,478.82,91a41.91,41.91,0,0,1,9-8.06,45.62,45.62,0,0,1,10.77-5.16c9.06-3.06,18.41-3.11,27.8-2.8A71.62,71.62,0,0,1,538,76.21c4.21.85,8.5,1.12,12.72,1.86,1.37.25,1.72.53,1.62,2-.18,2.42-.52,4.83-.65,7.26-.24,4.3,0,8.62-.39,12.91-.07.84.05,2.06-1.15,2s-.95-1.23-1-2.08c-.23-4.37-1.12-8.5-4-12a16.68,16.68,0,0,0-6.06-4.3,45.63,45.63,0,0,0-10.82-3.31,60.21,60.21,0,0,0-14.49-.73,47,47,0,0,0-10.42,1.63,30.19,30.19,0,0,0-11.84,6,33.71,33.71,0,0,0-9.28,12.85,49.4,49.4,0,0,0-2.64,9.32c-.47,2.49-.44,5.07-.67,7.61a47.58,47.58,0,0,0,.6,12.39A44.85,44.85,0,0,0,483,140.79,47.18,47.18,0,0,0,492,154a43.29,43.29,0,0,0,16.28,10.53,48.49,48.49,0,0,0,18.52,2.63,45.53,45.53,0,0,0,8.67-.89c5.11-1.17,9.73-3.33,12.28-8.3a23.45,23.45,0,0,0,2.2-6.09,7.33,7.33,0,0,1,.76-2.7c.6-.93,1.21-.85,1.74.13a2.58,2.58,0,0,1,.19,1.74c-.73,4.52-1.19,9.08-2.3,13.53-.36,1.45-.41,3-1.54,4.25-1.38,1.45-3.24,1.9-5.05,2.33A86.63,86.63,0,0,1,529.85,173a109,109,0,0,1-15.86-.28,58.8,58.8,0,0,1-12.36-2.37,48.46,48.46,0,0,1-15.48-7.68,43.49,43.49,0,0,1-14.43-17.93,42,42,0,0,1-2.87-8.88c0-.21,0-.55-.33-.5s-.28.35-.33.57a50.41,50.41,0,0,1-5.25,13,46.93,46.93,0,0,1-30.37,22.71A56.9,56.9,0,0,1,406,171.5a6.61,6.61,0,0,0-1.66-.13h-13.9a56.13,56.13,0,0,1-9.43-.55,26.34,26.34,0,0,1-12.6-5.69c-5.57-4.58-9.84-10.31-14.17-16-3.75-4.94-7.57-9.83-11.28-14.81-4.6-6.19-9.11-12.45-13.64-18.69a3.23,3.23,0,0,0-2.81-1.47c-2.08,0-4.15,0-6.23,0-4.91,0-9.81-.15-14.71-.34-1.71-.06-1.87.14-1.87,1.79q0,20.53,0,41.07c0,6.91,0,13.81.11,20.71.15,7.13.17,14.28.75,21.39A13.79,13.79,0,0,0,306,204c1.24,2.37,3.41,3.21,5.86,3.5a46.27,46.27,0,0,0,7.62.63,1.21,1.21,0,0,1,1.38.88,1,1,0,0,1-.5,1.33,4.77,4.77,0,0,1-1.8.54c-3.74,0-7.48,0-11.23-.28-3.38-.22-6.78-.19-10.18-.19s-6.87,0-10.29.19c-2.71.16-5.41.27-8.12.29a4.74,4.74,0,0,1-1.74-.35,1.14,1.14,0,0,1-.81-1.4,1.17,1.17,0,0,1,1.28-1,32.17,32.17,0,0,0,4.37-.43c3.44-.49,4.82-2.5,5.56-5.76,1.18-5.15,1.2-10.42,1.27-15.67.1-7.18.14-14.36.22-21.54.35-35.12.13-70.24.16-105.36,0-3.83-.2-7.65-.45-11.46-.19-2.79-.84-5.56-3.54-7.2a14,14,0,0,0-5.55-1.78c-1.42-.18-2.86-.23-4.29-.3-.83,0-1.64-.1-1.8-1.11-.12-.7.8-1.44,1.86-1.45,3.24,0,6.48-.07,9.71.06,7.09.28,14.19.48,21.29.14,6.26-.29,12.53-.37,18.79-.09a59.73,59.73,0,0,1,13.08,1.93c5.23,1.43,10.17,3.54,14.26,7.15a32,32,0,0,1,8.41,11.91c2.54,6.14,2.74,12.44,1.58,18.86a47.55,47.55,0,0,1-6.6,16.73A84.52,84.52,0,0,1,344.22,107c-.68.7-1.43,1.33-2.16,2-.43.4-.56.7-.1,1.28,3,3.8,6,7.66,9,11.47,4,5,8,10.06,12,15.11,4.88,6.16,9.94,12.18,15.24,18l.09.08c.52.3.8,1.45,1.52.85a1.72,1.72,0,0,0,.17-2.38,42.13,42.13,0,0,1-4.41-8,73.34,73.34,0,0,1-3.08-9.66c-1.34-5.35-1.25-10.75-1.06-16.16a41.33,41.33,0,0,1,2.31-11,50.42,50.42,0,0,1,5.78-12.21,47.09,47.09,0,0,1,8.85-10.25,46.6,46.6,0,0,1,14.3-8.35c7.77-2.9,15.83-3.25,23.95-2.72a50.94,50.94,0,0,1,27.91,11.08,42.15,42.15,0,0,1,10.66,13.55,40.57,40.57,0,0,1,3.3,9.12C468.53,109.15,468.69,109.54,468.89,110.17Zm-11.21,15.35a54.28,54.28,0,0,0-4.16-22.81A38.85,38.85,0,0,0,439.23,85a34.08,34.08,0,0,0-10.8-4.79,36.35,36.35,0,0,0-10.52-1,38.71,38.71,0,0,0-15.61,3.85,30.3,30.3,0,0,0-10.23,8.18,37.31,37.31,0,0,0-6.69,13.11,56.42,56.42,0,0,0-2.17,14.41,60.15,60.15,0,0,0,1,12.69,63.66,63.66,0,0,0,1.42,6.47,49.18,49.18,0,0,0,4,9.66,41.52,41.52,0,0,0,9.81,12.12,37.2,37.2,0,0,0,8.37,5.23,35.33,35.33,0,0,0,10.61,3,34.54,34.54,0,0,0,10.92-.29,34,34,0,0,0,9.52-3.24,31.51,31.51,0,0,0,12.11-11.27,43.15,43.15,0,0,0,5.52-14A56.85,56.85,0,0,0,457.68,125.52Zm-154-51.35c0,9.69,0,19.39,0,29.08a2.6,2.6,0,0,0,1.74,2.65,16.44,16.44,0,0,0,2.25.74,63.45,63.45,0,0,0,18.87,1.66,19.84,19.84,0,0,0,10.6-3.43,21.18,21.18,0,0,0,6.6-8,42.77,42.77,0,0,0,4.09-17.32,54.26,54.26,0,0,0-.32-7.85,40.83,40.83,0,0,0-3.85-14.22,27,27,0,0,0-9.24-10.72,27.8,27.8,0,0,0-13.66-4.72,59.87,59.87,0,0,0-14.28.49c-2.08.34-2.82.69-2.81,3.13C303.75,55.18,303.71,64.68,303.71,74.17Z" transform="translate(-13.28 -11.72)"/><path class="cls-1" d="M842.7,104.64c0-21.13,0-36.06,0-51,0-3.16,0-6.36-1-9.44-.88-2.53-2.69-3.82-5.15-4.61a28.29,28.29,0,0,0-7.52-1c-.79,0-1.56-.06-1.58-1.14s.73-1.39,1.56-1.4c3.24,0,6.48-.12,9.7,0,8.62.41,17.23.3,25.85,0a130.18,130.18,0,0,1,18.42.36,54.54,54.54,0,0,1,12.86,2.81,30.69,30.69,0,0,1,15.43,11.56,33.4,33.4,0,0,1,4.5,9.47A34.49,34.49,0,0,1,916.14,76a47.49,47.49,0,0,1-7.78,18.67A85.67,85.67,0,0,1,896,108.91c-.65.61-.58,1-.14,1.54a86.69,86.69,0,0,1,7.29,11.8c2.92,5.54,5.57,11.21,8,17,1.94,4.48,3.88,9,5.69,13.5,1.61,4.06,3.5,8,5.12,12.07,2,5.08,4.3,10.05,6.62,15A49.36,49.36,0,0,0,937.94,193,104.74,104.74,0,0,0,948.42,203a31.59,31.59,0,0,0,6.93,3.75,21.65,21.65,0,0,0,5.72,2,1.12,1.12,0,0,1,1,1.16,1.1,1.1,0,0,1-.87,1.12,7.05,7.05,0,0,1-2.24.31c-5.23,0-10.46,0-15.69,0a22.71,22.71,0,0,1-12.83-4.05c-2.36-1.61-5-2.8-7.19-4.72A41.7,41.7,0,0,1,915,191.8c-2.43-4.17-4.54-8.51-6.61-12.86-1.71-3.58-3.12-7.29-4.55-11-1.28-3.29-2.61-6.56-3.86-9.87-1.32-3.47-2.54-7-3.83-10.45-.8-2.14-1.64-4.27-2.47-6.41Q891.5,135.6,889.3,130c-1.4-3.57-2.78-7.16-4.38-10.65a30.65,30.65,0,0,0-1.79-3.58,2.8,2.8,0,0,0-2.47-1.53c-2.56,0-5.11-.06-7.67-.09-3.47,0-7,0-10.42-.16-1.14,0-2.29-.19-3.45-.17-1.44,0-1.76.3-1.75,1.77,0,5.5.06,11,0,16.52,0,6.42-.07,12.85.3,19.26.23,4,.23,8,1.48,11.81a6.7,6.7,0,0,0,6,4.89,66.13,66.13,0,0,0,8.31.75.94.94,0,0,1,1.07.87c.08.57,0,1.1-.6,1.41a4.18,4.18,0,0,1-1.87.3c-6-.06-12.06,0-18.07-.28-5.44-.28-10.84.29-16.25.28-6.51,0-13,.13-19.53-.09-2.75-.09-5.5-.09-8.26-.13a2.08,2.08,0,0,1-.71,0c-.53-.19-1.33,0-1.51-.73s.56-.89,1-1.22c1.15-.81.86-2,.51-3-1.45-4-3-8-4.56-12-1.84-4.91-3.64-9.85-5.48-14.76-.46-1.24-1.08-2.41-1.47-3.67a1.6,1.6,0,0,0-1.78-1.19H770.92c-2,0-2.15.18-2.74,2-.82,2.56-1.77,5.08-2.62,7.63s-1.76,5.4-2.66,8.1c-.83,2.47-1.76,4.91-2.52,7.4a31.56,31.56,0,0,0-1.09,5.37c-.36,2.88,1.58,4.32,4.19,4.54.63,0,1.28,0,1.91,0s1.11.13,1.11.79-.52.82-1.07.9a22.52,22.52,0,0,1-4.42.07c-5-.29-10-.11-15,0-4.7.1-9.42,0-14.12-.11-5.87-.17-11.73.13-17.6.15a11.32,11.32,0,0,1-1.43-.07c-.56-.06-1-.31-1-1s.51-.73,1-.78a26.9,26.9,0,0,0,4-.64c1.67-.42,2.24-1.65,2.66-3a35.53,35.53,0,0,0,1-7.19c.29-2.94.22-5.89.22-8.84q0-33,0-66.09c0-1.89.15-1.64-1.69-1.63-5.67,0-11.34,0-17,.2-2.8.09-5.62,0-8.37.93s-4.08,3-5.4,5.29a16.6,16.6,0,0,1-1.1,2.29c-.31.39-.63.67-1.06.53a1,1,0,0,1-.66-1.13c.28-1.63.56-3.27.9-4.88.45-2.13,1-4.23,1.44-6.35a26.72,26.72,0,0,1,1-3.28,1.19,1.19,0,0,1,1.79-.77c2.46,1.35,5.17,1.42,7.83,1.54,18.87.8,37.76.19,56.64.33a29.82,29.82,0,0,0,8.33-1.12c1.37-.4,1.88,0,1.85,1.4-.11,4.7-.25,9.41-.39,14.11,0,.64-.09,1.4-.93,1.42s-1-.66-1.05-1.41a9.88,9.88,0,0,0-.73-4,6.64,6.64,0,0,0-4.26-3.47,28.21,28.21,0,0,0-8.05-1.38c-5.63-.27-11.26-.05-16.88-.31-1.06-.05-1.33.29-1.32,1.34,0,21.63,0,43.26,0,64.89,0,4.38.12,8.76.41,13.14.15,2.34,1.52,2.93,3.19,3.64a17,17,0,0,0,8.63,1.18,18.06,18.06,0,0,0,5.91-1.92c1.06-.53,1.42-1.74,1.87-2.77,2.1-4.74,3.64-9.68,5.47-14.51,1.49-4,3-7.9,4.43-11.87,1.81-5,3.52-10,5.38-15,2.12-5.65,4.19-11.31,6.28-17q2.78-7.5,5.45-15c1.36-3.83,2.83-7.61,4.26-11.41a8.73,8.73,0,0,1,.68-1.37,1.18,1.18,0,0,1,2.11-.09,15.46,15.46,0,0,1,1.8,3.89c1.36,3.34,2.64,6.72,3.93,10.09,1.42,3.72,2.79,7.47,4.22,11.19,1.15,3,2.36,6,3.52,9,1.25,3.24,2.45,6.5,3.71,9.74,1.88,4.84,3.8,9.66,5.63,14.51,2.17,5.75,4.55,11.42,6.6,17.21a27.89,27.89,0,0,0,7.32,11.13,12.85,12.85,0,0,0,7,3.65c2.77.39,5.08-.8,7.12-2.55a21,21,0,0,0,5.37-7.32c.75-1.64.38-3.46.45-5.19C843.13,133.31,842.53,115.87,842.7,104.64Zm14.66-30.36q0,14.25,0,28.49c0,1.83.58,2.73,2,3.2a32.8,32.8,0,0,0,5.87,1.49c6.22.82,12.44,1.56,18.69.32a18.11,18.11,0,0,0,12.29-8.71,31.81,31.81,0,0,0,3.67-8.48,36.47,36.47,0,0,0,1.48-7.67c.33-6.38.36-12.75-1.54-19a38.62,38.62,0,0,0-4-9.08,26,26,0,0,0-11.54-10.22,27.09,27.09,0,0,0-9.81-2.56,62.21,62.21,0,0,0-14.17.49c-2.82.48-3,1-3,3.36Q857.37,60.09,857.36,74.28ZM783.2,129.8H794c1.56,0,1.73-.28,1.2-1.76-1.49-4.12-3-8.23-4.44-12.38-1.08-3.13-2.22-6.23-3.24-9.38-.72-2.23-1.61-4.41-2.35-6.64-.53-1.61-1.19-3.17-1.71-4.79-.11-.35-.28-.81-.77-.8s-.55.46-.64.76c-.32,1-.68,2-1,3-1.81,5.62-3.74,11.2-5.59,16.81-1.48,4.51-2.92,9-4.37,13.56-.49,1.52-.43,1.6,1.24,1.6Z" transform="translate(-13.28 -11.72)"/><path class="cls-1" d="M574.7,136c0,3.56-.19,7.12,0,10.66.34,5.2,0,10.43.62,15.62a14.16,14.16,0,0,0,.93,4c.86,2,2.72,2.56,4.66,2.84,1.46.21,2.94.26,4.41.4.62.06,1.36.07,1.4.92,0,1-.83.86-1.38.86-4.2,0-8.39,0-12.57-.14-5.08-.17-10.14.22-15.21.17a11.73,11.73,0,0,1-1.19,0c-.46,0-.86-.18-.86-.78a.89.89,0,0,1,.85-1c.87-.11,1.75-.14,2.62-.28,2.63-.41,3.66-1.46,4.3-4.11a40.25,40.25,0,0,0,.95-8.53c.53-21.94.11-43.89.24-65.83a37.62,37.62,0,0,0-.56-7.26c-.39-2-1.27-3.86-3.46-4.53a15.55,15.55,0,0,0-4.61-.57c-.76,0-1.76,0-1.78-.89s1-1,1.81-1c4.07,0,8.14.19,12.2.32,4.39.14,8.77-.45,13.16-.32.32,0,.64,0,1,0,.76,0,1.51.22,1.55,1s-.78.89-1.43,1c-1.18.16-2.37.13-3.55.4a4.19,4.19,0,0,0-3,2.79c-1,2.2-.66,4.55-.78,6.84-.54,10.2-.18,20.4-.28,30.6,0,.38-.22.91.19,1.11s.65-.34.92-.6c3.24-3.13,6.3-6.44,9.4-9.7,2.94-3.09,5.94-6.12,8.9-9.19,3.62-3.74,7.24-7.47,10.83-11.25a55.59,55.59,0,0,0,5-5.72,5,5,0,0,0,1.13-2.42,2.51,2.51,0,0,0-1.55-2.78c-.55-.26-1.17-.5-1-1.25s.91-.72,1.55-.76c2.72-.17,5.4.46,8.12.36,4.38-.17,8.77-.25,13.15-.36a5.55,5.55,0,0,1,1.08,0,1,1,0,0,1,.93.92c0,.56-.4.75-.83.88a22.32,22.32,0,0,1-2.93.46A21.33,21.33,0,0,0,619.08,84c-3.51,2.92-6.73,6.15-10,9.33q-9.21,9-18.41,18c-2.09,2.06-4.08,4.23-6.11,6.36-.46.48-.26.87.16,1.31,3.29,3.44,6.52,6.92,9.83,10.34q6.13,6.36,12.36,12.63c4.33,4.39,8.63,8.81,13.14,13,1.86,1.74,3.62,3.58,5.51,5.26a14.11,14.11,0,0,0,5.58,3.08c.74.21,1.2-.33,1.6-.8a17.57,17.57,0,0,0,2.81-5.13,19.1,19.1,0,0,0,1.42-6.8c0-1.07.69-1.33,1.61-.78a2.24,2.24,0,0,1,1.17,2.08c-.23,4.29,2.19,7.54,4.19,11,1.69,2.88,4.42,4,7.48,4.7a24.88,24.88,0,0,0,9.94.4,15.94,15.94,0,0,0,12.35-8.88,17.79,17.79,0,0,0,1-13.18c-1.3-4.71-4.4-8.18-7.79-11.47-4.94-4.79-10.63-8.72-15.65-13.41-3.78-3.54-7.3-7.3-9.6-12a25.52,25.52,0,0,1-2.41-15,21,21,0,0,1,4.66-10.85,23.13,23.13,0,0,1,9.84-6.69c5.58-2.09,11.38-1.89,17.15-1.55a39,39,0,0,1,7.82,1.4,14.91,14.91,0,0,0,2.61.21c.76.06,1.23.34,1.18,1.27-.27,4.85-.64,9.7-.59,14.56,0,.65-.08,1.27-.81,1.37s-1-.52-1.07-1.13a31.9,31.9,0,0,0-1.22-5.58c-1.23-3.25-3.81-5.12-6.91-6.28a23.59,23.59,0,0,0-13.22-1.06c-5.32,1.1-9.14,4.24-10.68,9.46-1.7,5.75-.38,11,3.62,15.59s8.7,8.09,13.37,11.77c5.44,4.28,10.73,8.69,14.74,14.44a27.09,27.09,0,0,1,4.71,17.74,25.62,25.62,0,0,1-3.85,12A23.92,23.92,0,0,1,670.25,170a31.27,31.27,0,0,1-8.66,2.68,43.9,43.9,0,0,1-10.38.38,51.48,51.48,0,0,1-9.13-1.59,5.57,5.57,0,0,0-1.42-.1c-3.71-.05-7.42,0-11.13-.13a22,22,0,0,1-12.67-4.9,119.27,119.27,0,0,1-11.4-10.5c-6.89-6.93-13.55-14.09-20.12-21.32-3.26-3.58-6.37-7.29-9.57-10.93-.24-.27-.42-.82-.88-.65s-.19.64-.19,1Q574.69,130,574.7,136Z" transform="translate(-13.28 -11.72)"/><path class="cls-1" d="M607.45,232.66H885.06c.48,0,1,0,1.43,0,.8,0,1.15.4,1.22,1.14,0,.08,0,.16,0,.24.14,2.84,0,3-2.81,3H330.06c-2.77,0-3.3-.65-2.81-3.46a.93.93,0,0,1,1-.9c.52,0,1,0,1.56,0Z" transform="translate(-13.28 -11.72)"/><path class="cls-1" d="M739.1,227.83H734a2,2,0,0,1-.82-.06.89.89,0,0,1-.47-.59c0-.23.33-.31.54-.35a3.81,3.81,0,0,1,.95-.07,4.24,4.24,0,0,0,4-2.75c1.35-3,2.48-6.09,3.7-9.14s2.53-6.35,3.8-9.52c1.47-3.68,2.89-7.37,4.43-11a25,25,0,0,1,2.17-4.77c.54-.78.92-.57,1.31.07a45.15,45.15,0,0,1,2.83,6.5c1.72,4.12,3.33,8.27,5,12.41,1.31,3.26,2.57,6.54,3.93,9.77,1,2.44,1.84,5,3.55,7.07,1,1.19,2.26,1.31,3.61,1.39.36,0,1-.13,1,.38s-.56.67-1.06.67c-3.48,0-6.95,0-10.42-.05a4,4,0,0,1-1-.23c-.55-.15-.75-.44-.11-.73.88-.4.78-.94.48-1.7-1.25-3.21-2.45-6.43-3.63-9.66-.21-.57-.61-.58-1-.58-3.39,0-6.79,0-10.18,0a1,1,0,0,0-1.13.81c-.94,2.6-2,5.17-2.9,7.78a7.82,7.82,0,0,0-.21,1.89,1.24,1.24,0,0,0,1.18,1.38c.39.07.8,0,1.19.08s.93-.11.9.49-.47.56-.91.55c-1.59,0-3.19,0-4.79-.05h-.72Zm12.48-15.62h1.92c2.8,0,2.8,0,1.89-2.61,0-.11,0-.23-.09-.34l-3.3-9c-.08-.22-.07-.5-.39-.52s-.32.36-.41.59c-.48,1.29-.91,2.61-1.45,3.87-.92,2.14-1.56,4.38-2.53,6.49-.59,1.31-.4,1.5,1,1.5Z" transform="translate(-13.28 -11.72)"/><path class="cls-1" d="M457.69,227.84h-5a2.86,2.86,0,0,1-.93-.09.77.77,0,0,1-.44-.51c0-.29.29-.33.5-.4a2,2,0,0,1,.6-.05c2.54.11,3.93-1.42,4.79-3.51q4.1-9.95,8.05-20c1.73-4.4,3.43-8.82,5.32-13.16.2-.47.37-1.06,1-1s.81.55,1,1c1.3,3.13,2.61,6.25,3.89,9.39,1.94,4.76,3.93,9.5,5.77,14.3C483.4,216.9,484.6,220,486,223c1,2.17,2.39,4,5.21,3.82.37,0,1-.07,1,.37s-.57.67-1.08.67l-10.66-.06a2.29,2.29,0,0,1-.81-.16c-.52-.19-.8-.51-.12-.83s.76-.81.52-1.45q-1.8-4.8-3.59-9.61a1.17,1.17,0,0,0-1.25-.86c-3.35,0-6.7,0-10.06,0a1,1,0,0,0-1.12.79c-1,2.8-2.15,5.52-3,8.36-.57,1.84,0,2.69,1.94,2.77a3.85,3.85,0,0,1,.48,0c.3,0,.74,0,.75.4s-.38.64-.83.64l-2.51,0-2.4,0h-.72Zm12.77-28.16a.9.9,0,0,0-.65.69c-1.38,3.65-2.73,7.31-4.12,11-.3.8.11.87.73.87,2.52,0,5,0,7.55,0,.74,0,1-.15.71-1C473.26,207.41,471.87,203.56,470.46,199.68Z" transform="translate(-13.28 -11.72)"/><path class="cls-1" d="M398.69,228.58A28.47,28.47,0,0,1,386,226.22a17.62,17.62,0,0,1-9.8-10.59,20,20,0,0,1,.37-14.69A17,17,0,0,1,387,191.05a30.94,30.94,0,0,1,13.52-1.37c2.66.27,5.3.64,8,1,.66.08,1.31.27,1.18,1.14a70.94,70.94,0,0,0-.26,7.29,1.63,1.63,0,0,1,0,.59c-.17.38-.23,1-.67,1-.61,0-.42-.64-.48-1-.46-3.49-2.08-5.63-6.16-6.86a19.79,19.79,0,0,0-10-.44,11,11,0,0,0-7.72,5.91,21,21,0,0,0-1.81,12.84,16.72,16.72,0,0,0,5.06,10.09,15.79,15.79,0,0,0,13.67,4.3c2.55-.34,4.77-1.1,6.25-3.34a5.77,5.77,0,0,0,1.12-2.67c0-.41.26-.84.69-.84s.6.49.53.91c-.29,2-.59,4-.93,6-.26,1.48-1.38,2.06-2.72,2.34A32,32,0,0,1,398.69,228.58Z" transform="translate(-13.28 -11.72)"/><path class="cls-1" d="M543.21,209.2c0,5-.05,9.89.24,14.84a2.44,2.44,0,0,0,2.55,2.63c.68.06,1.36.08,2,.16.22,0,.53,0,.59.31s-.29.5-.49.6a2.13,2.13,0,0,1-.92.09H534.27a3.7,3.7,0,0,1-.94-.09.58.58,0,0,1-.44-.51c0-.32.29-.33.51-.4l.12,0c2.91-.6,3.35-1,3.38-3.95.07-9.57.06-19.15,0-28.73,0-1.77-.77-2.51-2.49-2.68a5.59,5.59,0,0,1-1.77-.27c-.24-.1-.61-.07-.54-.48s.37-.39.65-.41l.72,0c4.87,0,9.74,0,14.61,0a13.38,13.38,0,0,1,7.31,1.89c3.09,2,4.28,6.06,3.67,9.31a11.29,11.29,0,0,1-6.85,8.58,12.7,12.7,0,0,1-5.94,1c-.37,0-.93,0-.89-.53s.52-.54,1-.54c3.88.05,6.75-4.17,6.91-7.59s-.53-6.32-3.34-8.46a7.72,7.72,0,0,0-6-1.27c-.9.12-.72.93-.72,1.53q0,6.75,0,13.52Z" transform="translate(-13.28 -11.72)"/><path class="cls-1" d="M684,208.38c0,4.31,0,8.62,0,12.93a26.92,26.92,0,0,0,.3,3.09c.21,1.69.7,2.13,2.43,2.28.68,0,1.36.08,2,.14.27,0,.63.05.6.43a.72.72,0,0,1-.57.55,3.27,3.27,0,0,1-.83,0H674.78a2.61,2.61,0,0,1-.93-.11.8.8,0,0,1-.41-.52c0-.31.3-.31.52-.37a1.48,1.48,0,0,1,.47-.05c2.17.08,2.82-.81,3-3.09.49-7.7.18-15.4.26-23.1,0-2.11,0-4.23,0-6.34,0-.78-.17-1.19-1.07-1.15-2.91.13-5.82.07-8.73.3a3.39,3.39,0,0,0-3,2.32c-.07.15,0,.36-.13.46-.25.26-.3.86-.83.69s-.27-.6-.28-.94c0-1.85.62-3.59.89-5.4.1-.66.38-1.19,1.47-.82a13.75,13.75,0,0,0,4.26.5c7.71,0,15.41,0,23.12,0a10.1,10.1,0,0,0,2.73-.28c.76-.22,1.22,0,1.19.91-.06,1.84-.07,3.67-.11,5.51,0,.44-.08,1-.56,1s-.53-.56-.56-1a3.34,3.34,0,0,0-3-2.94,83.57,83.57,0,0,0-8.37-.37c-.94,0-.74.65-.74,1.16q0,7.06,0,14.12Z" transform="translate(-13.28 -11.72)"/><path class="cls-1" d="M826.18,227.85H815.64a7.85,7.85,0,0,1-.84,0,.67.67,0,0,1-.55-.56c0-.38.29-.42.58-.44s.71,0,1.07-.06c1.49-.07,2-.5,2.13-2a42.18,42.18,0,0,0,.37-4.89q0-12,0-24.06a10.88,10.88,0,0,0-.27-2.72,1.93,1.93,0,0,0-1.78-1.61c-.63-.08-1.27-.14-1.9-.26-.29-.05-.7-.13-.63-.55s.42-.42.76-.43H828.1l.72,0c.25,0,.46.1.5.4s-.18.36-.4.48a4.73,4.73,0,0,1-2,.29,1.92,1.92,0,0,0-2,1.91,19.38,19.38,0,0,0-.24,2.38c0,8.06-.21,16.12.09,24.18,0,.83.11,1.67.22,2.5a2.76,2.76,0,0,0,2.7,2.64,30.14,30.14,0,0,0,7.29.05,4.2,4.2,0,0,0,3.71-3.8c.06-.47,0-1,.69-1s.49.64.45,1c-.21,1.74-.4,3.48-.7,5.21-.21,1.22-1.15,1.56-2.29,1.58C833.27,228.25,829.73,228.05,826.18,227.85Z" transform="translate(-13.28 -11.72)"/><path class="cls-1" d="M613.15,227.83h-6.82c-.51,0-1.08,0-1.07-.63s.6-.39,1-.43c2.51-.24,2.63-.4,2.92-2.93a61.75,61.75,0,0,0,.26-6.93q0-10.29,0-20.58a19.23,19.23,0,0,0-.09-2.15c-.21-2.16-.61-2.54-2.74-2.79-.56-.06-1.44,0-1.41-.69s.9-.44,1.43-.44h11.73l.72,0c.33,0,.7.07.75.44s-.43.36-.66.53a2.3,2.3,0,0,1-1.29.21,1.9,1.9,0,0,0-1.94,1.86,23.37,23.37,0,0,0-.27,3.45c0,8.46-.15,16.91.12,25.37,0,.79.1,1.59.19,2.38a2.18,2.18,0,0,0,2.15,2.12c.64.07,1.28.07,1.91.14.4.05,1.06-.13,1.07.45s-.58.62-1.09.61c-1.44,0-2.88,0-4.31,0h-2.52Z" transform="translate(-13.28 -11.72)"/><polyline class="cls-2" points="0.41 0.5 251.05 0.5 251.05 251.16 0.41 251.16"/><path class="cls-1" d="M263.17,247.71a4.83,4.83,0,0,1,.19-1.28v-13A4.84,4.84,0,0,1,264,231a56.16,56.16,0,0,1-.59-6.61,5.4,5.4,0,0,1,.22-1.65L241.35,191.1l.37,16.37H237.1V219.1l-7.3-.09v-2.79l-7.48-.1v-6h-2.4V195.75l-1.2.09v-1.58h-5.45v-1.49h-5.63v1.77h-1v1.21l-2.22.09v26.52h-2.86V208h-4v-43l-32.14-.56v53.77l-1.94-.09v3.07h-3V126.91h-18.1v2.14h-2.86v91l-2.49-.09v-4.65l-3.51.09V203.1h-3.7V174.82h-3.23V172h-1.85V150.35h-1.2V172H113v2.88h-4.89v30.42l-1.85.09v1.87h-1.11v7.9H99.3V220H97.45v1.12h-3V198.08L85.91,195l-3,3.63v20.19h-4v-7.35l-4.06-2.6-39.69,54.4,141.7-45.81,33,45.81h53.07l.64-8.33a4.59,4.59,0,0,1-.35-1.75Z" transform="translate(-13.28 -11.72)"/><polygon class="cls-3" points="204.07 1.63 165.34 54.85 21.86 9.36 110.75 129.71 21.86 251.16 0.41 251.16 0.41 1.63 204.07 1.63"/><polygon class="cls-3" points="163.89 205.61 197.66 251.16 21.86 251.16 163.89 205.61"/><path class="cls-4" d="M264,212.42a63.72,63.72,0,0,1-.68-8.41,5.12,5.12,0,0,1,.41-2.11c0-.08,0-.16,0-.24-.09-10.41.15-20.72.28-31.12,0-1.95,0-3.91.12-5.85l-.83-146.36L217.45,78.89l-89.36-28L185,124.38l-46.4,69.92,78.89-27.56,46.32,57.58c0-.1,0-.21,0-.32C263.78,220.14,263.92,216.28,264,212.42Z" transform="translate(-13.28 -11.72)"/><rect class="cls-5" x="0.41" y="1.63" width="249.53" height="249.53"/><rect class="cls-6" x="0.5" y="1.03" width="249.82" height="250.33"/></svg>