<?xml version="1.0" encoding="UTF-8"?>
<svg viewBox="0 0 400 290" version="1.1" xmlns="http://www.w3.org/2000/svg" xmlns:xlink="http://www.w3.org/1999/xlink">
    <!-- Generator: Sketch 54.1 (76490) - https://sketchapp.com -->
    <title>Social Logo_Square</title>
    <desc>Created with Sketch.</desc>
    <defs>
        <polygon id="path-1" points="0.06 0.723 400 0.723 400 220.795 0.06 220.795"></polygon>
    </defs>
    <g id="Social-Logo_Square" stroke="none" stroke-width="1" fill="none" fill-rule="evenodd">
        <g id="Group-3" transform="translate(0.000000, 17.000000)">
            <mask id="mask-2" fill="white">
                <use xlink:href="#path-1"></use>
            </mask>
            <g id="Clip-2"></g>
            <polygon id="Fill-1" fill="#005F70" mask="url(#mask-2)" points="0.06 220.795 400 220.795 400 0.723 0.06 0.723"></polygon>
        </g>
        <path d="M208.942316,100.487437 L180.666889,100.487437 L180.666889,93.8217327 L205.61097,93.8217327 L205.61097,75.1447606 L180.666889,75.1447606 L180.666889,68.9881105 L207.224622,68.9881105 L207.224622,49 L158.044747,49 L158.044747,120.476547 L208.942316,120.476547 L208.942316,100.487437 Z M290.839413,179.109738 L285.083087,161.442873 L279.22672,179.109738 L290.839413,179.109738 Z M225.303928,148.513508 L213.992357,162.145947 C212.641811,160.399763 210.963133,159.069622 208.942316,158.159526 C206.9235,157.25343 204.668589,156.795382 202.176582,156.795382 C200.155765,156.795382 198.273004,157.14942 196.522297,157.857494 C194.771589,158.564569 193.237969,159.588677 191.925439,160.93782 C190.614909,162.282962 189.586494,163.914134 188.845194,165.834337 C188.103894,167.749539 187.735746,169.886764 187.735746,172.241013 C187.735746,174.600262 188.122902,176.703484 188.896215,178.552679 C189.670528,180.407875 190.712949,182.002044 192.02648,183.346186 C193.342011,184.695328 194.870629,185.718436 196.622337,186.426511 C198.373045,187.134586 200.221792,187.487623 202.176582,187.487623 C204.936697,187.487623 207.309656,186.917563 209.297459,185.771442 C211.27926,184.629321 212.845893,183.279179 213.992357,181.733015 L225.303928,195.288447 L225.303928,148.513508 Z M139.465238,171.840971 C139.465238,169.551729 139.111095,167.447507 138.403809,165.527304 C137.696523,163.612102 136.706123,161.994931 135.426606,160.682793 C134.148089,159.371654 132.647483,158.348546 130.928788,157.602467 C129.217097,156.86639 127.347341,156.49335 125.327525,156.49335 C123.308709,156.49335 121.420946,156.86639 119.670238,157.602467 C117.919531,158.348546 116.423926,159.371654 115.177423,160.682793 C113.931919,161.994931 112.955525,163.612102 112.247239,165.527304 C111.543954,167.447507 111.189811,169.551729 111.189811,171.840971 C111.189811,174.194219 111.543954,176.350447 112.247239,178.298653 C112.955525,180.250859 113.931919,181.936037 115.177423,183.346186 C116.423926,184.760335 117.919531,185.855451 119.670238,186.629532 C121.420946,187.403614 123.308709,187.789655 125.327525,187.789655 C127.347341,187.789655 129.217097,187.403614 130.928788,186.629532 C132.647483,185.855451 134.148089,184.760335 135.426606,183.346186 C136.706123,181.936037 137.696523,180.250859 138.403809,178.298653 C139.111095,176.350447 139.465238,174.194219 139.465238,171.840971 Z M369,187.285602 L369,207.981787 L299.928086,207.981787 L296.191576,197.479678 L273.469393,197.479678 L269.934965,207.981787 L225.303928,207.981787 L225.303928,202.32819 C222.802917,204.216389 219.994783,205.83256 216.818499,207.122696 C212.104594,209.042899 206.753431,210 200.765011,210 C195.375833,210 190.312787,209.089904 185.564868,207.273712 C180.81795,205.45752 176.693283,202.881248 173.191868,199.550897 C169.690453,196.219545 166.934339,192.249126 164.914523,187.638639 C164.347294,186.342502 163.879105,184.992359 163.47194,183.612214 C163.07578,184.937354 162.621596,186.23349 162.083379,187.487623 C160.064563,192.200121 157.270434,196.219545 153.702992,199.550897 C150.13555,202.881248 145.925849,205.45752 141.079891,207.273712 C136.232932,209.089904 130.980809,210 125.328525,210 C119.670238,210 114.422117,209.089904 109.571157,207.273712 C104.725199,205.45752 100.534505,202.881248 97.0000767,199.550897 C93.7697713,196.507575 91.2067355,192.85919 89.2419414,188.662747 C88.854785,191.24502 88.1354943,193.61227 87.0050374,195.716492 C85.2883437,198.913829 83.032432,201.57011 80.2383028,203.692334 C77.445174,205.810558 74.2969017,207.390724 70.8004887,208.433835 C67.2990737,209.475945 63.731632,210 60.0941619,210 C57.2009927,210 54.3548425,209.744973 51.5617137,209.249921 C48.7675845,208.744867 46.0734958,208.00979 43.4834491,207.036687 C40.8924019,206.065585 38.4474139,204.928464 36.1584888,203.622327 C33.8695638,202.315189 31.8177346,200.862035 30,199.253865 L44.643918,183.346186 C46.3235969,185.167378 48.5645025,186.779548 51.3586317,188.195698 C54.1517604,189.605847 57.030924,190.313921 59.9941215,190.313921 C61.3386649,190.313921 62.566161,190.077896 63.6796109,189.605847 C64.7890593,189.134797 65.3452841,188.256704 65.3452841,186.973569 C65.3452841,186.303498 65.1572081,185.728437 64.7890593,185.256387 C64.4209105,184.785338 63.7646453,184.294286 62.8212641,183.790233 C61.8768824,183.285179 60.579358,182.72812 58.9326926,182.124057 C57.2810251,181.514992 55.2141898,180.807918 52.7221827,179.996832 C50.2972027,179.189747 47.9752643,178.227645 45.752366,177.113528 C43.5344697,176.006411 41.5626728,174.637266 39.8439782,173.020095 C38.1312861,171.401924 36.767735,169.46272 35.7573267,167.202481 C34.7479188,164.947243 34.2427146,162.234956 34.2427146,159.060621 C34.2427146,154.616152 35.1500813,150.837753 36.9698167,147.737426 C38.7875513,144.634098 41.1234953,142.090829 43.9876528,140.100619 C46.8478087,138.109409 50.0611073,136.680258 53.6325506,135.803166 C57.2009927,134.925073 60.7354211,134.487027 64.2368361,134.487027 C68.9457391,134.487027 73.7406769,135.397123 78.6246507,137.213314 C83.5046228,139.029506 87.798358,141.651783 91.4978531,145.087146 L76.5528134,160.329755 C74.9391613,158.309542 72.9533587,156.781381 70.5974066,155.739271 C68.2384533,154.697161 66.119597,154.173105 64.2368361,154.173105 C62.4811266,154.173105 61.0705565,154.423132 59.9941215,154.927185 C58.9136849,155.432238 58.3754674,156.258325 58.3754674,157.403446 C58.3754674,158.47956 58.9326926,159.286645 60.0411405,159.823702 C61.1555909,160.366759 62.9533174,161.03683 65.4443241,161.843915 C68.0023579,162.651 70.6974471,163.5931 73.5235892,164.669214 C76.3547333,165.750328 78.9597861,167.146475 81.3527532,168.862656 C83.0354332,170.069784 84.4339984,171.540939 85.7015106,173.135107 C85.687505,172.700061 85.6414864,172.281017 85.6414864,171.840971 C85.6414864,166.118367 86.6518947,160.951821 88.671711,156.342334 C90.6915273,151.733848 93.4666488,147.814434 97.0000767,144.582093 C100.534505,141.349751 104.725199,138.859488 109.571157,137.109303 C114.422117,135.364119 119.670238,134.487027 125.328525,134.487027 C130.980809,134.487027 136.232932,135.364119 141.079891,137.109303 C145.925849,138.859488 150.13555,141.349751 153.702992,144.582093 C157.270434,147.814434 160.064563,151.733848 162.083379,156.342334 C162.661613,157.663474 163.133803,159.041619 163.54697,160.451768 C163.936128,159.163632 164.38631,157.9105 164.914523,156.696372 C166.934339,152.049881 169.690453,148.082462 173.191868,144.785114 C176.693283,141.486766 180.81795,138.944497 185.564868,137.162309 C190.312787,135.378121 195.375833,134.487027 200.765011,134.487027 C206.281241,134.487027 211.50035,135.378121 216.418337,137.162309 C219.763689,138.375437 222.705878,139.903599 225.303928,141.695788 L225.303928,136.50524 L249.539723,136.50524 L249.539723,195.170434 L272.663067,136.50524 L298.211392,136.50524 L321.031615,195.021418 L321.031615,136.50524 L345.26941,136.50524 L345.26941,187.285602 L369,187.285602 Z M48.2773864,69.2901424 L30.7092866,69.2901424 L30.7092866,49 L111.090771,49 L111.090771,73.2285583 L130.683689,73.2285583 L130.683689,49 L154.816442,49 L154.816442,120.476547 L130.78373,120.476547 L130.78373,93.3166794 L111.194813,93.3166794 L111.194813,120.476547 L87.1560985,120.476547 L87.1560985,69.2901424 L72.3151008,69.2901424 L72.3151008,120.476547 L48.2773864,120.476547 L48.2773864,69.2901424 L48.2773864,69.2901424 Z" id="Fill-4" fill="#FFFFFE"></path>
        <polyline id="Fill-5" fill="#F2AF35" points="400 238 338 271 338 238 400 238"></polyline>
        <path d="M40.5820604,258.615821 C39.9385765,257.77019 38.7637309,257.221835 37.7877803,257.221835 C36.8108547,257.221835 35.5911602,257.564306 35.5911602,258.8438 C35.5911602,259.91741 36.5232369,260.259881 38.0090998,260.739942 C40.1384465,261.447983 42.8888528,262.385006 42.8888528,265.606841 C42.8888528,269.330832 39.9834254,271 36.878128,271 C34.6376341,271 32.3756906,270.154369 31,268.667986 L33.4842379,266.063803 C34.238869,267.046021 35.6360091,267.778165 36.878128,267.778165 C38.0315242,267.778165 39.0513487,267.321203 39.0513487,266.018609 C39.0513487,264.784309 37.8540786,264.39564 35.7910302,263.710699 C33.7952551,263.047853 31.7760806,261.997342 31.7760806,259.072783 C31.7760806,255.484374 34.9262268,254 37.8540786,254 C39.6285343,254 41.6243094,254.684941 43,255.987535 L40.5820604,258.615821" id="Fill-6" fill="#005F70"></path>
        <polyline id="Fill-7" fill="#005F70" points="55.4468478 258.298938 55.4468478 271 51.5541529 271 51.5541529 258.298938 47 258.298938 47 255 60 255 60 258.298938 55.4468478 258.298938"></polyline>
        <path d="M71.9645185,272 C67.6753077,272 65,269.286578 65,265.312031 L65,255 L68.9202028,255 L68.9202028,264.985187 C68.9202028,266.761245 69.7737871,268.398549 71.9878349,268.398549 C74.2241854,268.398549 75.0554671,266.761245 75.0554671,264.985187 L75.0554671,255 L79,255 L79,265.312031 C79,269.286578 76.2314265,272 71.9645185,272" id="Fill-8" fill="#005F70"></path>
        <path d="M90.7185131,258.298938 L88.7894002,258.298938 L88.7894002,267.655367 L90.6277431,267.655367 C93.3967283,267.655367 95.9612315,266.52592 95.9612315,262.955796 C95.9612315,259.36183 93.3967283,258.298938 90.7185131,258.298938 Z M90.9908232,271 L85,271 L85,255 L90.8092831,255 C95.3707275,255 100,256.898305 100,262.955796 C100,268.582169 95.4166113,271 90.9908232,271 L90.9908232,271 Z" id="Fill-9" fill="#005F70"></path>
        <polyline id="Fill-10" fill="#005F70" points="106 271 106 255 116.599662 255 116.599662 258.277084 109.674497 258.277084 109.674497 261.282983 116.220858 261.282983 116.220858 264.378283 109.674497 264.378283 109.674497 267.701062 117 267.701062 117 271 106 271"></polyline>
        <polyline id="Fill-11" fill="#005F70" points="133.481163 271 126.843161 260.536972 126.773546 260.536972 126.866708 271 123 271 123 255 127.542383 255 134.156839 265.441175 134.226454 265.441175 134.133292 255 138 255 138 271 133.481163 271"></polyline>
        <polyline id="Fill-12" fill="#005F70" points="151.447849 258.298938 151.447849 271 147.554153 271 147.554153 258.298938 143 258.298938 143 255 156 255 156 258.298938 151.447849 258.298938"></polyline>
        <path d="M178.582257,258.615821 C177.938825,257.77019 176.7631,257.221835 175.787229,257.221835 C174.811358,257.221835 173.591762,257.564306 173.591762,258.8438 C173.591762,259.91741 174.522788,260.259881 176.009505,260.739942 C178.138679,261.447983 180.889837,262.385006 180.889837,265.606841 C180.889837,269.330832 177.98367,271 174.878625,271 C172.638313,271 170.376554,270.154369 169,268.667986 L171.485011,266.063803 C172.239581,267.046021 173.636607,267.778165 174.878625,267.778165 C176.031928,267.778165 177.05167,267.321203 177.05167,266.018609 C177.05167,264.784309 175.854497,264.39564 173.791616,263.710699 C171.796003,263.047853 169.776992,261.997342 169.776992,259.072783 C169.776992,255.484374 172.926883,254 175.854497,254 C177.628808,254 179.625396,254.684941 181,255.987535 L178.582257,258.615821" id="Fill-13" fill="#005F70"></path>
        <path d="M192.497585,258.119141 L190.820905,258.119141 L190.820905,261.892904 L192.429811,261.892904 C193.859949,261.892904 195.178112,261.463774 195.178112,259.948904 C195.178112,258.413174 193.859949,258.119141 192.497585,258.119141 Z M192.720553,264.96635 L190.820905,264.96635 L190.820905,271 L187,271 L187,255 L192.809937,255 C196.27429,255 199,256.265537 199,259.92705 C199,263.632272 196.02873,264.96635 192.720553,264.96635 L192.720553,264.96635 Z" id="Fill-14" fill="#005F70"></path>
        <path d="M210.466438,259.271435 L208.444838,264.762712 L212.442632,264.762712 L210.466438,259.271435 Z M214.732726,271 L213.497852,267.859005 L207.345198,267.859005 L206.17646,271 L202,271 L208.668912,255 L212.397224,255 L219,271 L214.732726,271 L214.732726,271 Z" id="Fill-15" fill="#005F70"></path>
        <path d="M230.711558,271 C225.726633,271 222,267.536499 222,262.477464 C222,257.304248 225.841206,254 230.779899,254 C233.043216,254 235.490452,254.821304 236.840201,256.370765 L234.186935,259.013963 C233.455276,258.011371 232.152764,257.532611 230.917588,257.532611 C228.19598,257.532611 226.252261,259.629942 226.252261,262.477464 C226.252261,265.417133 228.150754,267.422318 230.849246,267.422318 C232.380905,267.422318 233.59196,266.738231 234.278392,265.781712 L237,268.333765 C235.58191,269.975373 233.432161,271 230.711558,271" id="Fill-16" fill="#005F70"></path>
        <polyline id="Fill-17" fill="#005F70" points="243 271 243 255 253.599662 255 253.599662 258.277084 246.674497 258.277084 246.674497 261.282983 253.220858 261.282983 253.220858 264.378283 246.674497 264.378283 246.674497 267.701062 254 267.701062 254 271 243 271"></polyline>
        <path d="M267.582257,258.615821 C266.938825,257.77019 265.7631,257.221835 264.787229,257.221835 C263.811358,257.221835 262.591762,257.564306 262.591762,258.8438 C262.591762,259.91741 263.522788,260.259881 265.009505,260.739942 C267.138679,261.447983 269.889837,262.385006 269.889837,265.606841 C269.889837,269.330832 266.98367,271 263.878625,271 C261.638313,271 259.376554,270.154369 258,268.667986 L260.485011,266.063803 C261.239581,267.046021 262.636607,267.778165 263.878625,267.778165 C265.031928,267.778165 266.05167,267.321203 266.05167,266.018609 C266.05167,264.784309 264.854497,264.39564 262.791616,263.710699 C260.796003,263.047853 258.776992,261.997342 258.776992,259.072783 C258.776992,255.484374 261.926883,254 264.854497,254 C266.628808,254 268.625396,254.684941 270,255.987535 L267.582257,258.615821" id="Fill-18" fill="#005F70"></path>
    </g>
</svg>