<svg xmlns="http://www.w3.org/2000/svg" viewBox="0 0 170.61 47.11"><title>Avanti Residential is a multifamily real estate company that owns and manages apartments throughout Colorado, Utah and Arizona.</title><defs><style>.cls-1{fill:#fff;}</style></defs><title>avanti-logo-white</title><g id="Layer_2" data-name="Layer 2"><g id="Content"><path class="cls-1" d="M91.36,30.19,77.76.49A.73.73,0,0,0,77,0h-.45a.8.8,0,0,0-.75.49L68.66,16,74,17l2.62-5.87h.13l8.74,19.37a1.27,1.27,0,0,0,1.28.89h3.84A.78.78,0,0,0,91.36,30.19Z"/><path class="cls-1" d="M30.63,1.59A.78.78,0,0,1,31.38.44h4.5a.83.83,0,0,1,.76.49l8.47,19h.31l8.47-19a.83.83,0,0,1,.75-.49h4.5a.78.78,0,0,1,.75,1.15L46.21,31.29a.78.78,0,0,1-.75.49H45a.78.78,0,0,1-.75-.49Z"/><path class="cls-1" d="M99.78.79a.83.83,0,0,1,.84-.79h1.11l18.36,19.51h0V1.28A.84.84,0,0,1,121,.44H125a.87.87,0,0,1,.84.84V31a.84.84,0,0,1-.84.8H124L105.52,11.52h0v19a.84.84,0,0,1-.84.84h-4a.87.87,0,0,1-.84-.84Z"/><path class="cls-1" d="M142.46,5.74H135.7a.84.84,0,0,1-.83-.84V1.28a.84.84,0,0,1,.83-.84H155a.84.84,0,0,1,.84.84V4.9a.84.84,0,0,1-.84.84h-6.75V30.5a.87.87,0,0,1-.84.84h-4.1a.87.87,0,0,1-.84-.84Z"/><rect class="cls-1" x="164.83" y="0.44" width="5.78" height="30.89" rx="0.84"/><path class="cls-1" d="M25,47l-4.6-3.46V47h-.59v-8.2h2.77c3,0,3.3,1.41,3.3,2.47,0,1.58-.93,2.38-3.21,2.38H21.33L26,47Zm-2.39-7.7H20.44V43.2h2.27c2.48,0,2.62-1,2.62-1.9S25.11,39.33,22.65,39.33Z"/><path class="cls-1" d="M33.64,47v-8.2h5.49v.5H34.22V42.6h4.52v.47H34.22v3.46h4.91V47Z"/><path class="cls-1" d="M49.93,47.11c-2.72,0-3.62-1.32-3.62-3h.58c0,1.34.7,2.5,3,2.5s2.79-1,2.79-1.84c0-2.47-6.06-.76-6.06-3.65,0-1.56,1.22-2.35,3.17-2.35s3.34.89,3.34,2.88h-.56c0-1.68-1.21-2.37-2.81-2.37s-2.58.58-2.58,1.82c0,2.34,6.08.76,6.08,3.64C53.27,45.82,52.59,47.11,49.93,47.11Z"/><path class="cls-1" d="M60.89,47v-8.2h.59V47Z"/><path class="cls-1" d="M72.31,47H69.4v-8.2h3c2.37,0,3.56,1.41,3.56,4.05S74.72,47,72.31,47Zm0-7.7H70v7.23h2.24c2.11,0,3.22-1.24,3.22-3.68S74.41,39.33,72.32,39.33Z"/><path class="cls-1" d="M83.65,47v-8.2h5.48v.5H84.22V42.6h4.53v.47H84.22v3.46h4.91V47Z"/><path class="cls-1" d="M103.2,47l-5.92-7.55V47H96.7v-8.2h.75l5.88,7.51V38.83h.58V47Z"/><path class="cls-1" d="M114.45,39.33V47h-.56v-7.7H111.1v-.5h6.13v.5Z"/><path class="cls-1" d="M124.43,47v-8.2H125V47Z"/><path class="cls-1" d="M139.36,47l-.82-1.88h-5L132.72,47h-.6l3.57-8.2h.75L140,47Zm-3.31-7.7-2.33,5.37h4.67Z"/><path class="cls-1" d="M147.1,47v-8.2h.57v7.73h3.78V47Z"/><path class="cls-1" d="M64.09,25.87l-2,4.32a.78.78,0,0,0,.75,1.15h3.84A1.33,1.33,0,0,0,68,30.45l2.81-6.29Z"/><polygon class="cls-1" points="64.75 24.44 67.52 18.52 79.7 20.61 64.75 24.44"/><path class="cls-1" d="M2.08,25.87l-2,4.32a.78.78,0,0,0,.75,1.15H4.68A1.33,1.33,0,0,0,6,30.45l2.81-6.29Z"/><path class="cls-1" d="M29.35,30.19,15.76.49A.75.75,0,0,0,15,0h-.44a.81.81,0,0,0-.76.49L6.65,16,12,17l2.62-5.87h.13l8.74,19.37a1.27,1.27,0,0,0,1.28.89H28.6A.78.78,0,0,0,29.35,30.19Z"/><polygon class="cls-1" points="2.74 24.44 5.51 18.52 17.69 20.61 2.74 24.44"/></g></g></svg>
