<?xml version="1.0" encoding="utf-8"?>
<!-- Generator: Adobe Illustrator 26.0.3, SVG Export Plug-In . SVG Version: 6.00 Build 0)  -->
<svg version="1.1" xmlns="http://www.w3.org/2000/svg" xmlns:xlink="http://www.w3.org/1999/xlink" x="0px" y="0px"
	 viewBox="0 0 236 90" style="enable-background:new 0 0 236 90;" xml:space="preserve">
<style type="text/css">
	.st0{fill:#0078AC;}
	.st1{fill:#FFFFFF;}
</style>
<symbol  id="Colors" viewBox="-117.8 -45 235.6 90">
	<g>
		<g>
			<g>
				<path class="st0" d="M-117.8,20.1h9.1v-6.4h0.2c1.1,2.2,2.5,4,4.4,5.4c1.9,1.4,4.1,2.1,6.7,2.1c0.4,0,0.8,0,1.2,0
					c0.4,0,0.8-0.1,1.1-0.2v-8.7c-0.6,0.2-1.2,0.3-1.6,0.3c-0.5,0.1-0.9,0.1-1.3,0.1c-2.2,0-3.9-0.4-5.2-1.2
					c-1.3-0.8-2.4-1.7-3.1-2.9c-0.7-1.1-1.2-2.2-1.5-3.4c-0.3-1.2-0.4-2.1-0.4-2.8V-18h-9.5V20.1z"/>
				<path class="st0" d="M-60.1,4.8c0,1.2-0.2,2.4-0.5,3.5c-0.3,1.1-0.9,2.1-1.6,2.9c-0.7,0.8-1.7,1.5-2.8,2c-1.1,0.5-2.5,0.8-4,0.8
					c-2.9,0-5.3-0.9-7.3-2.6c-2-1.7-3.1-3.9-3.3-6.6H-60.1z M-50.5,0.5v-1.3c0-0.4,0-0.8-0.1-1.3h-29c0.1-1.4,0.5-2.6,1.1-3.8
					c0.6-1.1,1.4-2.1,2.4-2.9c1-0.8,2.1-1.5,3.4-1.9c1.3-0.5,2.6-0.7,4-0.7c2.4,0,4.4,0.4,6,1.3c1.6,0.9,3,2.1,4.1,3.6l6.4-5.1
					c-3.8-5.1-9.2-7.6-16.4-7.6c-3,0-5.7,0.5-8.2,1.4c-2.5,0.9-4.6,2.2-6.5,3.9c-1.8,1.7-3.3,3.8-4.3,6.2c-1,2.5-1.5,5.3-1.5,8.4
					c0,3.1,0.5,5.9,1.5,8.4c1,2.5,2.4,4.7,4.2,6.4c1.8,1.8,3.9,3.1,6.4,4.1c2.5,1,5.1,1.5,8,1.5c2.6,0,5.1-0.4,7.3-1.3
					c2.3-0.9,4.2-2.2,5.8-3.9c1.6-1.7,2.9-3.9,3.9-6.4C-51,7-50.5,4-50.5,0.5"/>
			</g>
			<rect x="-38.7" y="-45" class="st0" width="3.3" height="90"/>
		</g>
		<g>
			<polygon class="st0" points="4.3,-18 -11.8,8.2 -12,8.2 -11.7,-18 -21.1,-18 -21.1,22 -10.1,22 6,-4.1 6.2,-4.1 5.9,22 15.3,22 
				15.3,-18 			"/>
			<polygon class="st0" points="26.4,-18 26.4,22 53.4,22 53.4,13.9 35.8,13.9 35.8,6.3 52.4,6.3 52.4,-1.5 35.8,-1.5 35.8,-9.8 
				54.4,-9.8 54.4,-18 			"/>
			<polygon class="st0" points="106.4,-18 96.8,-18 88.9,9.1 88.7,9.1 80.8,-18 71.1,-18 59.8,22 70.2,22 76.5,-4.6 76.7,-4.6 
				83.8,22 93.9,22 101.1,-4.6 101.3,-4.6 107.7,22 117.8,22 			"/>
			<line class="st0" x1="117.8" y1="22" x2="106.4" y2="-18"/>
		</g>
	</g>
	<g>
		<path class="st0" d="M-16.8-34.2l-0.4,1.1h-2.1l-0.4-1.1h-1.4l2.2,5.4h1.3l2.2-5.4H-16.8z M-18.3-30.3l-0.7-1.8h1.3L-18.3-30.3z"
			/>
		<path class="st0" d="M-11.9-32.2h-0.6v-2h-1.3v5.4h2c1.2,0,2.1-0.4,2.1-1.6C-9.8-31.7-10.8-32.2-11.9-32.2z M-12-29.9h-0.6v-1.3
			h0.5c0.5,0,0.9,0.1,0.9,0.7C-11.1-30-11.5-29.9-12-29.9z"/>
		<path class="st0" d="M-4.7-34.2l-0.4,1.1h-2.1l-0.4-1.1h-1.4l2.2,5.4h1.3l2.2-5.4H-4.7z M-6.1-30.3l-0.7-1.8h1.3L-6.1-30.3z"/>
		<path class="st0" d="M1.2-34.2l-1.2,2.1h-0.4v-2.1h-1.3v5.4h2c1,0,2.1-0.4,2.1-1.6c0-0.7-0.4-1.2-1.1-1.4l1.4-2.3H1.2z M0.3-29.9
			h-0.7v-1.2h0.6c0.4,0,0.9,0.1,0.9,0.7C1.2-30,0.7-29.9,0.3-29.9z"/>
		<path class="st0" d="M6.7-29.9v-4.3H5.4v4.3H3.9v1.1h4.3v-1.1H6.7z"/>
		<path class="st0" d="M14.8-34.2l0,3.8h0l-1.4-3.8h-0.9l-1.4,3.8h0l0-3.8H10v5.4h1.8l1.2-3.4h0l1.2,3.4h1.9v-5.4H14.8z"/>
		<path class="st0" d="M18.3-34.2v5.4h3.6v-1.1h-2.4v-1h2.2v-1h-2.2v-1.1h2.5v-1.1H18.3z"/>
		<path class="st0" d="M27.5-34.2l-2.2,3.5h0l0-3.5h-1.3v5.4h1.5l2.1-3.5h0l0,3.5H29v-5.4H27.5z"/>
		<path class="st0" d="M33.5-29.9v-4.3h-1.3v4.3h-1.5v1.1H35v-1.1H33.5z"/>
		<path class="st0" d="M42.2-34.3c-1.7,0-2.9,1.2-2.9,2.8c0,1.7,1.3,2.8,2.9,2.8c0.7,0,1.6-0.3,2-0.8l-0.9-0.9
			c-0.2,0.3-0.7,0.5-1.1,0.5c-0.9,0-1.5-0.7-1.5-1.6c0-1,0.6-1.6,1.5-1.6c0.5,0,0.9,0.2,1.1,0.5l0.9-0.8
			C43.8-34,43.1-34.3,42.2-34.3z"/>
		<path class="st0" d="M48.6-34.3c-1.7,0-2.9,1.2-2.9,2.8c0,1.7,1.2,2.8,2.9,2.8c1.7,0,2.9-1.1,2.9-2.8
			C51.5-33.2,50.2-34.3,48.6-34.3z M48.6-29.9c-0.9,0-1.5-0.7-1.5-1.6c0-1,0.6-1.7,1.5-1.7c0.9,0,1.5,0.7,1.5,1.7
			C50.1-30.6,49.5-29.9,48.6-29.9z"/>
		<path class="st0" d="M58.3-34.2l0,3.8h0L57-34.2h-0.9l-1.4,3.8h0l0-3.8h-1.2v5.4h1.8l1.2-3.4h0l1.2,3.4h1.9v-5.4H58.3z"/>
		<path class="st0" d="M66.7-34.2l0,3.8h0l-1.4-3.8h-0.9l-1.4,3.8h0l0-3.8h-1.2v5.4h1.8l1.2-3.4h0l1.2,3.4H68v-5.4H66.7z"/>
		<path class="st0" d="M72.5-34.3c-1.4,0-2.3,0.9-2.3,2.2v3.3h1.3v-3.2c0-0.6,0.3-1.1,1-1.1c0.7,0,1,0.5,1,1.1v3.2h1.3v-3.3
			C74.8-33.5,73.9-34.3,72.5-34.3z"/>
		<path class="st0" d="M80.4-34.2l-2.2,3.5h0l0-3.5H77v5.4h1.5l2.1-3.5h0l0,3.5h1.3v-5.4H80.4z"/>
		<path class="st0" d="M84.1-34.2v5.4h1.3v-5.4H84.1z"/>
		<path class="st0" d="M89.9-29.9v-4.3h-1.3v4.3h-1.5v1.1h4.3v-1.1H89.9z"/>
		<path class="st0" d="M93.2-34.2v5.4h1.3v-5.4H93.2z"/>
		<path class="st0" d="M96.7-34.2v5.4h3.6v-1.1H98v-1h2.2v-1H98v-1.1h2.5v-1.1H96.7z"/>
		<path class="st0" d="M105.3-30.2c-0.2,0.3-0.6,0.5-1,0.5s-0.7-0.1-0.7-0.5c0-0.4,0.3-0.5,0.8-0.6c0.7-0.2,1.7-0.5,1.7-1.6
			c0-1.2-1-1.8-2.1-1.8c-0.8,0-1.5,0.3-2,0.8l0.8,0.9c0.3-0.3,0.7-0.6,1.2-0.6c0.4,0,0.7,0.2,0.7,0.6c0,0.4-0.4,0.5-1.1,0.8
			c-0.7,0.2-1.4,0.6-1.4,1.5c0,1.2,1.1,1.7,2.1,1.7c0.6,0,1.3-0.2,1.8-0.7L105.3-30.2z"/>
	</g>
</symbol>
<symbol  id="White_Primary" viewBox="-117.8 -29.1 235.6 58.1">
	<g>
		<path class="st1" d="M-117.8,27.1h9.1v-6.4h0.2c1.1,2.2,2.5,4,4.4,5.4c1.9,1.4,4.1,2.1,6.7,2.1c0.4,0,0.8,0,1.2,0
			c0.4,0,0.8-0.1,1.1-0.2v-8.7c-0.6,0.2-1.2,0.3-1.6,0.3c-0.5,0.1-0.9,0.1-1.3,0.1c-2.2,0-3.9-0.4-5.2-1.2c-1.3-0.8-2.4-1.7-3.1-2.9
			c-0.7-1.1-1.2-2.2-1.5-3.4c-0.3-1.2-0.4-2.1-0.4-2.8V-11h-9.5V27.1z"/>
		<path class="st1" d="M-60.1,11.9c0,1.2-0.2,2.4-0.5,3.5c-0.3,1.1-0.9,2.1-1.6,2.9c-0.7,0.8-1.7,1.5-2.8,2c-1.1,0.5-2.5,0.8-4,0.8
			c-2.9,0-5.3-0.9-7.3-2.6c-2-1.7-3.1-3.9-3.3-6.6H-60.1z M-50.5,7.6V6.3c0-0.4,0-0.8-0.1-1.3h-29c0.1-1.4,0.5-2.6,1.1-3.8
			c0.6-1.1,1.4-2.1,2.4-2.9c1-0.8,2.1-1.5,3.4-1.9c1.3-0.5,2.6-0.7,4-0.7c2.4,0,4.4,0.4,6,1.3c1.6,0.9,3,2.1,4.1,3.6l6.4-5.1
			c-3.8-5.1-9.2-7.6-16.4-7.6c-3,0-5.7,0.5-8.2,1.4c-2.5,0.9-4.6,2.2-6.5,3.9c-1.8,1.7-3.3,3.8-4.3,6.2c-1,2.5-1.5,5.3-1.5,8.4
			c0,3.1,0.5,5.9,1.5,8.4c1,2.5,2.4,4.7,4.2,6.4c1.8,1.8,3.9,3.1,6.4,4.1c2.5,1,5.1,1.5,8,1.5c2.6,0,5.1-0.4,7.3-1.3
			c2.3-0.9,4.2-2.2,5.8-3.9c1.6-1.7,2.9-3.9,3.9-6.4C-51,14-50.5,11-50.5,7.6"/>
	</g>
	<g>
		<polygon class="st1" points="4.3,-11 -11.8,15.2 -12,15.2 -11.7,-11 -21.1,-11 -21.1,29.1 -10.1,29.1 6,2.9 6.2,2.9 5.9,29.1 
			15.3,29.1 15.3,-11 		"/>
		<polygon class="st1" points="26.4,-11 26.4,29.1 53.4,29.1 53.4,20.9 35.8,20.9 35.8,13.3 52.4,13.3 52.4,5.6 35.8,5.6 35.8,-2.8 
			54.4,-2.8 54.4,-11 		"/>
		<polygon class="st1" points="106.4,-11 96.8,-11 88.9,16.1 88.7,16.1 80.8,-11 71.1,-11 59.8,29.1 70.2,29.1 76.5,2.4 76.7,2.4 
			83.8,29.1 93.9,29.1 101.1,2.4 101.3,2.4 107.7,29.1 117.8,29.1 		"/>
		<line class="st1" x1="117.8" y1="29.1" x2="106.4" y2="-11"/>
	</g>
	<text transform="matrix(1 0 0 -1 -21.4409 -27.1724)"><tspan x="0" y="0" class="st1" style="font-family:'AvenirNextLTPro-Bold'; font-size:7.5755px; letter-spacing:1;">apartment communitie</tspan><tspan x="123.7" y="0" class="st1" style="font-family:'AvenirNextLTPro-Bold'; font-size:7.5755px;">s</tspan></text>
</symbol>
<g id="Wide_White">
</g>
<g id="Wide">
	
		<use xlink:href="#Colors"  width="235.6" height="90" id="XMLID_00000016066460540386476430000004006034161270112397_" x="-117.8" y="-45" transform="matrix(1 0 0 -1 118 45)" style="overflow:visible;"/>
</g>
</svg>
