<?xml version="1.0" encoding="UTF-8"?>
<svg viewBox="0 0 360 98" version="1.1" xmlns="http://www.w3.org/2000/svg" xmlns:xlink="http://www.w3.org/1999/xlink">
    <!-- Generator: Sketch 53.2 (72643) - https://sketchapp.com -->
    <title>Logo-Color</title>
    <desc>Created with Sketch.</desc>
    <g id="Page-3" stroke="none" stroke-width="1" fill="none" fill-rule="evenodd">
        <g id="Trinity_brandBook_072418-(2)" transform="translate(-513.000000, -248.000000)">
            <g id="Logo-Color" transform="translate(513.000200, 248.189700)">
                <g id="name" transform="translate(144.999800, 28.810300)" fill="#246173">
                    <path d="M15.1528,68.6791 L17.0378,68.6791 L17.0378,66.2011 L18.8148,66.2011 C20.4598,66.2011 21.3588,65.1161 21.3588,63.8001 C21.3588,62.4721 20.4598,61.3661 18.8148,61.3661 L15.1528,61.3661 L15.1528,68.6791 Z M19.4408,63.7891 C19.4408,64.2831 19.0678,64.6011 18.5628,64.6011 L17.0378,64.6011 L17.0378,62.9551 L18.5628,62.9551 C19.0678,62.9551 19.4408,63.2841 19.4408,63.7891 L19.4408,63.7891 Z M27.2158,68.6791 L29.3748,68.6791 L27.8838,65.9921 C28.5638,65.7511 29.3418,65.0721 29.3418,63.8001 C29.3418,62.4401 28.4208,61.3661 26.7988,61.3661 L23.1358,61.3661 L23.1358,68.6791 L25.0208,68.6791 L25.0208,66.2011 L25.9868,66.2011 L27.2158,68.6791 Z M27.4238,63.7781 C27.4238,64.2831 27.0068,64.6011 26.5128,64.6011 L25.0208,64.6011 L25.0208,62.9551 L26.5128,62.9551 C27.0068,62.9551 27.4238,63.2731 27.4238,63.7781 L27.4238,63.7781 Z M30.9438,65.0281 C30.9438,67.2551 32.6208,68.8111 34.8588,68.8111 C37.0958,68.8111 38.7618,67.2551 38.7618,65.0281 C38.7618,62.8011 37.0958,61.2451 34.8588,61.2451 C32.6208,61.2451 30.9438,62.8011 30.9438,65.0281 L30.9438,65.0281 Z M36.8438,65.0281 C36.8438,66.2131 36.0648,67.1451 34.8588,67.1451 C33.6408,67.1451 32.8618,66.2131 32.8618,65.0281 C32.8618,63.8321 33.6408,62.9111 34.8588,62.9111 C36.0648,62.9111 36.8438,63.8321 36.8438,65.0281 L36.8438,65.0281 Z M40.6488,68.6791 L42.5338,68.6791 L42.5338,66.2011 L44.3118,66.2011 C45.9558,66.2011 46.8548,65.1161 46.8548,63.8001 C46.8548,62.4721 45.9558,61.3661 44.3118,61.3661 L40.6488,61.3661 L40.6488,68.6791 Z M44.9368,63.7891 C44.9368,64.2831 44.5638,64.6011 44.0588,64.6011 L42.5338,64.6011 L42.5338,62.9551 L44.0588,62.9551 C44.5638,62.9551 44.9368,63.2841 44.9368,63.7891 L44.9368,63.7891 Z M48.6328,68.6791 L53.9938,68.6791 L53.9938,67.0901 L50.5178,67.0901 L50.5178,65.7731 L53.9168,65.7731 L53.9168,64.1731 L50.5178,64.1731 L50.5178,62.9551 L53.9938,62.9551 L53.9938,61.3661 L48.6328,61.3661 L48.6328,68.6791 Z M60.1028,68.6791 L62.2618,68.6791 L60.7718,65.9921 C61.4518,65.7511 62.2298,65.0721 62.2298,63.8001 C62.2298,62.4401 61.3088,61.3661 59.6858,61.3661 L56.0238,61.3661 L56.0238,68.6791 L57.9088,68.6791 L57.9088,66.2011 L58.8738,66.2011 L60.1028,68.6791 Z M60.3118,63.7781 C60.3118,64.2831 59.8948,64.6011 59.4008,64.6011 L57.9088,64.6011 L57.9088,62.9551 L59.4008,62.9551 C59.8948,62.9551 60.3118,63.2731 60.3118,63.7781 L60.3118,63.7781 Z M65.7288,68.6791 L67.6138,68.6791 L67.6138,63.0091 L69.6538,63.0091 L69.6538,61.3661 L63.6788,61.3661 L63.6788,63.0091 L65.7288,63.0091 L65.7288,68.6791 Z M73.4818,68.6791 L75.3668,68.6791 L75.3668,65.7301 L78.1308,61.3661 L75.9918,61.3661 L74.4248,64.0631 L72.8348,61.3661 L70.7078,61.3661 L73.4818,65.7301 L73.4818,68.6791 Z M86.8708,68.8111 C88.6908,68.8111 89.6448,67.7921 90.1168,66.8491 L88.4938,66.0811 C88.2518,66.6621 87.6268,67.1451 86.8708,67.1451 C85.7298,67.1451 84.8858,66.2241 84.8858,65.0281 C84.8858,63.8321 85.7298,62.9111 86.8708,62.9111 C87.6268,62.9111 88.2518,63.3931 88.4938,63.9751 L90.1168,63.2071 C89.6338,62.2421 88.6908,61.2451 86.8708,61.2451 C84.6778,61.2451 82.9678,62.7681 82.9678,65.0281 C82.9678,67.2771 84.6778,68.8111 86.8708,68.8111 L86.8708,68.8111 Z M91.4888,65.0281 C91.4888,67.2551 93.1648,68.8111 95.4028,68.8111 C97.6408,68.8111 99.3058,67.2551 99.3058,65.0281 C99.3058,62.8011 97.6408,61.2451 95.4028,61.2451 C93.1648,61.2451 91.4888,62.8011 91.4888,65.0281 L91.4888,65.0281 Z M97.3888,65.0281 C97.3888,66.2131 96.6098,67.1451 95.4028,67.1451 C94.1848,67.1451 93.4068,66.2131 93.4068,65.0281 C93.4068,63.8321 94.1848,62.9111 95.4028,62.9111 C96.6098,62.9111 97.3888,63.8321 97.3888,65.0281 L97.3888,65.0281 Z M106.1728,68.6791 L107.9918,68.6791 L107.9918,61.3661 L106.0958,61.3661 L106.0958,65.5761 L103.1338,61.3661 L101.1938,61.3661 L101.1938,68.6791 L103.0788,68.6791 L103.0788,64.2601 L106.1728,68.6791 Z M109.7148,67.6491 C110.4488,68.3501 111.4788,68.8111 112.9598,68.8111 C114.9228,68.8111 116.0078,67.8351 116.0078,66.3661 C116.0078,64.7101 114.3418,64.3591 113.1358,64.1061 C112.3238,63.9531 111.8738,63.8211 111.8738,63.4371 C111.8738,63.1191 112.1148,62.8671 112.7408,62.8671 C113.3878,62.8671 114.1888,63.1191 114.8018,63.6241 L115.8328,62.2751 C115.0538,61.6071 114.0348,61.2561 112.8608,61.2561 C110.9858,61.2561 109.9448,62.3191 109.9448,63.5471 C109.9448,65.2801 111.6318,65.5871 112.8388,65.8291 C113.6178,65.9931 114.0898,66.1581 114.0898,66.5751 C114.0898,66.9261 113.6948,67.2001 113.0478,67.2001 C112.0488,67.2001 111.2378,66.7611 110.7118,66.2351 L109.7148,67.6491 Z M117.8188,65.7191 C117.8188,67.5181 118.8708,68.8111 121.2168,68.8111 C123.5638,68.8111 124.6048,67.5291 124.6048,65.7091 L124.6048,61.3661 L122.6878,61.3661 L122.6878,65.6541 C122.6878,66.5201 122.2268,67.1451 121.2168,67.1451 C120.1968,67.1451 119.7358,66.5201 119.7358,65.6541 L119.7358,61.3661 L117.8188,61.3661 L117.8188,65.7191 Z M126.8548,68.6791 L131.6788,68.6791 L131.6788,67.0351 L128.7398,67.0351 L128.7398,61.3661 L126.8548,61.3661 L126.8548,68.6791 Z M134.1258,68.6791 L136.0098,68.6791 L136.0098,63.0091 L138.0498,63.0091 L138.0498,61.3661 L132.0748,61.3661 L132.0748,63.0091 L134.1258,63.0091 L134.1258,68.6791 Z M144.2568,68.6791 L146.3078,68.6791 L143.5448,61.3661 L141.1758,61.3661 L138.4238,68.6791 L140.4748,68.6791 L140.8468,67.5711 L143.8848,67.5711 L144.2568,68.6791 Z M142.3598,63.0091 L143.3908,65.9831 L141.3408,65.9831 L142.3598,63.0091 Z M152.7568,68.6791 L154.5758,68.6791 L154.5758,61.3661 L152.6798,61.3661 L152.6798,65.5761 L149.7178,61.3661 L147.7778,61.3661 L147.7778,68.6791 L149.6628,68.6791 L149.6628,64.2601 L152.7568,68.6791 Z M158.4598,68.6791 L160.3438,68.6791 L160.3438,63.0091 L162.3838,63.0091 L162.3838,61.3661 L156.4088,61.3661 L156.4088,63.0091 L158.4598,63.0091 L158.4598,68.6791 Z M163.6028,67.6491 C164.3368,68.3501 165.3668,68.8111 166.8478,68.8111 C168.8108,68.8111 169.8958,67.8351 169.8958,66.3661 C169.8958,64.7101 168.2298,64.3591 167.0238,64.1061 C166.2108,63.9531 165.7618,63.8211 165.7618,63.4371 C165.7618,63.1191 166.0028,62.8671 166.6278,62.8671 C167.2758,62.8671 168.0768,63.1191 168.6898,63.6241 L169.7208,62.2751 C168.9428,61.6071 167.9228,61.2561 166.7488,61.2561 C164.8738,61.2561 163.8328,62.3191 163.8328,63.5471 C163.8328,65.2801 165.5208,65.5871 166.7268,65.8291 C167.5058,65.9931 167.9778,66.1581 167.9778,66.5751 C167.9778,66.9261 167.5828,67.2001 166.9358,67.2001 C165.9368,67.2001 165.1258,66.7611 164.5998,66.2351 L163.6028,67.6491 Z" id="Fill-62"></path>
                    <path d="M69.9761,5.619 C69.9761,4.239 70.4791,3.035 71.4891,2.012 C72.5001,0.987 73.7781,0.475 75.3281,0.475 C76.8781,0.475 78.1801,0.964 79.2361,1.94 C80.2951,2.916 80.8231,4.144 80.8231,5.619 C80.8231,7.096 80.2951,8.323 79.2361,9.298 C78.1801,10.275 76.8781,10.763 75.3281,10.763 C73.7781,10.763 72.5001,10.252 71.4891,9.226 C70.4791,8.204 69.9761,7.002 69.9761,5.619" id="Fill-51"></path>
                    <path d="M133.0201,5.619 C133.0201,4.239 133.5231,3.035 134.5341,2.012 C135.5441,0.987 136.8231,0.475 138.3721,0.475 C139.9231,0.475 141.2241,0.964 142.2811,1.94 C143.3391,2.916 143.8671,4.144 143.8671,5.619 C143.8671,7.096 143.3391,8.323 142.2811,9.298 C141.2241,10.275 139.9231,10.763 138.3721,10.763 C136.8231,10.763 135.5441,10.252 134.5341,9.226 C133.5231,8.204 133.0201,7.002 133.0201,5.619" id="Fill-53"></path>
                    <path d="M178.8679,17.2645 L188.2349,17.2645 L197.6739,42.1995 L197.8139,42.1995 L206.1949,17.2645 L214.9999,17.2645 L199.0109,58.9175 C198.3999,60.4895 197.7429,61.8825 197.0399,63.0975 C196.3349,64.3115 195.4889,65.3355 194.5029,66.1695 C193.5179,67.0015 192.3559,67.6345 191.0169,68.0625 C189.6799,68.4915 188.0699,68.7055 186.1929,68.7055 C185.4879,68.7055 184.7729,68.6695 184.0449,68.5985 C183.3159,68.5275 182.5769,68.3955 181.8269,68.2055 L182.5289,60.7755 C183.0929,60.9655 183.6459,61.0975 184.1869,61.1675 C184.7249,61.2395 185.2309,61.2755 185.6999,61.2755 C186.5919,61.2755 187.3429,61.1675 187.9539,60.9535 C188.5629,60.7395 189.0809,60.4055 189.5029,59.9545 C189.9249,59.5005 190.3019,58.9405 190.6299,58.2745 C190.9589,57.6065 191.3099,56.8205 191.6859,55.9165 L193.3769,51.5585 L178.8679,17.2645 Z" id="Fill-49"></path>
                    <path d="M151.6119,24.1232 L151.6119,17.2642 L157.5279,17.2642 L157.5279,7.3332 L165.8379,7.3332 L165.8379,17.2642 L174.2899,17.2642 L174.2899,24.1232 L165.8379,24.1232 L165.8379,40.0552 C165.8379,41.5802 166.1079,42.8432 166.6489,43.8422 C167.1869,44.8432 168.3969,45.3432 170.2749,45.3432 C170.8379,45.3432 171.4499,45.2842 172.1069,45.1642 C172.7629,45.0462 173.3499,44.8672 173.8679,44.6282 L174.1509,51.3442 C173.3979,51.6302 172.5059,51.8562 171.4719,52.0222 C170.4389,52.1892 169.4539,52.2722 168.5159,52.2722 C166.2619,52.2722 164.4299,51.9522 163.0209,51.3082 C161.6129,50.6652 160.4959,49.7852 159.6749,48.6652 C158.8539,47.5462 158.2909,46.2602 157.9849,44.8072 C157.6789,43.3542 157.5279,41.7952 157.5279,40.1272 L157.5279,24.1232 L151.6119,24.1232 Z" id="Fill-47"></path>
                    <polygon id="Fill-43" points="71.174 51.558 79.626 51.558 79.626 17.264 71.174 17.264"></polygon>
                    <path d="M91.694,17.2645 L99.724,17.2645 L99.724,22.7665 L99.863,22.7665 C100.614,21.0515 101.917,19.5405 103.774,18.2295 C105.627,16.9195 107.823,16.2645 110.359,16.2645 C112.565,16.2645 114.455,16.6575 116.029,17.4435 C117.601,18.2295 118.892,19.2655 119.902,20.5515 C120.91,21.8365 121.651,23.3145 122.121,24.9805 C122.589,26.6485 122.825,28.3635 122.825,30.1245 L122.825,51.5585 L114.374,51.5585 L114.374,32.5545 C114.374,31.5535 114.303,30.5065 114.162,29.4105 C114.02,28.3155 113.715,27.3275 113.247,26.4455 C112.777,25.5655 112.13,24.8385 111.309,24.2665 C110.488,23.6955 109.397,23.4095 108.034,23.4095 C106.672,23.4095 105.498,23.6835 104.512,24.2315 C103.526,24.7795 102.716,25.4805 102.084,26.3375 C101.45,27.1955 100.967,28.1845 100.639,29.3035 C100.31,30.4235 100.146,31.5535 100.146,32.6965 L100.146,51.5585 L91.694,51.5585 L91.694,17.2645 Z" id="Fill-44"></path>
                    <polygon id="Fill-46" points="134.218 51.558 142.67 51.558 142.67 17.264 134.218 17.264"></polygon>
                    <path d="M41.8737,17.2645 L49.9737,17.2645 L49.9737,22.9805 L50.1137,22.9805 C51.0537,20.9795 52.3667,19.3605 54.0577,18.1215 C55.7477,16.8835 57.7207,16.2645 59.9747,16.2645 C60.3037,16.2645 60.6547,16.2765 61.0307,16.3005 C61.4057,16.3245 61.7357,16.3835 62.0167,16.4785 L62.0167,24.3375 C61.4537,24.1955 60.9707,24.1005 60.5737,24.0515 C60.1747,24.0055 59.7857,23.9805 59.4117,23.9805 C57.4857,23.9805 55.9347,24.3375 54.7617,25.0525 C53.5877,25.7665 52.6727,26.6235 52.0157,27.6245 C51.3567,28.6235 50.9117,29.6495 50.6767,30.6965 C50.4417,31.7445 50.3257,32.5785 50.3257,33.1965 L50.3257,51.5585 L41.8737,51.5585 L41.8737,17.2645 Z" id="Fill-41"></path>
                    <polygon id="Fill-40" points="15.5326 8.8344 0.2486 8.8344 0.2486 0.9744 39.6906 0.9744 39.6906 8.8344 24.4086 8.8344 24.4086 51.5584 15.5326 51.5584"></polygon>
                </g>
                <g id="icon">
                    <polygon id="Fill-56" fill="#3D9B86" points="19.5758 43.6814 39.1518 64.1124 39.1518 97.5164 46.6728 97.5164 46.6728 64.0294 46.6728 47.7454"></polygon>
                    <path d="M122.3199,41.789 L115.3149,40.141 L115.3149,31.961 L122.3199,33.931 L122.3199,41.789 Z M122.3199,53.576 L115.3149,52.408 L115.3149,44.231 L122.3199,45.719 L122.3199,53.576 Z M122.3199,65.362 L115.3149,64.676 L115.3149,56.499 L122.3199,57.507 L122.3199,65.362 Z M112.0299,39.369 L103.3029,37.311 L103.3029,28.582 L112.0299,31.036 L112.0299,39.369 Z M112.0299,51.865 L103.3029,50.408 L103.3029,41.679 L112.0299,43.531 L112.0299,51.865 Z M112.0299,64.356 L103.3029,63.503 L103.3029,54.774 L112.0299,56.026 L112.0299,64.356 Z M126.6249,97.483 L126.6249,29.806 L99.4279,21.844 L99.4279,97.516 L126.6249,97.483 Z" id="Fill-57" fill="#E9A52F"></path>
                    <polygon id="Fill-58" fill="#1E4E57" points="83.7535 21.496 98.9645 18.301 104.3585 19.816 104.3585 11.539 68.2205 0 68.2205 97.483 83.7535 97.483"></polygon>
                    <path d="M63.9178,14.453 L54.4568,16.645 L54.4568,8.351 L63.9178,5.722 L63.9178,14.453 Z M63.9178,27.549 L54.4568,29.307 L54.4568,21.012 L63.9178,18.819 L63.9178,27.549 Z M63.9178,40.644 L54.4568,41.964 L54.4568,33.67 L63.9178,31.914 L63.9178,40.644 Z M63.9178,54.055 L54.4568,54.624 L54.4568,46.331 L63.9178,45.364 L63.9178,54.055 Z M68.2198,97.483 L68.2198,0 L50.1528,5.021 L50.1528,97.516 L68.2198,97.483 Z" id="Fill-59" fill="#246173"></path>
                    <polygon id="Fill-60" fill="#EEB039" points="87.3431 97.4833 87.3431 24.1673 99.4281 21.8443 99.4281 97.5163"></polygon>
                    <path d="M19.576,43.6816 L0.105,63.9236 L0,97.5166 L39.152,97.5106 L39.152,64.1126 L19.576,43.6816 Z M9.625,91.4686 L17.27,91.4686 L17.27,85.6406 L9.625,85.6406 L9.625,91.4686 Z M9.625,82.9766 L17.27,82.9766 L17.27,77.1496 L9.625,77.1496 L9.625,82.9766 Z M9.625,74.4856 L17.27,74.4856 L17.27,68.6576 L9.625,68.6576 L9.625,74.4856 Z M20.629,91.4686 L28.814,91.4686 L28.814,85.6406 L20.629,85.6406 L20.629,91.4686 Z M20.629,82.9766 L28.814,82.9766 L28.814,77.1496 L20.629,77.1496 L20.629,82.9766 Z M20.629,74.4856 L28.814,74.4856 L28.814,68.6576 L20.629,68.6576 L20.629,74.4856 Z" id="Fill-61" fill="#4AB69F"></path>
                </g>
            </g>
        </g>
    </g>
</svg>