<svg xmlns="http://www.w3.org/2000/svg" viewBox="0 0 184.16 46.63"><defs><style>.cls-1{fill:#142b51;}.cls-2,.cls-6{fill:#fff;}.cls-3{fill:#6f95ca;}.cls-4{fill:#b08e42;}.cls-5{fill:none;stroke:#fff;stroke-miterlimit:10;stroke-width:0.5px;}.cls-6{font-size:10px;font-family:TrajanPro3-Semibold, "Trajan Pro 3";font-weight:600;letter-spacing:0.79em;}.cls-7{letter-spacing:0.75em;}.cls-8{letter-spacing:0.74em;}.cls-9{letter-spacing:0.71em;}</style></defs><g id="Layer_1" data-name="Layer 1"><polyline class="cls-1" points="0.25 0.25 46.21 0.25 46.21 46.21 0.25 46.21"/><path class="cls-2" d="M56.34,70.05V69a.84.84,0,0,1,.21-.56L56.82,65l-4.5-6.35.07,3h-.86V63.8H50.19v-.51l-1.38,0V62.15h-.44V59.53h-.23v-.29h-1V59h-1v.33h-.19v.22H45.5V64.4H45V61.78h-.74V53.91l-5.93-.11v9.85l-.35,0v.57h-.55V46.92H34.07v.39h-.53V64h-.46v-.85h-.64V60.87h-.68V55.69h-.6v-.51h-.34v-4H30.6v4h-2v.53h-.91v5.57l-.34,0v.34h-.2v1.45H26.12V64h-.34v.21h-.55V60l-1.58-.56-.57.67v3.69h-.73V62.41l-.75-.48-7.32,10L40.42,63.5l6.08,8.39h9.79l.12-1.52A.92.92,0,0,1,56.34,70.05Z" transform="translate(-10.08 -25.68)"/><polygon class="cls-3" points="37.76 0.25 30.63 10.05 4.2 1.67 20.57 23.84 4.2 46.21 0.25 46.21 0.25 0.25 37.76 0.25"/><polygon class="cls-3" points="30.34 37.82 36.42 46.21 4.77 46.21 30.34 37.82"/><polygon class="cls-4" points="46.21 1.1 37.76 12.26 21.3 7.1 31.78 20.63 23.23 33.51 37.76 28.44 46.43 39.21 46.21 1.1"/><rect class="cls-5" x="0.25" y="0.25" width="45.96" height="45.96"/></g><g id="Layer_2" data-name="Layer 2"><rect class="cls-2" x="60.94" y="43.1" width="108.98" height="0.82"/><path class="cls-2" d="M86.46,56.39a7.85,7.85,0,0,1-1.35-.11,7.17,7.17,0,0,1-4.21-2.49c-2-2.15-4.35-5.23-7.18-8.86,3.11-2.88,4.18-5.44,4.18-8a6.07,6.07,0,0,0-2.38-4.71c-1.83-1.32-4.15-1.52-6.32-1.52-1.07,0-3.7.1-4.08.1-.17,0-2.34-.1-3.9-.1-.38,0-.55.07-.55.27s.14.21.28.21a6.36,6.36,0,0,1,1.17.11c1.14.24,1.42.79,1.48,2s.07,2.08.07,7.48v6.09c0,3,0,5.46-.12,7,.82.05,1.64.09,2.46.1a5,5,0,0,1,.56.06c-.13-1.52-.13-4.08-.13-7.16V46c0-.17.06-.28.24-.28l4.24.07a.55.55,0,0,1,.45.21c.69.9,2.32,3.22,3.77,5.12,2,2.6,3.17,4.3,4.66,5.09a6.92,6.92,0,0,0,3.69.66h2.45c.62,0,.83-.07.83-.28S86.63,56.39,86.46,56.39ZM72.89,44.06a4.49,4.49,0,0,1-2.59.66,9.24,9.24,0,0,1-3.62-.56.43.43,0,0,1-.24-.41V32.43a.42.42,0,0,1,.27-.42,10.82,10.82,0,0,1,2.31-.2c3.7,0,6,2.59,6,6.92C75,41.36,74.1,43.23,72.89,44.06Z" transform="translate(-10.08 -25.68)"/><path class="cls-2" d="M79.45,47.83a9.37,9.37,0,0,1,9.69-9.33c5.53,0,9.66,3.39,9.66,9A9.5,9.5,0,0,1,89,57.2C82.25,57.2,79.45,52.12,79.45,47.83Zm17,.28c0-5.72-3.59-8.8-7.48-8.8-4.1,0-7.17,2.62-7.17,7.85,0,5.56,3.44,9.14,7.86,9.14C91.87,56.3,96.44,55.06,96.44,48.11Z" transform="translate(-10.08 -25.68)"/><path class="cls-2" d="M101.24,54.59a9.28,9.28,0,0,1-2.93-7.17A9.62,9.62,0,0,1,101,40.81c1.45-1.45,3.66-2.59,7.4-2.59a20.65,20.65,0,0,1,3.52.29c.92.17,1.68.24,2.58.36.17,0,.21.12.21.27s-.07.48-.12,1.36-.05,2.13-.07,2.49-.07.51-.22.51-.19-.17-.19-.51a3.36,3.36,0,0,0-1-2.47,8.08,8.08,0,0,0-4.86-1.38c-3.23,0-4.73.94-5.58,1.77-1.78,1.69-2.19,3.85-2.19,6.32a8.76,8.76,0,0,0,8.77,8.86c1.82,0,3.25-.22,4.22-1.21a4.56,4.56,0,0,0,.9-2c.05-.26.1-.36.24-.36s.17.17.17.36a25.29,25.29,0,0,1-.53,3.1c-.15.46-.2.51-.63.71a14.36,14.36,0,0,1-4.37.55C105.61,57.2,103.16,56.31,101.24,54.59Z" transform="translate(-10.08 -25.68)"/><path class="cls-2" d="M119.17,47.16c.76-.72,4.07-4.17,5.56-5.68s1.56-1.74,1.56-2A.5.5,0,0,0,126,39c-.17-.07-.22-.12-.22-.21s.15-.15.37-.15c.7,0,.63.08,1.46.08s2.19-.08,2.58-.08.42.08.42.17-.05.15-.27.17a4.71,4.71,0,0,0-1.24.29,7.51,7.51,0,0,0-2.54,1.93c-2.14,2-4.92,4.77-5.55,5.46,1.53,1.67,6,6.12,7.11,7.18,2,1.86,2.85,2.39,4,2.6a3.29,3.29,0,0,0,.71.08c.19,0,.34.05.34.17s-.1.16-.37.16H131c-2.12,0-2.68-.26-3.82-1.15a91.43,91.43,0,0,1-8-8.31v2.48c0,2.31,0,4.21.13,5.23.07.69.21,1.22,1,1.32.34.05.82.1,1,.1s.29.09.29.17-.09.16-.36.16c-1.34,0-2.88-.07-3-.07s-1.56.07-2.29.07c-.27,0-.39,0-.39-.16s0-.17.27-.17a3.37,3.37,0,0,0,.63-.08c.49-.09.63-.65.73-1.34.12-1,.12-2.92.12-5.23V45.62c0-3.76,0-4.43,0-5.2s-.3-1.23-.83-1.35a3.81,3.81,0,0,0-.88-.1c-.2,0-.27,0-.27-.14s.12-.2.39-.2c.81,0,2.44.08,2.56.08s1.66-.08,2.39-.08c.27,0,.39,0,.39.17s-.05.15-.27.17l-.54.05c-.65.07-.85.55-.9,1.4s0,1.44,0,5.2Z" transform="translate(-10.08 -25.68)"/><path class="cls-2" d="M131.45,56.55c-.35-.16-.38-.26-.38-.91,0-1.2.1-2.16.13-2.55s.07-.38.2-.38.17.07.17.26a4.31,4.31,0,0,0,.07.89c.38,1.78,2,2.45,3.67,2.45a3.25,3.25,0,0,0,3.54-3.19c0-1.66-.72-2.62-2.85-4.33l-1.11-.89c-2.63-2.09-3.22-3.58-3.22-5.22,0-2.57,2-4.32,5.12-4.32a9.62,9.62,0,0,1,2.31.24,4.58,4.58,0,0,0,.86.12c.2,0,.25.05.25.17s-.1.91-.1,2.54c0,.39-.05.56-.17.56s-.18-.12-.2-.31a4.33,4.33,0,0,0-.32-1.21c-.15-.26-.82-1.27-3.1-1.27a2.77,2.77,0,0,0-3,2.79c0,1.37.64,2.23,3,4l.69.52c2.92,2.24,3.62,3.73,3.62,5.65a4.92,4.92,0,0,1-2.11,4,6.66,6.66,0,0,1-3.74,1A7.68,7.68,0,0,1,131.45,56.55Z" transform="translate(-10.08 -25.68)"/><path class="cls-2" d="M149.66,50c0,2.38,0,4.33.13,5.37.07.72.22,1.27,1,1.37a10.78,10.78,0,0,0,1.11.1c.15,0,.2.07.2.14s-.12.2-.39.2c-1.36,0-2.92-.07-3-.07s-1.68.07-2.42.07c-.27,0-.4-.05-.4-.2s0-.14.2-.14a3.76,3.76,0,0,0,.74-.1c.5-.1.62-.65.72-1.37.12-1,.12-3,.12-5.37V39.54c-1.21,0-2.45,0-3.66.05-1.53,0-2.13.2-2.52.79a4.27,4.27,0,0,0-.42.77c-.08.2-.15.25-.25.25s-.12-.08-.12-.22.49-2.38.54-2.58.15-.47.25-.47a4.52,4.52,0,0,0,1.09.3c.71.07,1.65.12,1.95.12h9.28a10.5,10.5,0,0,0,1.76-.12c.37,0,.59-.13.69-.13s.12.15.12.3c0,.74-.07,2.45-.07,2.72s-.07.33-.17.33-.18-.08-.2-.43c0-.09,0-.17,0-.27-.07-.74-.66-1.31-3-1.36-1,0-2.08,0-3.12-.05Z" transform="translate(-10.08 -25.68)"/><path class="cls-2" d="M157,49.87c-.13,0-.2.08-.25.2l-1.5,4.34a5,5,0,0,0-.35,1.65c0,.49.47.71.9.71H156c.25,0,.33,0,.33.15s-.23.19-.45.19c-.6,0-1.6-.07-1.87-.07s-1.65.07-2.83.07c-.32,0-.47,0-.47-.19s.12-.15.35-.15.4,0,.6-.05c1.15-.15,1.65-1.08,2.1-2.31l5.67-15.23c.3-.81.39-1,.55-1s.25.12.54.88c.38.94,4.3,11.07,5.82,14.8.9,2.18,1.63,2.57,2.15,2.72a3.52,3.52,0,0,0,1,.15c.15,0,.27,0,.27.15s-.22.19-.5.19-2.2,0-3.92,0c-.47,0-.75,0-.75-.17s.08-.15.18-.17.3-.27.15-.66l-2.33-6a.22.22,0,0,0-.22-.15Zm5-.88c.13,0,.13-.07.1-.17l-2.37-6.63c-.12-.36-.25-.36-.37,0l-2.2,6.63c-.05.12,0,.17.07.17Z" transform="translate(-10.08 -25.68)"/><path class="cls-2" d="M177.19,56.62a15.23,15.23,0,0,1-1.58-.14c-1.05-.14-1.26-.91-1.37-1.92-.17-1.47-.17-4.23-.17-7.58v-.84c0-.17.07-.28.24-.28l4.32.07a.57.57,0,0,1,.27.06,4.54,4.54,0,0,1,.59-.24,4.87,4.87,0,0,1,2-.74c3.11-2.88,4.19-5.45,4.19-8a6.12,6.12,0,0,0-2.42-4.76c-1.86-1.32-4.21-1.53-6.42-1.53-1.08,0-3.75.1-4.14.1-.17,0-2.38-.1-4-.1-.38,0-.56.07-.56.28s.14.21.28.21a6.51,6.51,0,0,1,1.19.1c1.16.25,1.44.8,1.51,2s.07,2.1.07,7.55V47c0,3.35,0,6.11-.17,7.58-.14,1-.32,1.78-1,1.92a5.51,5.51,0,0,1-1,.14c-.21,0-.28.11-.28.21s.17.28.56.28c1,0,3.26-.1,3.29-.1.18,0,2.39.1,4.32.1.38,0,.56-.1.56-.28S177.4,56.62,177.19,56.62Zm-3.12-24.18a.42.42,0,0,1,.28-.42,11.06,11.06,0,0,1,2.35-.2c3.75,0,6.06,2.62,6.06,7,0,2.66-.91,4.55-2.13,5.38a4.56,4.56,0,0,1-2.63.67,9.82,9.82,0,0,1-3.69-.56.47.47,0,0,1-.24-.42Z" transform="translate(-10.08 -25.68)"/><path class="cls-2" d="M178.24,45.93" transform="translate(-10.08 -25.68)"/><polygon class="cls-2" points="53.47 28.15 53.47 38.56 53.47 39.05 56.35 39.05 56.35 28.15 53.47 28.15"/><line class="cls-2" x1="56.07" y1="39.05" x2="56.35" y2="33.28"/><path class="cls-2" d="M69.83,64.37l-.16.36H66.44l0-5S66.64,64.65,69.83,64.37Z" transform="translate(-10.08 -25.68)"/><polygon class="cls-2" points="56.49 28.31 56.36 37.09 54.91 36.92 56.35 28.15 56.49 28.31"/><path class="cls-2" d="M61,64.37l.16.36h3.24l0-5S64.21,64.65,61,64.37Z" transform="translate(-10.08 -25.68)"/><path class="cls-2" d="M182.21,54.34" transform="translate(-10.08 -25.68)"/><path class="cls-2" d="M179.14,46.37a5.68,5.68,0,0,1,.94,2c.34.93.59,1.63.62,1.72.43,1.22.77,2,1.1,2.74,1.27,3,1,3.4,2.09,5.73a14.92,14.92,0,0,0,2.7,4.21c.15.16,2,2.12,3.52,2l.81,0c.8,0,1.06,0,1.64,0s1.65,0,1.68-.24-.28-.19-1.15-.61c-.35-.18-.87-.43-1.31-.7a8,8,0,0,1-1.26-1,13.48,13.48,0,0,1-2.05-2.33A15.16,15.16,0,0,1,187.12,57c-1.43-3.36-1.53-3.1-2.58-5.72-.26-.67-.59-1.52-1.14-2.7a23.48,23.48,0,0,0-1.35-2.42c-.63-1-.83-1.16-1.07-1.27-1-.46-2.46.18-2.49.7C178.47,45.85,178.74,45.9,179.14,46.37Z" transform="translate(-10.08 -25.68)"/><text class="cls-6" transform="translate(69.88 42.5)">C<tspan class="cls-7" x="15.97" y="0">AP</tspan><tspan class="cls-8" x="44.52" y="0">I</tspan><tspan class="cls-9" x="56.46" y="0">T</tspan><tspan class="cls-7" x="70.54" y="0">AL</tspan></text></g></svg>