<?xml version="1.0" encoding="UTF-8" standalone="no"?>
<svg
   xmlns:dc="http://purl.org/dc/elements/1.1/"
   xmlns:cc="http://creativecommons.org/ns#"
   xmlns:rdf="http://www.w3.org/1999/02/22-rdf-syntax-ns#"
   xmlns:svg="http://www.w3.org/2000/svg"
   xmlns="http://www.w3.org/2000/svg"
   viewBox="0 0 265.64001 89.800003"
   xml:space="preserve"
   id="svg2"
   version="1.1"><metadata
     id="metadata8"><rdf:RDF><cc:Work
         rdf:about=""><dc:format>image/svg+xml</dc:format><dc:type
           rdf:resource="http://purl.org/dc/dcmitype/StillImage" /></cc:Work></rdf:RDF></metadata><defs
     id="defs6" /><g
     transform="matrix(1.3333333,0,0,-1.3333333,0,89.8)"
     id="g10"><g
       transform="scale(0.1)"
       id="g12"><path
         id="path14"
         style="fill:#588ed2;fill-opacity:1;fill-rule:nonzero;stroke:none"
         d="M 711.938,56.8867 355.969,673.469 -0.00390625,56.8867 H 354.77 L 177.477,363.938 h 356.91 L 357.172,56.8867 h 354.766" /><path
         id="path16"
         style="fill:#f57c14;fill-opacity:1;fill-rule:nonzero;stroke:none"
         d="M 1992.29,355.375 H 683.754 v 9.723 H 1992.29 v -9.723" /><path
         id="path18"
         style="fill:#231f20;fill-opacity:1;fill-rule:nonzero;stroke:none"
         d="M 807.094,623.355 760.402,507.48 h 91.848 z m 5.125,50.114 h 11.777 l 93.262,-237.903 c 3.75,-9.609 11.426,-14.418 23.027,-14.418 h 8.086 V 407.961 H 844.633 v 13.187 h 8.269 c 10.782,0 18.399,1.172 22.852,3.516 3.047,1.645 4.57,4.164 4.57,7.563 0,1.992 -0.41,4.101 -1.23,6.328 L 857.59,493.766 H 754.73 l -12.082,-31.649 c -3.164,-8.441 -4.746,-15.121 -4.746,-20.047 0,-5.742 2.668,-10.664 8.008,-14.765 5.332,-4.106 13.098,-6.157 23.293,-6.157 h 8.789 v -13.187 h -94.238 v 13.187 c 10.078,0 18.047,2.207 23.894,6.586 5.872,4.414 11.262,12.754 16.184,25.063 l 88.387,220.672" /><path
         id="path20"
         style="fill:#231f20;fill-opacity:1;fill-rule:nonzero;stroke:none"
         d="m 1021.04,580.766 c -3.69,0 -6.44,-0.782 -8.2,-2.328 -1.76,-1.563 -2.64,-3.907 -2.64,-7.032 V 426.172 c 0,-2.953 1.02,-5.18 3.07,-6.703 2.05,-1.524 5.55,-2.285 10.47,-2.285 h 15.5 c 13.88,0 26.02,3.574 36.44,10.726 6.8,4.746 11.98,11.426 15.51,20.043 4.84,11.66 7.26,27.742 7.26,48.258 0,30.355 -5.29,52.594 -15.88,66.719 -9.03,11.894 -22.65,17.836 -40.87,17.836 z m -65.977,9.238 h 94.017 c 13.96,0 25.82,-2.461 35.58,-7.383 12.15,-6.254 22.46,-16.625 30.96,-31.141 8.49,-14.535 12.74,-31.73 12.74,-51.578 0,-16.41 -2.55,-31.179 -7.62,-44.312 -3.87,-10.098 -9.8,-18.91 -17.8,-26.449 -8,-7.563 -17.75,-13.227 -29.24,-16.996 -8.61,-2.793 -20.09,-4.184 -34.46,-4.184 h -84.177 v 9.223 h 17.226 c 4.344,0 7.363,0.703 9.043,2.109 1.68,1.387 2.527,3.555 2.527,6.504 v 146.605 c 0,2.539 -0.906,4.571 -2.714,6.094 -1.805,1.508 -4.305,2.27 -7.5,2.27 h -18.582 v 9.238" /><path
         id="path22"
         style="fill:#231f20;fill-opacity:1;fill-rule:nonzero;stroke:none"
         d="m 1141.41,590.004 h 76.67 v -9.238 h -13.28 c -5.5,0 -9.23,-0.645 -11.2,-1.977 -1.98,-1.309 -2.95,-3.066 -2.95,-5.273 0,-1.739 0.73,-4.239 2.2,-7.52 l 0.99,-2.578 47.94,-121.973 42.4,116.422 c 0.81,2.305 1.23,5.102 1.23,8.383 0,4.59 -1.34,8.164 -4,10.703 -2.67,2.543 -6.34,3.813 -11.02,3.813 h -12.42 v 9.238 h 67.21 v -9.238 h -5.44 c -4.1,0 -8.17,-1.938 -12.23,-5.786 -4.1,-3.847 -7.75,-10.214 -11.02,-19.066 L 1240.2,403.66 h -8.96 l -64.31,162.727 c -2.22,5.41 -4.79,9.16 -7.71,11.25 -2.91,2.093 -6.88,3.129 -11.9,3.129 h -5.91 v 9.238" /><path
         id="path24"
         style="fill:#231f20;fill-opacity:1;fill-rule:nonzero;stroke:none"
         d="m 1341.05,590.004 h 144.26 l 3.43,-61.418 h -8.24 c -3.28,19.359 -8.46,32.894 -15.55,40.613 -7.1,7.715 -16.31,11.567 -27.7,11.567 h -35.66 c -2.87,0 -5.03,-0.782 -6.5,-2.328 -1.48,-1.563 -2.23,-3.946 -2.23,-7.149 v -64.863 h 15.59 c 8.36,0 15.12,2.988 20.32,8.988 5.2,5.977 8.01,15.184 8.4,27.566 h 8.5 v -84.304 h -8.5 c -0.39,13.953 -3.24,23.937 -8.52,29.972 -5.28,6.02 -12.47,9.047 -21.55,9.047 h -14.24 v -72.386 c 0,-2.618 0.9,-4.629 2.66,-6.016 1.76,-1.406 4.69,-2.109 8.79,-2.109 h 28.13 c 30.58,0 48.2,19.535 52.87,58.589 h 8.84 l -3.06,-67.812 h -150.04 v 9.223 h 12.42 c 4.84,0 8.27,0.859 10.22,2.539 1.98,1.679 2.97,4.121 2.97,7.308 v 144.258 c 0,3.203 -0.88,5.586 -2.59,7.149 -1.72,1.546 -4.44,2.328 -8.14,2.328 h -14.88 v 9.238" /><path
         id="path26"
         style="fill:#231f20;fill-opacity:1;fill-rule:nonzero;stroke:none"
         d="m 1516.94,590.004 h 43.44 l 109.81,-143.027 v 103.507 c 0,10.43 -2.38,18.149 -7.16,23.149 -4.34,4.59 -10.82,6.976 -19.43,7.133 v 9.238 h 63.75 v -9.238 c -6.51,0 -11.38,-0.899 -14.6,-2.7 -3.21,-1.816 -6.02,-5.097 -8.4,-9.843 -2.38,-4.766 -3.6,-9.985 -3.6,-15.649 V 407.961 h -11.56 l -113.61,148.91 V 446.996 c 0,-9.926 2.5,-17.348 7.52,-22.234 5.01,-4.883 12.76,-7.403 23.25,-7.578 v -9.223 h -69.41 v 9.223 c 8.69,0.332 15.59,3.183 20.69,8.554 5.08,5.356 7.62,11.938 7.62,19.715 V 568.73 l -2.17,2.383 c -4.08,4.473 -6.99,7.11 -8.71,7.93 -2.38,1.156 -5.46,1.723 -9.21,1.723 h -8.22 v 9.238" /><path
         id="path28"
         style="fill:#231f20;fill-opacity:1;fill-rule:nonzero;stroke:none"
         d="m 1721.39,590.004 h 83.93 v -9.238 h -14.4 c -6.39,0 -10.43,-0.801 -12.11,-2.407 -1.68,-1.601 -2.52,-4.98 -2.52,-10.136 V 430.371 c 0,-5.512 0.72,-8.949 2.21,-10.355 1.97,-1.875 5.53,-2.832 10.7,-2.832 h 16.12 v -9.223 h -83.93 v 9.223 h 15.89 c 5.56,0 9.18,0.82 10.82,2.461 1.64,1.64 2.46,5.214 2.46,10.726 v 137.852 c 0,5.234 -0.74,8.476 -2.23,9.707 -2.28,1.898 -6.5,2.836 -12.65,2.836 h -14.29 v 9.238" /><path
         id="path30"
         style="fill:#231f20;fill-opacity:1;fill-rule:nonzero;stroke:none"
         d="m 1876.59,506.309 h 21.53 c 14.46,0 25.75,2.714 33.91,8.168 8.18,5.449 12.26,15.14 12.26,29.05 0,9.594 -1.54,17.172 -4.61,22.743 -3.1,5.566 -7.14,9.375 -12.14,11.425 -5,2.055 -14.84,3.071 -29.54,3.071 -9.69,0 -15.66,-0.664 -17.97,-2.036 -2.28,-1.347 -3.44,-3.652 -3.44,-6.933 z m -55.5,83.695 h 94.03 c 18.2,0 32.35,-4.141 42.39,-12.445 10.06,-8.282 15.09,-19.145 15.09,-32.61 0,-8.047 -2,-15.191 -5.99,-21.469 -3.96,-6.289 -9.7,-11.289 -17.22,-15.023 -7.5,-3.73 -19.31,-6.426 -35.38,-8.066 11.7,-3.184 19.76,-6.332 24.18,-9.418 4.42,-3.067 7.96,-7.051 10.63,-11.934 2.66,-4.887 5.72,-14.828 9.2,-29.855 2.5,-10.746 5.14,-18.09 7.93,-22.016 2.13,-3.051 4.41,-4.555 6.88,-4.555 2.56,0 4.91,1.856 7.09,5.59 2.17,3.731 3.5,10.313 3.99,19.75 h 8.38 c -1.56,-27.898 -11.86,-41.828 -30.89,-41.828 -6,0 -11.19,1.504 -15.57,4.555 -4.39,3.027 -7.7,7.5 -9.93,13.398 -1.72,4.438 -3.63,16.039 -5.78,34.832 -1.23,10.926 -3.16,18.684 -5.84,23.274 -2.66,4.589 -6.84,8.281 -12.48,11.074 -5.66,2.797 -12.45,4.183 -20.32,4.183 h -14.89 v -71.503 c 0,-3.051 0.79,-5.18 2.35,-6.411 1.95,-1.562 5.04,-2.343 9.22,-2.343 h 17.49 v -9.223 h -84.56 v 9.223 h 17.84 c 3.94,0 6.83,0.781 8.67,2.343 1.86,1.563 2.77,3.692 2.77,6.411 v 145.468 c 0,3.125 -0.93,5.469 -2.83,7.032 -1.89,1.546 -4.76,2.328 -8.61,2.328 h -17.84 v 9.238" /><path
         id="path32"
         style="fill:#231f20;fill-opacity:1;fill-rule:nonzero;stroke:none"
         d="m 834.934,320.02 h 120.058 v -13.129 h -28.699 c -4.551,0 -7.91,-1.203 -10.059,-3.586 -2.168,-2.387 -3.242,-6.149 -3.242,-11.289 V 87.7734 c 0,-4.8906 1.367,-8.3789 4.11,-10.4101 2.734,-2.0313 8.242,-3.0664 16.523,-3.0664 h 36.348 c 19.336,0 35.157,6.457 47.437,19.3476 12.3,12.8785 21.25,35.2615 26.84,67.1095 h 12.26 l -5.96,-99.5821 H 834.934 v 13.125 h 21.183 c 7.227,0 12.305,1.3867 15.223,4.1211 2.91,2.7343 4.375,7.1484 4.375,13.2148 V 293.766 c 0,4.308 -1.231,7.593 -3.672,9.8 -2.449,2.211 -6.074,3.325 -10.859,3.325 h -26.25 v 13.129" /><path
         id="path34"
         style="fill:#231f20;fill-opacity:1;fill-rule:nonzero;stroke:none"
         d="m 1072.11,242.371 h 83.56 v -9.176 h -14.34 c -6.37,0 -10.39,-0.812 -12.07,-2.414 -1.67,-1.57 -2.51,-4.941 -2.51,-10.105 V 83.4688 c 0,-5.4688 0.74,-8.9063 2.21,-10.2852 1.95,-1.8828 5.51,-2.8203 10.65,-2.8203 h 16.06 v -9.1914 h -83.56 v 9.1914 h 15.8 c 5.56,0 9.15,0.8281 10.79,2.4492 1.63,1.6406 2.46,5.1875 2.46,10.6563 V 220.676 c 0,5.23 -0.75,8.465 -2.22,9.695 -2.29,1.875 -6.5,2.824 -12.62,2.824 h -14.21 v 9.176" /><path
         id="path36"
         style="fill:#231f20;fill-opacity:1;fill-rule:nonzero;stroke:none"
         d="m 1163.87,242.371 h 76.33 v -9.176 h -13.23 c -5.47,0 -9.19,-0.668 -11.16,-1.972 -1.95,-1.313 -2.94,-3.071 -2.94,-5.278 0,-1.707 0.74,-4.199 2.21,-7.457 l 0.98,-2.582 47.72,-121.4138 42.2,115.8988 c 0.82,2.304 1.23,5.058 1.23,8.339 0,4.571 -1.33,8.118 -3.98,10.657 -2.66,2.539 -6.31,3.808 -10.96,3.808 h -12.37 v 9.176 h 66.88 v -9.176 h -5.38 c -4.09,0 -8.16,-1.933 -12.21,-5.761 -4.04,-3.848 -7.7,-10.168 -10.96,-18.989 L 1262.21,56.8867 h -8.92 l -64.02,161.9723 c -2.2,5.379 -4.76,9.121 -7.67,11.2 -2.9,2.082 -6.84,3.136 -11.83,3.136 h -5.9 v 9.176" /><path
         id="path38"
         style="fill:#231f20;fill-opacity:1;fill-rule:nonzero;stroke:none"
         d="m 1355.49,242.371 h 83.55 v -9.176 h -14.33 c -6.37,0 -10.4,-0.812 -12.08,-2.414 -1.66,-1.57 -2.52,-4.941 -2.52,-10.105 V 83.4688 c 0,-5.4688 0.74,-8.9063 2.22,-10.2852 1.96,-1.8828 5.5,-2.8203 10.65,-2.8203 h 16.06 v -9.1914 h -83.55 v 9.1914 h 15.79 c 5.56,0 9.14,0.8281 10.78,2.4492 1.64,1.6406 2.45,5.1875 2.45,10.6563 V 220.676 c 0,5.23 -0.74,8.465 -2.2,9.695 -2.28,1.875 -6.5,2.824 -12.62,2.824 h -14.2 v 9.176" /><path
         id="path40"
         style="fill:#231f20;fill-opacity:1;fill-rule:nonzero;stroke:none"
         d="m 1458.64,242.371 h 43.25 l 109.26,-142.359 v 103.035 c 0,10.371 -2.36,18.047 -7.1,23.039 -4.33,4.566 -10.77,6.934 -19.34,7.109 v 9.176 h 63.44 v -9.176 c -6.48,0 -11.31,-0.898 -14.52,-2.715 -3.2,-1.796 -5.98,-5.058 -8.36,-9.804 -2.39,-4.731 -3.57,-9.914 -3.57,-15.559 V 61.1719 h -11.52 L 1497.11,209.387 v -109.36 c 0,-9.8903 2.48,-17.2614 7.46,-22.1168 4.99,-4.8516 12.72,-7.375 23.18,-7.5469 v -9.1914 h -69.11 v 9.1914 c 8.66,0.332 15.5,3.1719 20.58,8.5156 5.05,5.332 7.59,11.875 7.59,19.6172 V 221.199 l -2.14,2.367 c -4.09,4.461 -6.98,7.086 -8.69,7.899 -2.36,1.133 -5.42,1.73 -9.16,1.73 h -8.18 v 9.176" /><path
         id="path42"
         style="fill:#231f20;fill-opacity:1;fill-rule:nonzero;stroke:none"
         d="m 1793.85,228.047 10.02,18.113 h 8.2 l 4.53,-72.273 h -7.96 c -6.11,20.781 -13.32,35.832 -21.66,45.129 -10.61,11.812 -22.75,17.722 -36.47,17.722 -10.52,0 -19.95,-2.976 -28.26,-8.925 -8.31,-5.977 -14.71,-14.903 -19.14,-26.825 -4.46,-11.925 -6.68,-28.683 -6.68,-50.312 0,-20.988 2.22,-37.395 6.68,-49.199 4.43,-11.8364 10.56,-20.5707 18.4,-26.145 7.83,-5.6054 17.01,-8.4062 27.54,-8.4062 14.26,0 25.31,4.0039 33.09,12.0117 7.79,8.0078 11.69,18.3398 11.69,31.0035 v 17.012 c 0,2.715 -1.05,4.797 -3.13,6.262 -2.08,1.465 -5.49,2.207 -10.24,2.207 h -15.31 v 8.582 h 75.96 v -8.582 h -10.29 c -4.58,0 -7.83,-0.813 -9.8,-2.387 -1.97,-1.59 -2.93,-3.914 -2.93,-6.93 V 56.8867 h -8.1 C 1807.06,67.6758 1804,78 1800.8,87.8906 c -6.12,-10.0468 -13.4,-17.5976 -21.87,-22.6093 -8.45,-5.0274 -18.03,-7.5391 -28.72,-7.5391 -15.28,0 -29.43,3.9375 -42.44,11.7695 -13.04,7.8321 -23.32,18.8789 -30.87,33.1443 -7.57,14.239 -11.33,30.364 -11.33,48.321 0,18.046 3.78,34.218 11.37,48.527 7.61,14.285 18,25.633 31.2,34.031 13.19,8.43 26.51,12.625 39.99,12.625 7.67,0 15.03,-1.289 22,-3.875 6.98,-2.597 14.88,-7.324 23.72,-14.238" /><path
         id="path44"
         style="fill:#588ed2;fill-opacity:1;fill-rule:nonzero;stroke:none"
         d="M 535.082,363.793 355.805,673.469 176.836,363.793 Z" /><path
         id="path46"
         style="fill:#f57c14;fill-opacity:1;fill-rule:nonzero;stroke:none"
         d="m 157.121,531.652 c -4.891,1.496 -7.562,2.196 -7.601,2.207 l 1.503,5.77 c 0,0 2.762,-0.723 7.848,-2.285 z m 15.063,-4.972 c -2.723,0.953 -5.227,1.8 -7.508,2.554 l 1.875,5.653 c 2.301,-0.762 4.844,-1.621 7.597,-2.582 z m 14.89,-5.465 c -2.59,0.992 -5.07,1.922 -7.422,2.785 l 2.051,5.594 c 2.383,-0.871 4.883,-1.813 7.5,-2.813 z m 14.723,-5.871 c -2.527,1.039 -4.973,2.035 -7.348,2.98 l 2.207,5.539 c 2.395,-0.957 4.871,-1.965 7.414,-3.011 z m 14.555,-6.25 c -2.473,1.097 -4.895,2.152 -7.262,3.168 l 2.351,5.476 c 2.391,-1.023 4.832,-2.09 7.332,-3.195 z m 14.414,-6.606 c -2.438,1.157 -4.836,2.27 -7.184,3.348 l 2.481,5.418 c 2.378,-1.086 4.792,-2.211 7.25,-3.371 z m 14.242,-6.941 c -2.399,1.207 -4.762,2.375 -7.102,3.512 l 2.61,5.359 c 2.359,-1.145 4.75,-2.332 7.168,-3.551 z M 433.742,353.629 c -1.777,1.961 -3.562,3.898 -5.351,5.82 l 4.355,4.063 c 1.809,-1.942 3.613,-3.899 5.41,-5.879 z m 10.481,-11.859 c -1.731,2.007 -3.469,3.996 -5.207,5.964 l 4.472,3.946 c 1.758,-1.989 3.496,-3.992 5.246,-6.028 z m 10.136,-12.141 c -1.671,2.055 -3.351,4.094 -5.031,6.109 l 4.57,3.817 c 1.7,-2.035 3.399,-4.09 5.09,-6.157 z m 9.813,-12.387 c -1.602,2.09 -3.223,4.168 -4.852,6.227 l 4.668,3.699 c 1.649,-2.086 3.289,-4.184 4.91,-6.305 z m 9.473,-12.672 c -1.551,2.141 -3.114,4.262 -4.688,6.364 l 4.766,3.574 c 1.593,-2.129 3.175,-4.274 4.746,-6.434 z m 9.121,-12.929 c -1.493,2.183 -2.996,4.347 -4.512,6.496 l 4.863,3.433 c 1.535,-2.168 3.059,-4.359 4.571,-6.558 z m 8.742,-13.161 c -1.426,2.223 -2.871,4.426 -4.328,6.61 l 4.961,3.308 c 1.476,-2.21 2.941,-4.445 4.386,-6.695 z m 8.387,-13.421 c -1.375,2.265 -2.754,4.515 -4.149,6.742 l 5.059,3.156 c 1.394,-2.246 2.793,-4.508 4.187,-6.793 z m 8.027,-13.629 c -1.309,2.3 -2.637,4.586 -3.965,6.851 l 5.137,3.02 c 1.347,-2.285 2.676,-4.59 4.004,-6.922 z m 7.609,-13.852 c -1.25,2.332 -2.5,4.66 -3.769,6.957 l 5.234,2.871 c 1.27,-2.328 2.539,-4.664 3.789,-7.015 z m 7.235,-14.043 c -1.161,2.371 -2.352,4.719 -3.555,7.039 l 5.293,2.739 c 1.223,-2.368 2.434,-4.747 3.613,-7.141 z m 6.855,-14.258 c -1.101,2.403 -2.234,4.778 -3.367,7.149 l 5.371,2.578 c 1.152,-2.391 2.285,-4.805 3.406,-7.227 z m 6.465,-14.441 c -1.055,2.43 -2.109,4.844 -3.184,7.242 l 5.45,2.426 c 1.074,-2.426 2.148,-4.856 3.203,-7.309 z m 6.074,-14.602 c -0.984,2.454 -1.972,4.895 -2.988,7.325 l 5.508,2.285 c 1.015,-2.449 2.023,-4.91 3.008,-7.403 z m 5.664,-14.765 c -0.918,2.48 -1.844,4.953 -2.793,7.394 l 5.567,2.149 c 0.949,-2.485 1.894,-4.973 2.812,-7.492 z m 5.266,-14.91 c -0.852,2.507 -1.711,5 -2.59,7.468 l 5.625,1.993 c 0.879,-2.508 1.758,-5.02 2.609,-7.547 z m 4.883,-15.051 c -0.793,2.527 -1.594,5.051 -2.395,7.551 l 5.664,1.836 c 0.821,-2.52 1.621,-5.059 2.414,-7.61 z m 4.48,-15.164 c -0.711,2.547 -1.445,5.078 -2.187,7.597 l 5.703,1.7 c 0.761,-2.539 1.496,-5.11 2.226,-7.676 z m 4.102,-15.266 c -0.645,2.57 -1.317,5.11 -2,7.649 l 5.761,1.543 c 0.684,-2.559 1.356,-5.137 2.02,-7.727 z m 3.711,-15.3827 -1.817,7.707 5.801,1.3868 1.816,-7.7618 z m 3.339,-15.4648 c -0.527,2.5859 -1.074,5.1718 -1.621,7.7422 l 5.821,1.25 c 0.566,-2.586 1.113,-5.1954 1.64,-7.8008 z m 2.961,-15.5469 c -0.468,2.6055 -0.949,5.2031 -1.445,7.7734 l 5.859,1.1328 c 0.497,-2.6093 0.977,-5.2265 1.446,-7.8515 z m 2.598,-15.625 -1.262,7.8203 5.879,0.9766 1.262,-7.8789 z m 2.215,-15.6563 c -0.332,2.625 -0.691,5.2344 -1.063,7.8399 l 5.899,0.8437 c 0.371,-2.6289 0.73,-5.2734 1.082,-7.9218 z m 1.887,-15.7226 c -0.286,2.6289 -0.586,5.2539 -0.899,7.8633 l 5.918,0.6992 c 0.313,-2.625 0.613,-5.2695 0.899,-7.9375 z M 584.426,0 l -0.36,3.80078 5.938,0.58594 0.359,-3.839845 L 584.426,0" /><path
         id="path48"
         style="fill:#231f20;fill-opacity:1;fill-rule:nonzero;stroke:none"
         d="m 1850.67,243.645 h 3.17 c 2.13,0 3.79,0.398 4.99,1.199 1.21,0.804 1.81,2.23 1.81,4.289 0,1.41 -0.23,2.527 -0.68,3.347 -0.46,0.821 -1.05,1.383 -1.78,1.684 -0.75,0.305 -2.2,0.453 -4.36,0.453 -1.42,0 -2.31,-0.101 -2.65,-0.301 -0.34,-0.195 -0.5,-0.539 -0.5,-1.019 z m -8.19,12.332 h 13.86 c 2.69,0 4.77,-0.61 6.25,-1.832 1.48,-1.219 2.23,-2.821 2.23,-4.805 0,-1.188 -0.31,-2.238 -0.89,-3.168 -0.59,-0.922 -1.43,-1.66 -2.54,-2.211 -1.1,-0.555 -2.84,-0.941 -5.22,-1.188 1.73,-0.468 2.92,-0.937 3.57,-1.386 0.65,-0.457 1.17,-1.043 1.57,-1.758 0.39,-0.723 0.84,-2.188 1.36,-4.402 0.36,-1.582 0.75,-2.668 1.16,-3.243 0.31,-0.453 0.66,-0.675 1.02,-0.675 0.38,0 0.72,0.273 1.04,0.82 0.32,0.559 0.52,1.523 0.59,2.922 h 1.24 c -0.24,-4.121 -1.75,-6.172 -4.56,-6.172 -0.88,0 -1.64,0.223 -2.3,0.672 -0.64,0.437 -1.13,1.101 -1.45,1.972 -0.26,0.657 -0.54,2.364 -0.85,5.137 -0.19,1.613 -0.47,2.754 -0.87,3.43 -0.39,0.672 -1.01,1.219 -1.84,1.629 -0.84,0.41 -1.83,0.617 -3,0.617 h -2.18 v -10.539 c 0,-0.449 0.1,-0.762 0.34,-0.945 0.29,-0.227 0.74,-0.344 1.36,-0.344 h 2.57 v -1.356 h -12.46 v 1.356 h 2.63 c 0.59,0 1.01,0.117 1.28,0.344 0.27,0.234 0.41,0.546 0.41,0.945 v 21.441 c 0,0.457 -0.14,0.805 -0.42,1.035 -0.27,0.231 -0.7,0.344 -1.27,0.344 h -2.63 v 1.36" /><path
         id="path50"
         style="fill:#231f20;fill-opacity:1;fill-rule:nonzero;stroke:none"
         d="m 1855.09,264.262 c -12.04,0 -21.83,-9.797 -21.83,-21.84 0,-12.039 9.79,-21.824 21.83,-21.824 12.04,0 21.85,9.785 21.85,21.824 0,12.043 -9.81,21.84 -21.85,21.84 z m 0,-46.594 c -13.64,0 -24.76,11.109 -24.76,24.754 0,13.656 11.12,24.766 24.76,24.766 13.66,0 24.77,-11.11 24.77,-24.766 0,-13.645 -11.11,-24.754 -24.77,-24.754" /></g></g></svg>