<?xml version="1.0" encoding="UTF-8"?>
<svg viewBox="0 0 338 90" version="1.1" xmlns="http://www.w3.org/2000/svg" xmlns:xlink="http://www.w3.org/1999/xlink">
    <!-- Generator: Sketch 52.5 (67469) - http://www.bohemiancoding.com/sketch -->
    <title>bigos-horizontal-logo</title>
    <desc>Created with Sketch.</desc>
    <g id="Page-8" stroke="none" stroke-width="1" fill="none" fill-rule="evenodd">
        <g id="Bigos_LogoGuide_V1" transform="translate(-227.000000, -261.000000)">
            <g id="bigos-horizontal-logo" transform="translate(227.000000, 261.000000)">
                <path d="M85.7785,89.0471 L3.3525,89.0471 C1.7905,89.0471 0.5205,87.7751 0.5205,86.2111 L0.5205,3.7881 C0.5205,2.2251 1.7905,0.9531 3.3525,0.9531 L85.7785,0.9531 C87.3405,0.9531 88.6115,2.2251 88.6115,3.7881 L88.6115,86.2111 C88.6115,87.7751 87.3405,89.0471 85.7785,89.0471 Z M4.7115,84.8531 L84.4185,84.8531 L84.4185,5.1461 L4.7115,5.1461 L4.7115,84.8531 Z" id="Fill-377" fill="#EBB330"></path>
                <path d="M20.9247,67.9689 C20.2357,67.9689 19.6747,67.4089 19.6747,66.7189 L19.6747,63.0379 C19.6747,62.7169 19.9337,62.4569 20.2557,62.4569 L22.3167,62.4569 C22.6377,62.4569 22.8977,62.1979 22.8977,61.8759 L22.8977,28.3509 C22.8977,28.0319 22.6377,27.7719 22.3167,27.7719 L20.2477,27.7719 C19.9257,27.7719 19.6657,27.5129 19.6657,27.1919 L19.6657,23.3849 C19.6657,22.6949 20.2257,22.1349 20.9167,22.1349 L27.2417,22.1349 C27.9327,22.1349 28.4927,22.6949 28.4927,23.3849 L28.4927,61.1849 C28.4927,61.8759 29.0517,62.4369 29.7427,62.4369 L60.9487,62.4369 C61.5637,62.4369 62.2447,62.3719 62.6087,61.8969 C62.9757,61.4209 62.8607,60.7389 62.6987,60.1339 C60.9037,53.3949 56.1227,48.9559 49.2357,48.2279 C48.3087,48.1319 47.3857,48.0999 46.6007,48.0829 C46.1607,48.0749 45.7217,48.0719 45.2757,48.0719 L43.5767,48.0749 L43.5767,42.1789 L44.5517,42.1789 C47.4087,42.1789 49.9797,42.1169 52.5197,41.3539 C57.6637,39.8129 61.0007,35.9899 62.7157,30.3519 C62.8287,29.9819 62.9547,29.5489 63.0177,29.0979 C63.0737,28.7079 63.0017,28.3739 62.8047,28.1139 C62.5947,27.8389 62.2637,27.6709 61.8207,27.6139 C61.7387,27.6029 61.6577,27.5999 61.5737,27.5999 L40.1007,27.6029 C39.9707,27.6029 39.5357,27.6109 39.3777,27.6249 C39.3777,27.6249 39.0297,27.6249 39.0297,27.9939 C39.0297,28.3629 39.0237,35.7599 39.0237,35.7599 C39.0167,41.2239 39.0087,46.6859 39.0517,52.1469 C39.0697,54.6419 37.5177,57.3169 34.0087,57.6719 L33.1937,57.7499 L33.1937,23.2829 C33.1937,22.5909 33.7547,22.0319 34.4457,22.0319 L65.6557,22.0319 C66.8407,22.0319 67.8687,22.4299 68.5487,23.1549 C69.2097,23.8549 69.5237,24.8189 69.4567,25.9409 C69.0427,32.8459 66.6947,38.2579 62.2787,42.4849 C61.8467,42.8969 61.3657,43.2759 60.8667,43.6629 C60.5297,43.9239 60.1787,44.1689 59.8117,44.4279 L58.8417,45.1189 C58.8417,45.1189 59.8477,45.8469 60.0037,45.9569 C64.1857,48.8799 66.9487,52.9959 68.4457,58.5399 C69.0857,60.9059 69.4747,62.9029 69.3037,64.9609 C69.1707,66.5859 67.6487,67.9639 65.9807,67.9659 C58.2637,67.9689 50.5457,67.9709 42.8277,67.9709 L20.9247,67.9689 Z" id="Fill-379" fill="#EBB330"></path>
                <path d="M139.8664,66.9659064 L139.8664,23.6689 C140.1014,23.4339 140.2324,23.3029 140.4674,23.0689 C144.6504,23.0659 148.8344,23.0499 153.0184,23.0689 C159.7674,23.1019 165.6954,28.3229 165.7744,35.0709 C165.8174,38.5749 164.3634,41.5669 161.2884,43.8939 C161.0064,44.1069 160.7234,44.3159 160.4154,44.5469 C161.3334,45.2639 162.2434,45.8939 163.0644,46.6269 C168.2214,51.2319 167.3954,59.4079 162.6654,63.6849 C160.1994,65.9149 157.2754,66.9689 153.9584,66.9659 C149.6474,66.9639 145.3394,66.9659 141.0294,66.9659 L139.8664,66.9659064 Z M145.9504,60.7369 C145.9504,61.0299 146.1884,61.2639 146.4804,61.2639 C149.2714,61.2749 152.0214,61.3529 154.7604,61.2259 C156.4244,61.1469 157.8654,60.2889 158.9384,58.9689 C162.0564,55.1359 160.3614,49.5649 155.4684,48.1459 C153.5774,47.5949 151.4724,47.7439 149.4634,47.6349 C148.4674,47.5809 147.4654,47.6089 146.4754,47.6189 C146.1834,47.6219 145.9504,47.8559 145.9504,48.1469 L145.9504,60.7369 Z M145.9454,41.4349 C145.9454,41.7269 146.1894,41.9649 146.4834,41.9649 C148.7274,41.9659 150.8754,41.9709 153.0204,41.9569 C153.4134,41.9529 153.8074,41.8599 154.1984,41.7829 C157.3854,41.1569 159.6944,38.4229 159.7524,35.2149 C159.8084,32.1619 157.6484,29.4379 154.4664,28.8589 C152.9884,28.5909 151.4374,28.7329 149.9174,28.7109 C148.7724,28.6949 147.6244,28.7029 146.4764,28.7059 C146.1834,28.7069 145.9454,28.9429 145.9454,29.2339 L145.9454,41.4349 Z" id="Fill-381" fill="#373834"></path>
                <path d="M294.1138,54.1643 C293.8018,61.6923 287.2288,67.6303 279.7218,67.4653 C272.3258,67.3013 266.4158,62.2303 265.5298,54.8993 C265.5278,54.8713 265.5258,54.8433 265.5258,54.8153 L265.4298,36.0833 C265.5708,29.3323 271.6618,23.1853 278.3798,22.5793 C286.7268,21.8263 294.0868,28.1673 294.2308,36.9083 L294.1138,54.1643 Z M271.5178,53.9573 C271.7748,58.8843 276.9618,62.5683 281.7388,61.3513 C285.5888,60.3713 288.1938,56.9563 288.2158,52.7703 L288.2138,37.8833 C288.2118,37.0903 288.1558,36.2893 288.0218,35.5113 C287.3778,31.7413 283.7948,28.1153 279.2178,28.4573 C275.2758,28.7513 271.6678,32.2573 271.4948,36.3573 L271.5178,53.9573 Z" id="Fill-383" fill="#373834"></path>
                <path d="M337.355,33.7069 C337.39,34.0959 337.072,34.4459 336.68,34.4459 L331.551,34.4459 C331.429,33.8839 331.333,33.2119 331.137,32.5689 C330.024,28.9129 327.365,28.1339 324.522,28.1809 C322.601,28.2119 320.769,28.6469 319.472,30.2199 C317.407,32.7289 317.051,37.4319 321.434,39.6779 C323.994,40.9929 326.677,42.0669 329.289,43.2799 C331.432,44.2749 333.468,45.4509 335.014,47.2879 C337.72,50.4989 338.242,54.2549 337.384,58.2019 C336.151,63.8719 331.764,66.8869 326.424,67.3869 C322.848,67.7219 319.413,67.2319 316.425,65.0289 C313.31,62.7289 311.862,59.5739 311.443,55.8109 C311.398,55.4149 311.718,55.0619 312.117,55.0619 L316.832,55.0619 C317.16,55.0619 317.427,55.3089 317.482,55.6299 C317.881,58.0069 318.995,59.9359 321.256,61.0669 C324.566,62.7239 330.305,61.9109 331.519,56.7869 C332.195,53.9399 331.114,51.0469 328.322,49.4959 C325.81,48.0999 323.117,47.0319 320.511,45.8089 C318.378,44.8099 316.318,43.7099 314.691,41.9329 C312.125,39.1289 311.563,35.7449 312.209,32.2179 C313.256,26.4999 317.566,22.9549 323.421,22.5939 C326.946,22.3749 330.277,22.8689 333.142,25.1169 C335.699,27.1199 337.008,29.7709 337.355,33.7069" id="Fill-385" fill="#373834"></path>
                <path d="M198.6478,66.912 L183.3948,66.912 C183.1028,66.912 182.8658,66.675 182.8658,66.382 L182.8658,61.889 C182.8658,61.598 183.1028,61.36 183.3948,61.36 L187.2368,61.36 C187.5288,61.36 187.7668,61.121 187.7668,60.828 L187.7668,29.252 C187.7668,28.958 187.5288,28.72 187.2368,28.72 L183.3948,28.72 C183.1018,28.72 182.8638,28.485 182.8638,28.19 L182.8638,23.675 C182.8638,23.382 183.1018,23.143 183.3948,23.143 L198.6348,23.143 C198.9278,23.143 199.1638,23.382 199.1638,23.675 L199.1638,28.133 C199.1638,28.424 198.9278,28.661 198.6348,28.661 L194.4898,28.661 C194.1958,28.661 193.9588,28.899 193.9588,29.193 L193.9588,60.784 C193.9588,61.079 194.1958,61.313 194.4898,61.313 L198.6478,61.313 C198.9418,61.313 199.1778,61.55 199.1778,61.846 L199.1778,66.382 C199.1778,66.675 198.9418,66.912 198.6478,66.912" id="Fill-387" fill="#373834"></path>
                <path d="M217.0497,52.6851 C217.0477,53.8751 217.2457,55.8041 217.5757,56.9461 C219.3607,63.1311 224.5837,67.2191 231.2457,67.4581 C237.2637,67.6731 242.8567,63.8571 244.9427,58.2051 C246.5397,53.8721 246.0047,48.3661 245.9697,42.8551 C245.9667,42.5641 245.7317,42.3311 245.4417,42.3311 L230.5407,42.3311 C230.2337,42.3311 229.9707,42.5951 229.9997,42.9001 C230.2447,45.5331 232.1867,47.8911 235.5067,47.8911 L239.4307,47.8911 C239.7247,47.8911 239.9607,48.1211 239.9617,48.4131 C239.9717,50.5911 240.0267,53.4461 239.7997,54.7801 C239.1697,58.5021 235.6107,61.9111 230.7867,61.5611 C226.9827,61.2861 223.2567,57.7411 223.1697,53.8071 L223.1517,36.3211 C223.2167,32.7971 225.9697,29.6301 229.3917,28.7141 C232.8067,27.7961 236.3537,29.1411 238.3467,32.2181 C238.8327,32.9661 239.1847,33.8141 239.5667,34.6851 C239.6507,34.8781 239.8447,35.0061 240.0527,35.0061 L245.7547,35.0061 C245.7507,34.7761 245.7507,34.5881 245.7197,34.4201 C244.3677,27.2261 238.5747,22.2221 230.5137,22.5831 C222.9137,22.9201 217.1467,29.1771 217.0627,36.7931 L217.0497,52.6851 Z" id="Fill-389" fill="#373834"></path>
            </g>
        </g>
    </g>
</svg>