<?xml version="1.0" encoding="UTF-8"?>
<svg viewBox="0 0 314 77" version="1.1" xmlns="http://www.w3.org/2000/svg" xmlns:xlink="http://www.w3.org/1999/xlink">
    <!-- Generator: Sketch 57.1 (83088) - https://sketch.com -->
    <title>ResProp-Logo-SVG</title>
    <desc>Created with Sketch.</desc>
    <g id="logo" stroke="none" stroke-width="1" fill="none" fill-rule="evenodd">
        <g id="ResProp-Logo-SVG" fill="#FFFFFF" fill-rule="nonzero">
            <path d="M56.19,58.61 C55.66,58.61 54.59,58.61 53.51,58.52 C42.17,57.99 38.86,55.58 36.18,51.82 C32.61,46.91 30,41.46 27,36.1 C25.66,33.69 24.41,33.1 21.55,33.1 L19.76,33.01 L19.76,46.01 C19.76,53.25 20.65,53.88 27.35,54.68 L27.35,57.99 L0,57.99 L0,54.77 C6.79,54.06 7.6,53.34 7.6,46.1 L7.6,11.88 C7.6,4.88 6.7,3.88 0,3.31 L0,-3.55271368e-15 L25.9,-3.55271368e-15 C33.9,-3.55271368e-15 38.41,0.89 42.08,3.4 C45.75,5.91 48.08,9.74 48.08,15.28 C48.08,23.28 42.81,27.43 36.91,29.75 C38.25,32.43 41.74,38.24 44.42,42.35 C46.4295295,45.6244221 48.7002453,48.7311893 51.21,51.64 C53.27,53.97 54.21,54.64 56.84,55.58 L56.19,58.61 Z M22.19,29.4 C26.03,29.4 28.98,28.77 30.95,27.07 C33.95,24.57 35.15,21.18 35.15,16.62 C35.15,7.15 29.7,3.75 24.69,3.75 C22.28,3.75 21.12,4.11 20.58,4.65 C20.04,5.19 19.78,6.25 19.78,8.04 L19.78,29.4 L22.19,29.4 Z" id="Shape"></path>
            <path d="M94.17,49.32 C88.72,57.32 81.57,59.15 77.81,59.15 C65.81,59.15 59.05,50.3 59.05,39.67 C59.1398646,33.6493883 61.5382869,27.8931748 65.75,23.59 C69.3849119,19.7404617 74.3979156,17.489285 79.69,17.3297218 C83.5771663,17.3060618 87.3144846,18.8279944 90.0790745,21.5606995 C92.8436643,24.2934047 94.4088465,28.0128176 94.43,31.9 C94.43,33.42 94.34,34.9 93.27,35.2 C91.57,35.65 78.98,36.28 70.27,36.63 C70.63,46.1 75.9,50.93 82.33,50.93 C86.1017408,50.8887257 89.727355,49.4655209 92.52,46.93 L94.17,49.32 Z M77.9,21 C74.33,21 71.29,25.2 70.76,32.26 L81.57,32 C82.82,31.91 83.35,31.73 83.35,30.21 C83.44,25.73 81.39,21 77.9,21 Z" id="Shape"></path>
            <path d="M125.62,30 C123.3,23.75 120.26,20.89 116.06,20.89 C114.794749,20.8537078 113.570453,21.3403821 112.675418,22.2354176 C111.780382,23.1304532 111.293708,24.354749 111.33,25.62 C111.33,28.75 113.56,30.45 118.21,32.5 C125.44,35.72 130.36,38.76 130.36,45.82 C130.36,54.75 121.87,59.13 114.1,59.13 C110.17652,58.9971185 106.318522,58.0861553 102.75,56.45 C102.39,54.39 101.59,48.23 101.32,45.1 L104.32,44.57 C106.19,50.2 109.86,55.47 115.66,55.47 C119.06,55.47 120.76,53.41 120.76,50.82 C120.76,48.05 119.42,46 113.88,43.32 C107.98,40.46 102.26,37.32 102.26,29.91 C102.26,22.85 108.07,17.31 117.54,17.31 C120.798122,17.3762334 124.037102,17.8259986 127.19,18.65 C127.46,21.07 128.26,26.79 128.62,29.2 L125.62,30 Z" id="Path"></path>
            <path d="M159.94,-3.55271368e-15 C167,-3.55271368e-15 172.63,1 176.29,3.57 C180.49,6.52 182.99,10.9 182.99,17.07 C182.99,30.07 171.99,35.47 162.44,35.56 C161.543865,35.5538076 160.648914,35.493699 159.76,35.38 L154.58,34 L154.58,46.19 C154.58,53.7 155.2,54.06 162.98,54.77 L162.98,58.08 L134.56,58.08 L134.56,54.77 C141.26,53.97 142.16,53.7 142.16,46.19 L142.16,12.06 C142.16,4.56 141.26,3.75 134.56,3.31 L134.56,-3.55271368e-15 L159.94,-3.55271368e-15 Z M154.58,30.29 C156.075182,30.9205009 157.687912,31.2239534 159.31,31.18 C163.42,31.18 170.12,28.77 170.12,16.98 C170.12,6.98 164.67,3.66 158.87,3.66 C157.638196,3.55471565 156.40727,3.87214656 155.38,4.56 C154.76,5.09 154.58,5.99 154.58,7.33 L154.58,30.29 Z" id="Shape"></path>
            <path d="M211.08,58.08 L187.49,58.08 L187.49,55 C192.23,54.46 192.67,54 192.67,48.66 L192.67,29.13 C192.67,24.66 192.32,24.21 188.12,23.32 L188.12,20.55 C193.575757,19.9348496 198.960237,18.7996888 204.2,17.16 L204.2,26.81 C208.2,20.64 211.44,17.33 215.1,17.33 C218.41,17.33 220.91,19.57 220.91,22.7 C220.89173,25.8733472 219.143167,28.7837845 216.35,30.29 C215.423706,30.7360451 214.31746,30.55633 213.58,29.84 C212.06,28.59 210.9,27.16 209.38,27.16 C208.04,27.16 205.81,28.32 204.2,31.72 L204.2,48.72 C204.2,54.08 204.82,54.35 211.08,55.06 L211.08,58.08 Z" id="Path"></path>
            <path d="M245.24,17.33 C257.84,17.33 265.8,26.81 265.8,37.53 C265.8,51.91 255.43,59.15 244.89,59.15 C231.4,59.15 223.71,48.96 223.71,38.51 C223.71,24.84 235,17.33 245.24,17.33 Z M244.17,20.91 C240.33,20.91 236.58,24.91 236.58,35.91 C236.58,46.91 240.24,55.48 245.87,55.48 C249.27,55.48 252.93,53.15 252.93,40.11 C252.93,27.7 249.71,20.91 244.17,20.91 Z" id="Shape"></path>
            <path d="M269.3,20.46 C274.851291,19.4389018 280.340125,18.1034191 285.74,16.46 L285.74,22.89 C285.92,22.8 291.74,19.32 291.99,19.23 C293.722503,18.0925467 295.729566,17.4431013 297.8,17.35 C307.63,17.35 313.26,26.35 313.26,34.96 C313.26,47.96 302.89,56.67 291.37,59.17 C289.461155,59.2315731 287.556134,58.9608775 285.74,58.37 L285.74,67.19 C285.74,72.19 286.18,72.73 292.35,73.53 L292.35,76.48 L268.35,76.48 L268.35,73.51 C273.8,72.98 274.16,72.17 274.16,67.26 L274.16,29.31 C274.16,24.48 273.63,23.95 269.25,23.41 L269.3,20.46 Z M285.74,51.56 C287.742151,53.4478716 290.319549,54.6098134 293.06,54.86 C297.8,54.86 301.28,49.05 301.28,39.4 C301.28,28.4 295.83,24.21 291.37,24.21 C289.3299,24.2690544 287.36015,24.9687881 285.74,26.21 L285.74,51.56 Z" id="Shape"></path>
        </g>
    </g>
</svg>