<?xml version="1.0" encoding="utf-8"?>
<!-- Generator: Adobe Illustrator 25.0.0, SVG Export Plug-In . SVG Version: 6.00 Build 0)  -->
<svg version="1.1" id="Layer_1" xmlns="http://www.w3.org/2000/svg" xmlns:xlink="http://www.w3.org/1999/xlink" x="0px" y="0px"
	 viewBox="0 0 250 100" style="enable-background:new 0 0 250 100;" xml:space="preserve">
<style type="text/css">
	.st0{clip-path:url(#SVGID_2_);fill:url(#SVGID_3_);}
	.st1{fill:#F05A28;}
</style>
<g>
	<g>
		<g>
			<defs>
				<path id="SVGID_1_" d="M57.68,47.36l-0.06-12.41c-0.36-3.9-3.97-7.03-8.55-7.47v20.29h-2.21v-20.3
					c-4.59,0.43-8.21,3.56-8.58,7.48l0.07,12.41H16.35v-12.7l31.62-15.4l31.62,15.4v10.66h13.51V28.08L47.96,6.1l-20.23,9.85V5.87
					l-12.62,7.5v8.73L2.84,28.08v28.96h0.01v0.43h76.74v7.97l-31.62,15.4L16.49,65.51h-0.03v-6H2.84v12.51L47.96,94l45.13-21.97
					V57.47h0.03V47.36H57.68z M44.55,39.02c-0.47,0-0.86-0.32-0.86-0.72c0-0.4,0.38-0.72,0.86-0.72c0.47,0,0.86,0.32,0.86,0.72
					C45.4,38.7,45.02,39.02,44.55,39.02z M51.51,39.02c-0.47,0-0.86-0.32-0.86-0.72c0-0.4,0.38-0.72,0.86-0.72
					c0.47,0,0.86,0.32,0.86,0.72C52.37,38.7,51.98,39.02,51.51,39.02z"/>
			</defs>
			<clipPath id="SVGID_2_">
				<use xlink:href="#SVGID_1_"  style="overflow:visible;"/>
			</clipPath>
			
				<linearGradient id="SVGID_3_" gradientUnits="userSpaceOnUse" x1="46.6651" y1="4.406" x2="46.6651" y2="106.2284" gradientTransform="matrix(1 0 0 -1 0 102)">
				<stop  offset="0" style="stop-color:#6A3071"/>
				<stop  offset="0.4942" style="stop-color:#EE4423"/>
				<stop  offset="1" style="stop-color:#FFE400"/>
			</linearGradient>
			<rect x="-3.11" y="-4.23" class="st0" width="99.55" height="101.82"/>
		</g>
	</g>
	<g>
		<path class="st1" d="M95.86,28.68h6.51v6.69h7.12v-6.69h6.54v19.11h-6.54v-7.73h-7.12v7.73h-6.51V28.68z"/>
		<path class="st1" d="M118.59,28.68h17.46v4.08h-10.93v3.03h10.13v3.89h-10.13v3.76h11.24v4.32h-17.77L118.59,28.68L118.59,28.68z"
			/>
		<path class="st1" d="M151.05,44.63h-7.39l-1.02,3.15h-6.65l7.93-19.11h7.11l7.92,19.11h-6.82L151.05,44.63z M149.7,40.5
			l-2.32-6.87l-2.3,6.87H149.7z"/>
		<path class="st1" d="M159.32,28.68H169c1.91,0,3.45,0.23,4.62,0.7c1.17,0.47,2.15,1.14,2.91,2.02c0.77,0.88,1.32,1.9,1.66,3.06
			c0.34,1.16,0.52,2.4,0.52,3.7c0,2.04-0.26,3.62-0.77,4.76c-0.51,1.12-1.22,2.07-2.14,2.83c-0.91,0.76-1.89,1.27-2.93,1.52
			c-1.43,0.35-2.72,0.52-3.88,0.52h-9.68L159.32,28.68L159.32,28.68z M165.83,33v10.44h1.6c1.36,0,2.33-0.14,2.9-0.41
			c0.57-0.27,1.02-0.75,1.35-1.43s0.49-1.79,0.49-3.31c0-2.02-0.36-3.41-1.09-4.15c-0.73-0.75-1.94-1.12-3.62-1.12h-1.62V33z"/>
		<path class="st1" d="M178.7,28.68h6.18l2.23,10.7l3.26-10.7h6.16l3.27,10.68l2.23-10.68h6.15l-4.65,19.11h-6.39l-3.69-12.03
			l-3.68,12.03h-6.39L178.7,28.68z"/>
		<path class="st1" d="M221.51,44.63h-7.39l-1.02,3.15h-6.65l7.93-19.11h7.11l7.92,19.11h-6.82L221.51,44.63z M220.16,40.5
			l-2.32-6.87l-2.3,6.87H220.16z"/>
		<path class="st1" d="M225.07,28.68h7.24l4.24,6.45l4.25-6.45h7.2l-8.19,11.1v8h-6.53v-8L225.07,28.68z"/>
	</g>
	<g>
		<path class="st1" d="M102.4,64.79l-1.24,5.02h-4.09l5.33-19.55h5.18l5.41,19.55h-4.24l-1.35-5.02H102.4z M106.83,61.48l-1.08-4.14
			c-0.32-1.16-0.62-2.61-0.88-3.77h-0.05c-0.26,1.16-0.52,2.64-0.8,3.77l-1.03,4.14H106.83z"/>
		<path class="st1" d="M114.05,50.52c1.21-0.23,2.92-0.41,5.33-0.41c2.43,0,4.17,0.52,5.33,1.56c1.11,0.98,1.86,2.61,1.86,4.52
			c0,1.91-0.57,3.53-1.61,4.65c-1.35,1.42-3.34,2.06-5.67,2.06c-0.52,0-0.98-0.03-1.35-0.09v6.99h-3.91V50.52H114.05z M117.95,59.39
			c0.33,0.09,0.75,0.12,1.32,0.12c2.1,0,3.39-1.19,3.39-3.19c0-1.8-1.11-2.87-3.08-2.87c-0.8,0-1.35,0.09-1.63,0.17L117.95,59.39
			L117.95,59.39z"/>
		<path class="st1" d="M130.32,64.79l-1.24,5.02H125l5.33-19.55h5.18l5.41,19.55h-4.24l-1.35-5.02H130.32z M134.74,61.48l-1.08-4.14
			c-0.32-1.16-0.62-2.61-0.88-3.77h-0.05c-0.26,1.16-0.52,2.64-0.8,3.77l-1.03,4.14H134.74z"/>
		<path class="st1" d="M141.97,50.52c1.27-0.23,3.16-0.41,5.26-0.41c2.59,0,4.4,0.43,5.64,1.54c1.03,0.93,1.61,2.29,1.61,4.08
			c0,2.49-1.58,4.2-3.08,4.82v0.09c1.22,0.55,1.89,1.85,2.33,3.65c0.54,2.2,1.08,4.76,1.43,5.51h-4.04
			c-0.29-0.55-0.7-2.14-1.22-4.56c-0.46-2.43-1.21-3.1-2.82-3.13h-1.19v7.69h-3.91L141.97,50.52L141.97,50.52z M145.87,58.93h1.56
			c1.97,0,3.13-1.1,3.13-2.81c0-1.8-1.08-2.69-2.89-2.72c-0.96,0-1.5,0.09-1.78,0.15L145.87,58.93L145.87,58.93z"/>
		<path class="st1" d="M159.41,53.97h-4.69v-3.71h13.4v3.71h-4.77V69.8h-3.96L159.41,53.97L159.41,53.97z"/>
		<path class="st1" d="M183.6,62.33c-0.08-2.35-0.16-5.2-0.16-8.03h-0.08c-0.54,2.49-1.27,5.28-1.94,7.57l-2.12,7.63h-3.08
			l-1.86-7.57c-0.57-2.29-1.16-5.08-1.58-7.63h-0.05c-0.1,2.64-0.18,5.66-0.32,8.09l-0.32,7.43h-3.65l1.11-19.55h5.25l1.7,6.53
			c0.54,2.26,1.08,4.7,1.48,6.99h0.09c0.49-2.26,1.08-4.85,1.65-7.02l1.86-6.5h5.15l0.96,19.55h-3.86L183.6,62.33z"/>
		<path class="st1" d="M199.86,61.53h-6.42v4.65h7.17v3.62h-11.13V50.25h10.76v3.62h-6.8v4.06h6.42V61.53z"/>
		<path class="st1" d="M202.03,69.8V50.25h4.61l3.62,7.17c1.03,2.06,2.07,4.49,2.85,6.7h0.08c-0.26-2.58-0.33-5.22-0.33-8.15v-5.72
			h3.62V69.8h-4.14l-3.72-7.54c-1.03-2.09-2.18-4.62-3.02-6.9l-0.08,0.03c0.11,2.58,0.16,5.34,0.16,8.53v5.89h-3.64V69.8z"/>
		<path class="st1" d="M221.99,53.97h-4.69v-3.71h13.4v3.71h-4.77V69.8h-3.96L221.99,53.97L221.99,53.97z"/>
		<path class="st1" d="M231.43,65.25c1.06,0.61,2.69,1.22,4.37,1.22c1.81,0,2.77-0.84,2.77-2.11c0-1.22-0.83-1.91-2.92-2.75
			c-2.89-1.13-4.79-2.93-4.79-5.77c0-3.33,2.48-5.89,6.6-5.89c1.97,0,3.42,0.46,4.45,0.98l-0.88,3.56c-0.7-0.38-1.94-0.93-3.65-0.93
			c-1.7,0-2.54,0.87-2.54,1.88c0,1.25,0.98,1.8,3.24,2.75c3.08,1.27,4.53,3.07,4.53,5.83c0,3.27-2.25,6.06-7.04,6.06
			c-1.99,0-3.96-0.58-4.94-1.19L231.43,65.25z"/>
	</g>
</g>
</svg>
